<svg width="20" height="20" viewBox="0 0 20 20" fill="none" xmlns="http://www.w3.org/2000/svg">
<path d="M15.3469 10.1924L9.82123 4.8119C9.69905 4.69442 9.60194 4.55458 9.53549 4.40042C9.46903 4.24625 9.43454 4.08082 9.434 3.91363C9.43346 3.74644 9.46688 3.58079 9.53234 3.42623C9.5978 3.27166 9.69401 3.13122 9.81542 3.013C9.93683 2.89478 10.0811 2.8011 10.2398 2.73736C10.3985 2.67363 10.5686 2.64108 10.7404 2.64161C10.9121 2.64213 11.082 2.67572 11.2403 2.74043C11.3986 2.80513 11.5422 2.89969 11.6629 3.01865L18.1092 9.29557C18.3534 9.53337 18.4906 9.8559 18.4906 10.1922C18.4906 10.5285 18.3534 10.851 18.1092 11.0888L11.6632 17.3643C11.5424 17.4821 11.3988 17.5756 11.2408 17.6393C11.0828 17.7031 10.9135 17.7359 10.7424 17.7359C10.5714 17.7359 10.402 17.7031 10.244 17.6393C10.086 17.5756 9.94248 17.4821 9.8216 17.3643C9.57758 17.1264 9.44051 16.8039 9.44051 16.4676C9.44051 16.1314 9.57758 15.8089 9.8216 15.571L15.3469 10.1924Z" fill="#A4F92F"/>
<path d="M7.42198 10.1897L1.89666 4.81113C1.77449 4.69369 1.67738 4.5539 1.61093 4.39979C1.54447 4.24568 1.50998 4.08031 1.50944 3.91317C1.5089 3.74604 1.54233 3.58046 1.60778 3.42595C1.67324 3.27144 1.76945 3.13105 1.89086 3.01287C2.01227 2.89469 2.1565 2.80105 2.31524 2.73733C2.47397 2.67361 2.64409 2.64108 2.81579 2.64161C2.98749 2.64213 3.1574 2.6757 3.31572 2.74039C3.47404 2.80508 3.61766 2.8996 3.73831 3.01852L10.1846 9.29321C10.4288 9.53092 10.566 9.85333 10.566 10.1895C10.566 10.5257 10.4288 10.8481 10.1846 11.0858L3.73869 17.359C3.61804 17.4779 3.47442 17.5725 3.3161 17.6372C3.15778 17.7018 2.98788 17.7354 2.81617 17.7359C2.64447 17.7365 2.47435 17.7039 2.31562 17.6402C2.15688 17.5765 2.01265 17.4829 1.89124 17.3647C1.76983 17.2465 1.67362 17.1061 1.60816 16.9516C1.5427 16.7971 1.50928 16.6315 1.50982 16.4644C1.51036 16.2972 1.54485 16.1319 1.61131 15.9778C1.67776 15.8236 1.77487 15.6839 1.89704 15.5664L7.42198 10.1897Z" fill="#A4F92F"/>
</svg>
