<svg width="40" height="40" viewBox="0 0 40 40" fill="none" xmlns="http://www.w3.org/2000/svg">
<g clip-path="url(#clip0_1273_2776)">
<path d="M20 -7.62939e-06C16.0444 -7.62939e-06 12.1776 1.17297 8.8886 3.3706C5.59962 5.56823 3.03617 8.6918 1.52242 12.3463C0.00866562 16.0008 -0.387401 20.0222 0.384303 23.9018C1.15601 27.7814 3.06082 31.3451 5.85787 34.1421C8.65492 36.9392 12.2186 38.844 16.0982 39.6157C19.9778 40.3874 23.9992 39.9913 27.6537 38.4776C31.3082 36.9638 34.4318 34.4004 36.6294 31.1114C38.827 27.8224 40 23.9556 40 20C39.9948 14.6973 37.886 9.6132 34.1364 5.8636C30.3868 2.114 25.3027 0.0051918 20 -7.62939e-06ZM20 37.053C16.6272 37.053 13.3302 36.0529 10.5258 34.1791C7.72149 32.3053 5.53575 29.6419 4.24505 26.5259C2.95434 23.4099 2.61664 19.9811 3.27463 16.6731C3.93263 13.3651 5.55677 10.3266 7.94169 7.94167C10.3266 5.55676 13.3652 3.93261 16.6731 3.27462C19.9811 2.61662 23.4099 2.95433 26.5259 4.24503C29.642 5.53574 32.3053 7.72147 34.1791 10.5258C36.0529 13.3302 37.0531 16.6272 37.0531 20C37.0531 22.2394 36.612 24.4569 35.755 26.5259C34.898 28.5949 33.6419 30.4748 32.0583 32.0583C30.4748 33.6418 28.5949 34.898 26.5259 35.755C24.457 36.6119 22.2394 37.053 20 37.053Z" fill="white"/>
<path d="M20 14.0469C19.6734 14.0552 19.3575 14.1651 19.0963 14.3613L9.46956 21.8072C9.30489 21.9204 9.16496 22.0659 9.05826 22.2348C8.95156 22.4037 8.88034 22.5926 8.84891 22.7899C8.81748 22.9872 8.82651 23.1888 8.87545 23.3825C8.92439 23.5763 9.01221 23.758 9.13358 23.9167C9.25494 24.0754 9.40732 24.2078 9.58145 24.3058C9.75557 24.4038 9.9478 24.4653 10.1465 24.4867C10.3451 24.508 10.546 24.4888 10.737 24.4301C10.928 24.3714 11.105 24.2744 11.2574 24.1452L20 17.3868L28.7426 24.1452C29.0527 24.3848 29.4452 24.4915 29.8339 24.4418C30.2226 24.3921 30.5757 24.19 30.8153 23.8799C31.055 23.5699 31.1617 23.1774 31.112 22.7887C31.0623 22.3999 30.8601 22.0469 30.5501 21.8072L20.9037 14.3613C20.6425 14.1651 20.3266 14.0552 20 14.0469Z" fill="white"/>
</g>
<defs>
<clipPath id="clip0_1273_2776">
<rect width="40" height="40" fill="white" transform="matrix(1 0 0 -1 0 40)"/>
</clipPath>
</defs>
</svg>
