<svg width="40" height="40" viewBox="0 0 40 40" fill="none" xmlns="http://www.w3.org/2000/svg">
<path d="M20 36C11.1637 36 4 28.8363 4 20C4 11.1637 11.1637 4 20 4C28.8363 4 36 11.1637 36 20C36 28.8363 28.8363 36 20 36ZM20 33.8667C27.6587 33.8667 33.8667 27.6587 33.8667 20C33.8667 12.3413 27.6587 6.13333 20 6.13333C12.3413 6.13333 6.13333 12.3413 6.13333 20C6.13333 27.6587 12.3413 33.8667 20 33.8667Z" fill="url(#paint0_linear_3250_10346)"/>
<path d="M28.0816 14.3135C28.2853 14.1194 28.563 14.007 28.8551 14.0003C29.1472 13.9937 29.4305 14.0933 29.6443 14.2779C29.8581 14.4625 29.9853 14.7173 29.9988 14.9879C30.0123 15.2584 29.9109 15.523 29.7164 15.7251L18.7062 26.6708C18.511 26.8647 18.2429 26.9819 17.9572 26.9981C17.6715 27.0143 17.3901 26.9282 17.1708 26.7578L10.4192 21.5029C10.3029 21.4166 10.2064 21.3097 10.1353 21.1883C10.0642 21.067 10.0201 20.9337 10.0054 20.7963C9.99076 20.6589 10.0059 20.5202 10.0499 20.3883C10.0939 20.2564 10.166 20.134 10.2618 20.0283C10.3576 19.9225 10.4753 19.8356 10.6079 19.7727C10.7404 19.7097 10.8853 19.672 11.0338 19.6616C11.1824 19.6513 11.3317 19.6686 11.4729 19.7125C11.6141 19.7564 11.7445 19.8261 11.8562 19.9174L17.7955 24.5394L28.0816 14.3125V14.3135Z" fill="url(#paint1_linear_3250_10346)"/>
<defs>
<linearGradient id="paint0_linear_3250_10346" x1="20" y1="4" x2="20" y2="36" gradientUnits="userSpaceOnUse">
<stop stop-color="#F6F022"/>
<stop offset="1" stop-color="#95FA31"/>
</linearGradient>
<linearGradient id="paint1_linear_3250_10346" x1="20" y1="14" x2="20" y2="27" gradientUnits="userSpaceOnUse">
<stop stop-color="#F6F022"/>
<stop offset="1" stop-color="#95FA31"/>
</linearGradient>
</defs>
</svg>
