<svg width="22" height="22" viewBox="0 0 22 22" fill="none" xmlns="http://www.w3.org/2000/svg">
<path d="M10.9824 20.744C9.70021 20.7457 8.43038 20.4938 7.2459 20.003C6.06142 19.5122 4.98565 18.792 4.08047 17.884C3.17294 16.979 2.45319 15.9036 1.96259 14.7196C1.47198 13.5355 1.22019 12.2662 1.22169 10.9846C1.21997 9.7024 1.47176 8.43255 1.96259 7.24806C2.45342 6.06357 3.17359 4.98781 4.08169 4.08266C4.98659 3.17491 6.06195 2.45494 7.24599 1.96413C8.43003 1.47331 9.6994 1.22133 10.9811 1.22266C12.2633 1.22101 13.5331 1.47283 14.7176 1.96366C15.9021 2.45448 16.9778 3.17462 17.883 4.08266C18.7909 4.98771 19.511 6.06327 20.0018 7.24753C20.4926 8.43179 20.7445 9.70139 20.743 10.9833C20.7447 12.2655 20.4929 13.5353 20.002 14.7198C19.5112 15.9043 18.7911 16.98 17.883 17.8852C16.9778 18.7933 15.9021 19.5134 14.7176 20.0042C13.5331 20.4951 12.2633 20.7469 10.9811 20.7452L10.9824 20.744ZM10.9824 2.60866C8.74569 2.60866 6.64347 3.48011 5.06069 5.06166C4.28058 5.83748 3.66209 6.76033 3.24103 7.77679C2.81997 8.79324 2.6047 9.88312 2.60769 10.9833C2.60769 13.22 3.47913 15.3234 5.06069 16.905C5.83651 17.6851 6.75936 18.3036 7.77581 18.7247C8.79227 19.1457 9.88214 19.361 10.9824 19.358C13.219 19.358 15.3225 18.4866 16.904 16.905C17.6841 16.1292 18.3026 15.2063 18.7237 14.1899C19.1447 13.1734 19.36 12.0835 19.357 10.9833C19.357 8.74667 18.4856 6.64444 16.904 5.06166C16.1282 4.28155 15.2054 3.66307 14.1889 3.24201C13.1724 2.82095 12.0826 2.60568 10.9824 2.60866ZM10.9824 4.88811C11.3197 4.88811 11.7866 5.18144 11.7866 5.57622V12.7054C11.7866 13.099 11.3197 13.4107 10.9824 13.4107C10.645 13.4107 10.1781 13.099 10.1781 12.7054V5.57622C10.1781 5.18144 10.645 4.88811 10.9824 4.88811ZM11.0899 17.037C10.7658 17.037 10.4549 16.9082 10.2257 16.679C9.99646 16.4498 9.86769 16.1389 9.86769 15.8148C9.86769 15.4906 9.99646 15.1797 10.2257 14.9505C10.4549 14.7213 10.7658 14.5926 11.0899 14.5926C11.4141 14.5926 11.7249 14.7213 11.9542 14.9505C12.1834 15.1797 12.3121 15.4906 12.3121 15.8148C12.3121 16.1389 12.1834 16.4498 11.9542 16.679C11.7249 16.9082 11.4141 17.037 11.0899 17.037Z" fill="url(#paint0_linear_72_5668)"/>
<defs>
<linearGradient id="paint0_linear_72_5668" x1="10.9824" y1="1.22266" x2="10.9824" y2="20.7452" gradientUnits="userSpaceOnUse">
<stop stop-color="#F6F022"/>
<stop offset="1" stop-color="#95FA31"/>
</linearGradient>
</defs>
</svg>
