<svg width="30" height="30" viewBox="0 0 30 30" fill="none" xmlns="http://www.w3.org/2000/svg">
<g id="&#229;&#144;&#145;&#228;&#184;&#139;2 1">
<path id="Vector" d="M11.1998 7.19679C10.932 7.45828 10.9334 7.87879 11.204 8.13759L18.3389 14.954L11.2343 21.8656C10.9659 22.1271 10.9679 22.5476 11.2385 22.8071C11.5097 23.0659 11.9465 23.064 12.215 22.8031L19.7654 15.4571C19.7771 15.4458 19.7799 15.4311 19.7909 15.4198C19.7936 15.4171 19.7971 15.4165 19.7999 15.4138C19.933 15.2841 20 15.1144 20 14.9454C20 14.7744 19.9317 14.6028 19.7957 14.473L12.1764 7.19347C11.9051 6.93398 11.4683 6.93595 11.1998 7.19679Z" fill="#808080"/>
</g>
</svg>
