<svg width="30" height="30" viewBox="0 0 30 30" fill="none" xmlns="http://www.w3.org/2000/svg">
<g id="f-vip2 1">
<path id="Vector" d="M27.5721 12.6534L23.6326 4.98564C23.5415 4.80838 23.4033 4.65966 23.2332 4.55582C23.0631 4.45198 22.8677 4.39704 22.6684 4.39703H7.38435C7.18598 4.39703 6.99142 4.45146 6.82185 4.5544C6.65228 4.65734 6.51421 4.80484 6.42268 4.98083L2.43804 12.6418C2.3336 12.8426 2.29464 13.0711 2.3266 13.2951C2.35857 13.5192 2.45986 13.7276 2.61628 13.8912L14.2081 26.0133C14.3092 26.119 14.4307 26.2032 14.5652 26.2607C14.6997 26.3183 14.8445 26.348 14.9908 26.3481H14.9915C15.1377 26.3481 15.2824 26.3185 15.4168 26.2612C15.5513 26.2038 15.6728 26.1198 15.774 26.0143L27.3903 13.8989C27.5465 13.7361 27.648 13.5285 27.6805 13.3052C27.7131 13.0819 27.6752 12.8541 27.5721 12.6534ZM21.4074 13.8736L15.7803 19.7425C15.6791 19.848 15.5576 19.932 15.4232 19.9893C15.2887 20.0467 15.144 20.0763 14.9978 20.0763H14.9971C14.8508 20.0762 14.706 20.0465 14.5715 19.9889C14.437 19.9314 14.3155 19.8472 14.2144 19.7414L8.59923 13.8694C8.18547 13.4367 8.20083 12.7505 8.63351 12.3368C9.0662 11.923 9.75236 11.9383 10.1661 12.371L14.9989 17.4249L19.8426 12.3732C20.2569 11.9411 20.9431 11.9267 21.3752 12.341C21.8073 12.7553 21.8218 13.4415 21.4074 13.8736Z" fill="#808080"/>
</g>
</svg>
