<svg width="22" height="22" viewBox="0 0 22 22" fill="none" xmlns="http://www.w3.org/2000/svg">
<path d="M8.21341 5.27768C8.01705 5.46944 8.01806 5.77781 8.21646 5.9676L13.4487 10.9663L8.23874 16.0348C8.04189 16.2266 8.04338 16.535 8.24179 16.7253C8.44068 16.9151 8.76101 16.9136 8.95789 16.7223L14.4948 11.3352C14.5034 11.3269 14.5055 11.3162 14.5135 11.3079C14.5156 11.3059 14.5181 11.3054 14.5201 11.3035C14.6178 11.2084 14.6669 11.0839 14.6669 10.96C14.6669 10.8346 14.6168 10.7087 14.5171 10.6136L8.92957 5.27524C8.73062 5.08495 8.41029 5.08639 8.21341 5.27768Z" fill="white" fill-opacity="0.6"/>
</svg>
