<svg width="40" height="40" viewBox="0 0 40 40" fill="none" xmlns="http://www.w3.org/2000/svg">
<path d="M33.593 16.2636H27.9672C27.5943 16.2636 27.2366 16.1153 26.9729 15.8515C26.7093 15.5877 26.5611 15.2299 26.5611 14.8568C26.5611 14.4838 26.7093 14.126 26.9729 13.8621C27.2366 13.5983 27.5943 13.4501 27.9672 13.45H30.2617C28.6968 10.9876 26.3019 9.1674 23.5109 8.31938C20.72 7.47136 17.7177 7.65162 15.0481 8.82747C12.3786 10.0033 10.2185 12.097 8.95918 14.729C7.69991 17.361 7.42482 20.3573 8.18378 23.1747C8.94274 25.9922 10.6855 28.4444 13.0963 30.0871C15.5071 31.7297 18.4263 32.454 21.325 32.1288C24.2237 31.8035 26.9099 30.4502 28.897 28.3141C30.8841 26.178 32.0406 23.4004 32.1567 20.4848H32.1804C32.1804 20.1116 32.3286 19.7536 32.5924 19.4898C32.8562 19.2259 33.214 19.0776 33.587 19.0776C33.9601 19.0776 34.3179 19.2259 34.5817 19.4898C34.8455 19.7536 34.9937 20.1116 34.9937 20.4848C34.9986 20.5716 34.9906 20.6586 34.97 20.7431C34.7945 24.2829 33.3717 27.6461 30.954 30.2367C28.5362 32.8272 25.2797 34.4777 21.7616 34.8954C18.2435 35.3132 14.6912 34.4712 11.7344 32.5189C8.77763 30.5665 6.60739 27.6299 5.60843 24.2296C4.60947 20.8292 4.84632 17.1849 6.27699 13.9426C7.70767 10.7003 10.2397 8.06947 13.4243 6.51657C16.6089 4.96366 20.2403 4.58897 23.6747 5.45891C27.1091 6.32886 30.1246 8.38724 32.1867 11.2692V9.22887C32.1867 8.85567 32.3349 8.49774 32.5987 8.23384C32.8625 7.96994 33.2203 7.82169 33.5934 7.82169C33.9664 7.82169 34.3242 7.96994 34.588 8.23384C34.8518 8.49774 35 8.85567 35 9.22887V14.8568C34.999 15.2297 34.8504 15.5871 34.5867 15.8507C34.323 16.1143 33.9657 16.2628 33.593 16.2636Z" fill="url(#paint0_linear_3250_9941)"/>
<defs>
<linearGradient id="paint0_linear_3250_9941" x1="20" y1="5" x2="20" y2="35" gradientUnits="userSpaceOnUse">
<stop stop-color="#F6F022"/>
<stop offset="1" stop-color="#95FA31"/>
</linearGradient>
</defs>
</svg>
