<svg width="80" height="80" viewBox="0 0 80 80" fill="none" xmlns="http://www.w3.org/2000/svg">
<path d="M40 75C20.6707 75 5 59.3293 5 40C5 20.6707 20.6707 5 40 5C59.3293 5 75 20.6707 75 40C75 59.3293 59.3293 75 40 75ZM40 70.3333C56.7533 70.3333 70.3333 56.7533 70.3333 40C70.3333 23.2467 56.7533 9.66667 40 9.66667C23.2467 9.66667 9.66667 23.2467 9.66667 40C9.66667 56.7533 23.2467 70.3333 40 70.3333Z" fill="url(#paint0_linear_497_2395)"/>
<path d="M56.9713 27.6994C57.3992 27.2663 57.9823 27.0155 58.5957 27.0007C59.2091 26.9859 59.804 27.2081 60.253 27.6199C60.7019 28.0317 60.9692 28.6002 60.9975 29.2037C61.0258 29.8071 60.8129 30.3975 60.4044 30.8483L37.283 55.2655C36.873 55.6982 36.3101 55.9596 35.7102 55.9957C35.1103 56.0318 34.5191 55.8399 34.0587 55.4596L19.8803 43.7373C19.6361 43.5448 19.4334 43.3062 19.2841 43.0355C19.1349 42.7648 19.0422 42.4675 19.0114 42.161C18.9806 41.8545 19.0124 41.545 19.1048 41.2508C19.1973 40.9565 19.3486 40.6835 19.5498 40.4477C19.751 40.2118 19.9981 40.018 20.2765 39.8775C20.5549 39.7371 20.859 39.6528 21.171 39.6298C21.483 39.6067 21.7965 39.6453 22.0931 39.7433C22.3897 39.8413 22.6634 39.9966 22.8981 40.2002L35.3705 50.511L56.9713 27.697V27.6994Z" fill="url(#paint1_linear_497_2395)"/>
<defs>
<linearGradient id="paint0_linear_497_2395" x1="40" y1="5" x2="40" y2="75" gradientUnits="userSpaceOnUse">
<stop stop-color="#F6F022"/>
<stop offset="1" stop-color="#95FA31"/>
</linearGradient>
<linearGradient id="paint1_linear_497_2395" x1="40" y1="27" x2="40" y2="56" gradientUnits="userSpaceOnUse">
<stop stop-color="#F6F022"/>
<stop offset="1" stop-color="#95FA31"/>
</linearGradient>
</defs>
</svg>
