<svg width="30" height="30" viewBox="0 0 30 30" fill="none" xmlns="http://www.w3.org/2000/svg">
<g id="f-vip2 1">
<path id="Vector" d="M27.572 12.6534L23.6325 4.98564C23.5415 4.80838 23.4033 4.65966 23.2332 4.55582C23.0631 4.45198 22.8676 4.39704 22.6684 4.39703H7.38429C7.18592 4.39703 6.99136 4.45146 6.82179 4.5544C6.65222 4.65734 6.51415 4.80484 6.42262 4.98083L2.43798 12.6418C2.33354 12.8426 2.29458 13.0711 2.32654 13.2951C2.35851 13.5192 2.4598 13.7276 2.61622 13.8912L14.208 26.0133C14.3091 26.119 14.4306 26.2032 14.5651 26.2607C14.6997 26.3183 14.8444 26.348 14.9907 26.3481H14.9915C15.1376 26.3481 15.2823 26.3185 15.4168 26.2612C15.5512 26.2038 15.6727 26.1198 15.7739 26.0143L27.3903 13.8989C27.5465 13.7361 27.6479 13.5285 27.6805 13.3052C27.7131 13.0819 27.6751 12.8541 27.572 12.6534ZM21.4074 13.8736L15.7802 19.7425C15.679 19.848 15.5576 19.932 15.4231 19.9893C15.2886 20.0467 15.144 20.0763 14.9978 20.0763H14.9971C14.8507 20.0762 14.706 20.0465 14.5715 19.9889C14.4369 19.9314 14.3155 19.8472 14.2144 19.7414L8.59917 13.8694C8.18541 13.4367 8.20077 12.7505 8.63345 12.3368C9.06614 11.923 9.7523 11.9383 10.1661 12.371L14.9989 17.4249L19.8425 12.3732C20.2568 11.9411 20.9431 11.9267 21.3752 12.341C21.8073 12.7553 21.8217 13.4415 21.4074 13.8736Z" fill="url(#paint0_linear_547_4345)"/>
</g>
<defs>
<linearGradient id="paint0_linear_547_4345" x1="15.0038" y1="4.39703" x2="15.0038" y2="26.3481" gradientUnits="userSpaceOnUse">
<stop stop-color="#F6F022"/>
<stop offset="1" stop-color="#95FA31"/>
</linearGradient>
</defs>
</svg>
