<svg width="40" height="40" viewBox="0 0 40 40" fill="none" xmlns="http://www.w3.org/2000/svg">
<path d="M31.6667 19.9633C32.075 19.9633 32.469 20.1132 32.774 20.3845C33.0791 20.6557 33.274 21.0295 33.3217 21.435L33.3334 21.63V25.6666C33.3334 28.07 31.4201 30.0166 29.0284 30.1583L28.7501 30.1666H12.0951L14.5451 32.6016C14.7956 32.8499 14.9477 33.1805 14.9731 33.5323C14.9986 33.8841 14.8956 34.2332 14.6834 34.515L14.5534 34.665C14.3049 34.9152 13.9742 35.067 13.6224 35.0921C13.2706 35.1173 12.9216 35.0141 12.6401 34.8016L12.4901 34.6716L7.30675 29.52C7.05518 29.2707 6.90291 28.9384 6.87838 28.5851C6.85384 28.2318 6.95871 27.8816 7.17341 27.6L7.30675 27.45L12.4901 22.3C12.7526 22.0416 13.1031 21.8921 13.4713 21.8815C13.8395 21.8709 14.198 22.0001 14.4749 22.243C14.7518 22.4859 14.9265 22.8245 14.9639 23.191C15.0014 23.5574 14.8988 23.9244 14.6767 24.2183L14.5467 24.3683L12.0634 26.8333H28.7501C29.3934 26.8333 29.9067 26.385 29.9884 25.8233L30.0001 25.6666V21.63C30.0001 21.1879 30.1757 20.764 30.4882 20.4514C30.8008 20.1389 31.2247 19.9633 31.6667 19.9633ZM27.3601 4.99995L27.5101 5.12995L32.6934 10.2816C32.945 10.5309 33.0972 10.8632 33.1218 11.2165C33.1463 11.5698 33.0414 11.92 32.8267 12.2016L32.6934 12.3516L27.5101 17.5016C27.2479 17.7622 26.8965 17.9136 26.5271 17.925C26.1576 17.9365 25.7975 17.8072 25.5197 17.5632C25.2419 17.3193 25.0671 16.979 25.0307 16.6112C24.9943 16.2433 25.0989 15.8753 25.3234 15.5816L25.4534 15.4333L27.7351 13.1666H11.2501C10.6067 13.1666 10.0934 13.615 10.0117 14.1766L10.0001 14.3333V18.34C9.99919 18.7646 9.83623 19.1729 9.54449 19.4815C9.25274 19.7901 8.8542 19.9756 8.43026 20.0003C8.00632 20.025 7.58895 19.8869 7.26337 19.6143C6.93779 19.3416 6.72857 18.955 6.67841 18.5333L6.66675 18.34V14.3333C6.66675 11.93 8.58008 9.98329 10.9717 9.84162L11.2501 9.83329H28.1017L25.4534 7.19995C25.2036 6.95157 25.0521 6.62113 25.027 6.26972C25.0018 5.91831 25.1048 5.56969 25.3167 5.28829L25.4467 5.13829C25.6952 4.888 26.026 4.73623 26.3778 4.71111C26.7296 4.68598 27.0786 4.78919 27.3601 5.00162V4.99995Z" fill="url(#paint0_linear_714_3673)"/>
<defs>
<linearGradient id="paint0_linear_714_3673" x1="20.0001" y1="4.7074" x2="20.0001" y2="35.0958" gradientUnits="userSpaceOnUse">
<stop stop-color="#F6F022"/>
<stop offset="1" stop-color="#95FA31"/>
</linearGradient>
</defs>
</svg>
