<svg width="24" height="24" viewBox="0 0 24 24" fill="none" xmlns="http://www.w3.org/2000/svg">
<path d="M12 1C5.93036 1 1 5.93036 1 12C1 18.0696 5.93036 23 12 23C18.0696 23 23 18.0696 23 12C23 5.93036 18.0696 1 12 1ZM8.87679 8.66071C8.975 7.08929 10.2518 5.83214 11.8232 5.73393C13.65 5.63571 15.1429 7.08929 15.1429 8.87679C15.1429 10.6054 13.7286 12.0196 12 12.0196C10.1929 12.0196 8.75893 10.4875 8.87679 8.66071ZM18.2857 17.7554C18.2857 18.05 18.05 18.2857 17.7554 18.2857H6.26429C5.96964 18.2857 5.73393 18.05 5.73393 17.7554V16.1839C5.73393 14.1018 9.91786 13.0411 12 13.0411C14.0821 13.0411 18.2661 14.0821 18.2661 16.1839L18.2857 17.7554Z" fill="url(#paint0_linear_391_1427)"/>
<defs>
<linearGradient id="paint0_linear_391_1427" x1="12" y1="1" x2="12" y2="23" gradientUnits="userSpaceOnUse">
<stop stop-color="#F6F022"/>
<stop offset="1" stop-color="#95FA31"/>
</linearGradient>
</defs>
</svg>
