<svg width="40" height="40" viewBox="0 0 40 40" fill="none" xmlns="http://www.w3.org/2000/svg">
<path d="M20 5C11.7232 5 5 11.7232 5 20C5 28.2768 11.7232 35 20 35C28.2768 35 35 28.2768 35 20C35 11.7232 28.2768 5 20 5ZM15.7411 15.4464C15.875 13.3036 17.6161 11.5893 19.7589 11.4554C22.25 11.3214 24.2857 13.3036 24.2857 15.7411C24.2857 18.0982 22.3571 20.0268 20 20.0268C17.5357 20.0268 15.5804 17.9375 15.7411 15.4464ZM28.5714 27.8482C28.5714 28.25 28.25 28.5714 27.8482 28.5714H12.1786C11.7768 28.5714 11.4554 28.25 11.4554 27.8482V25.7054C11.4554 22.8661 17.1607 21.4196 20 21.4196C22.8393 21.4196 28.5446 22.8393 28.5446 25.7054L28.5714 27.8482Z" fill="black"/>
</svg>
