<svg width="40" height="40" viewBox="0 0 40 40" fill="none" xmlns="http://www.w3.org/2000/svg">
<path d="M15.012 34.1513C12.901 33.4041 10.9835 32.1947 9.39955 30.6114C7.81558 29.0281 6.60514 27.111 5.8566 25H11.3953C12.0123 28.7805 13.3065 32.0017 15.012 34.1513ZM5.30166 23.0004C4.89945 21.0204 4.89945 18.9796 5.30166 16.9996H11.1403C10.9523 18.9954 10.9523 21.0046 11.1403 23.0004H5.30166ZM5.85446 15C6.60322 12.8888 7.81399 10.9715 9.39834 9.38823C10.9827 7.80495 12.9006 6.59567 15.012 5.84869C13.3065 8.00043 12.0123 11.2173 11.3974 15H5.85874H5.85446ZM24.9923 5.84869C27.1029 6.59621 29.02 7.80574 30.6035 9.38898C32.1871 10.9722 33.3972 12.8892 34.1455 15H28.6069C27.9898 11.2195 26.6957 8.00043 24.9902 5.84869H24.9923ZM34.6983 16.9996C35.1006 18.9796 35.1006 21.0204 34.6983 23.0004H28.8597C29.0483 21.0051 29.0483 18.997 28.8597 16.9996H34.6983ZM34.1455 25C33.397 27.111 32.1866 29.0281 30.6026 30.6114C29.0186 32.1947 27.1011 33.4041 24.9902 34.1513C26.6957 32.0017 27.9898 28.7827 28.6047 25H34.1413H34.1455ZM26.8478 23.0026H13.1522C12.9507 21.0074 12.9507 18.9969 13.1522 17.0017H26.8478C27.0492 18.997 27.0492 21.0094 26.8478 23.0026ZM26.5735 25.0021C25.5429 30.8916 22.7854 35 20 35C17.2146 35 14.4571 30.8916 13.4265 25H26.5735V25.0021ZM26.5735 15.0021H13.4265C14.4571 9.11059 17.2146 5 20 5C22.7854 5 25.5429 9.11059 26.5735 15V15.0021Z" fill="url(#paint0_linear_72_1984)"/>
<defs>
<linearGradient id="paint0_linear_72_1984" x1="20" y1="5" x2="20" y2="35" gradientUnits="userSpaceOnUse">
<stop stop-color="#F6F022"/>
<stop offset="1" stop-color="#95FA31"/>
</linearGradient>
</defs>
</svg>
