<svg width="24" height="24" viewBox="0 0 24 24" fill="none" xmlns="http://www.w3.org/2000/svg">
<path d="M19.2 4.58331C19.2 5.45728 18.4833 6.16667 17.6 6.16667H1.60003C0.716804 6.16667 0 5.45728 0 4.58331C0 3.70934 0.716804 3 1.60003 3H17.6C18.4833 3 19.2 3.70934 19.2 4.58331ZM14.4 12.5C14.4 13.374 13.6832 14.0834 12.7999 14.0834H1.60003C0.716804 14.0834 0 13.374 0 12.5C0 11.6259 0.716804 10.9167 1.60003 10.9167H12.8C13.6832 10.9167 14.4 11.6259 14.4 12.5ZM19.2 20.4167C19.2 21.2907 18.4833 22 17.6 22H1.60003C0.716804 22 0 21.2907 0 20.4167C0 19.5426 0.716804 18.8334 1.60003 18.8334H17.6C18.4833 18.8334 19.2 19.5426 19.2 20.4167ZM17.6 17.2499L24 12.5L17.6 7.74998V17.2499Z" fill="url(#paint0_linear_384_1278)"/>
<defs>
<linearGradient id="paint0_linear_384_1278" x1="12" y1="3" x2="12" y2="22" gradientUnits="userSpaceOnUse">
<stop stop-color="#F6F022"/>
<stop offset="1" stop-color="#95FA31"/>
</linearGradient>
</defs>
</svg>
