<svg width="40" height="40" viewBox="0 0 40 40" fill="none" xmlns="http://www.w3.org/2000/svg">
<path d="M37.128 4.16273L2.43598 17.5497C0.480935 18.3041 0.52991 19.4004 2.53567 19.9956L10.918 22.4828L14.3262 32.6238C14.7724 33.9515 15.938 34.2314 16.9351 33.2437L21.3319 28.8881L30.0113 35.2484C31.1389 36.0747 32.2983 35.6399 32.6026 34.2683L38.9362 5.72927C39.2397 4.36162 38.4313 3.65984 37.128 4.16273ZM31.8487 10.6153L17.0508 23.7998C16.7848 24.0369 16.544 24.5067 16.507 24.8545L15.8537 30.9965C15.7804 31.6861 15.5426 31.7146 15.3232 31.0535L12.4599 22.4224C12.3479 22.0848 12.5013 21.6709 12.8004 21.4915L31.5668 10.2354C32.7628 9.51808 32.8901 9.68748 31.8487 10.6153Z" fill="url(#paint0_linear_72_1969)"/>
<defs>
<linearGradient id="paint0_linear_72_1969" x1="20" y1="4" x2="20" y2="35.6667" gradientUnits="userSpaceOnUse">
<stop stop-color="#F6F022"/>
<stop offset="1" stop-color="#95FA31"/>
</linearGradient>
</defs>
</svg>
