<svg width="24" height="24" viewBox="0 0 24 24" fill="none" xmlns="http://www.w3.org/2000/svg">
<path d="M20.1133 5.07194L3.6802 10.9904C2.75413 11.3239 2.77733 11.8086 3.72742 12.0717L7.698 13.1713L9.31239 17.6547C9.52375 18.2417 10.0759 18.3655 10.5482 17.9288L12.6309 16.0032L16.7422 18.8151C17.2763 19.1804 17.8255 18.9882 17.9697 18.3818L20.9698 5.76452C21.1136 5.15987 20.7306 4.84961 20.1133 5.07194ZM17.6126 7.92466L10.603 13.7536C10.477 13.8584 10.3629 14.0661 10.3454 14.2199L10.036 16.9353C10.0012 17.2402 9.88858 17.2528 9.78469 16.9605L8.42836 13.1446C8.3753 12.9954 8.44798 12.8124 8.58966 12.7331L17.479 7.75668C18.0455 7.43957 18.1058 7.51446 17.6126 7.92466Z" fill="url(#paint0_linear_389_1328)"/>
<defs>
<linearGradient id="paint0_linear_389_1328" x1="12" y1="5" x2="12" y2="19" gradientUnits="userSpaceOnUse">
<stop stop-color="#F6F022"/>
<stop offset="1" stop-color="#95FA31"/>
</linearGradient>
</defs>
</svg>
