<svg width="50" height="50" viewBox="0 0 50 50" fill="none" xmlns="http://www.w3.org/2000/svg">
<path d="M46.4014 14.7401L44.3157 12.6558C44.1051 12.444 43.8192 12.3242 43.5205 12.3226L40.5107 12.3078C39.7653 12.3021 39.0521 12.0035 38.5249 11.4765C37.9976 10.9494 37.6986 10.2363 37.6923 9.49074L37.6721 6.4748C37.6704 6.17552 37.5506 5.88902 37.3389 5.67754L35.2532 3.59142C34.6666 3.00676 33.8723 2.67847 33.0442 2.67847C32.2161 2.67847 31.4217 3.00676 30.8352 3.59142L3.59052 30.8417C3.00598 31.4284 2.67773 32.2229 2.67773 33.0512C2.67773 33.8794 3.00598 34.6739 3.59052 35.2606L5.67442 37.3449C5.88654 37.5568 6.17356 37.6765 6.47333 37.6782L9.48314 37.6911C10.2285 37.6968 10.9417 37.9954 11.469 38.5224C11.9962 39.0495 12.2952 39.7626 12.3015 40.5082L12.3144 43.5204C12.3164 43.8191 12.4361 44.1049 12.6476 44.3158L14.7314 46.4038C15.0211 46.6946 15.3654 46.9254 15.7445 47.0828C16.1235 47.2403 16.5299 47.3213 16.9404 47.3213C17.3509 47.3213 17.7573 47.2403 18.1364 47.0828C18.5155 46.9254 18.8597 46.6946 19.1494 46.4038L46.4033 19.1535C46.6941 18.8638 46.9248 18.5194 47.0822 18.1403C47.2396 17.7611 47.3206 17.3546 47.3206 16.9441C47.3206 16.5335 47.2396 16.127 47.0822 15.7478C46.9248 15.3687 46.6941 15.0243 46.4033 14.7346L46.4014 14.7401Z" fill="url(#paint0_linear_1284_3209)"/>
<path d="M44.7031 15.5545L42.7837 13.637C42.5908 13.4432 42.3295 13.3328 42.056 13.3295L39.2853 13.3168C38.5992 13.3116 37.9427 13.0368 37.4573 12.5518C36.972 12.0668 36.6968 11.4105 36.6911 10.7243L36.6783 7.95362C36.6761 7.68029 36.5663 7.41882 36.3727 7.22591L34.4533 5.30477C33.9147 4.76664 33.1845 4.46436 32.4231 4.46436C31.6617 4.46436 30.9314 4.76664 30.3927 5.30477L5.30679 30.3833C5.03989 30.6497 4.82819 30.9662 4.68372 31.3146C4.53926 31.663 4.46484 32.0364 4.46484 32.4135C4.46484 32.7907 4.53926 33.1641 4.68372 33.5125C4.82819 33.8609 5.03989 34.1774 5.30679 34.4438L7.22431 36.3613C7.41703 36.5555 7.67846 36.6659 7.95201 36.6688L10.7228 36.6815C11.4087 36.6868 12.0651 36.9616 12.5501 37.4466C13.0352 37.9317 13.31 38.588 13.3152 39.274L13.328 42.0447C13.3309 42.3183 13.4413 42.5797 13.6355 42.7724L15.5511 44.6954C16.0898 45.2335 16.82 45.5358 17.5814 45.5358C18.3428 45.5358 19.0731 45.2335 19.6118 44.6954L44.6958 19.6114C45.234 19.0728 45.5363 18.3425 45.5363 17.5811C45.5363 16.8197 45.0706 15.9493 44.6158 15.4672L44.7031 15.5545Z" stroke="white" stroke-width="0.446429" stroke-miterlimit="10"/>
<path d="M21.1145 22.8916L20.8475 23.1609L21.4246 23.733C21.4818 23.6817 21.5518 23.6143 21.6344 23.531C21.6757 23.4893 21.6771 23.4494 21.6387 23.4112L21.1145 22.8916ZM20.8628 21.145L19.1608 22.8617C19.2158 23.0306 19.2725 23.2363 19.331 23.4786L19.6123 23.1949L19.3094 22.8946L19.9387 22.2598L20.2416 22.5602L21.1522 21.6417L22.2919 22.7716C22.4362 22.9146 22.5357 23.0419 22.5904 23.1534C22.6451 23.2585 22.6568 23.3717 22.6254 23.4932C22.5783 23.6753 22.4197 23.9027 22.1495 24.1752C21.999 24.0577 21.7846 23.9373 21.5063 23.814L22.4008 24.7008L21.7714 25.3355L20.2182 23.7956L19.9608 24.0553L21.086 25.1709L20.4519 25.8105L19.4469 24.8141C19.444 24.8939 19.4365 24.9945 19.4243 25.1158C19.3156 25.0971 19.1671 25.0834 18.9788 25.0746C18.7872 25.0627 18.626 25.0618 18.4951 25.0719L18.607 25.4784C18.4663 25.4152 18.3064 25.3521 18.1274 25.289L19.9884 27.134L19.3877 27.7399L17.7431 26.1094C17.991 26.6031 18.1539 27.0094 18.2319 27.3283C18.0751 27.2428 17.7618 27.1292 17.292 26.9876C17.1845 26.4997 16.9507 25.9373 16.5904 25.3004L16.1661 25.7284L15.5025 25.0704L16.0937 24.4742L15.6128 23.9974C15.5969 24.0198 15.5493 24.0871 15.47 24.1991C15.3875 24.308 15.324 24.3913 15.2796 24.4489C15.1226 24.3315 14.8811 24.216 14.555 24.1025C14.9706 23.491 15.2761 22.9135 15.4717 22.37L16.4255 22.5909C16.2895 22.8756 16.1739 23.098 16.0789 23.258L16.6944 23.8682L17.133 23.4258L17.7966 24.0838L17.358 24.5262L17.4205 24.5881C17.5035 24.5814 17.6647 24.5791 17.9041 24.5813C18.1403 24.5803 18.2935 24.5828 18.3638 24.5889L18.466 24.9763C18.5376 24.545 18.5228 24.0886 18.4218 23.607L17.9927 24.0398L17.3964 23.4487L18.1306 22.7081C18.0855 22.6061 18.042 22.5185 18.0002 22.4453C17.8641 22.7172 17.7676 22.9044 17.7106 23.0068C17.2953 22.9447 16.9664 22.9206 16.7239 22.9344C16.9522 22.5951 17.1709 22.2206 17.3798 21.8111C16.9625 22.0204 16.6743 22.1701 16.5151 22.2602L16.4969 21.3744C16.8949 21.1333 17.3392 20.9063 17.8299 20.6935C17.9432 20.3228 18.0041 20.0113 18.0126 19.7591L18.897 19.4344C18.8886 19.6994 18.85 19.9949 18.7811 20.3208C19.0011 20.24 19.2848 20.1494 19.6323 20.049L19.7082 20.9919C19.3446 21.0637 18.9317 21.182 18.4695 21.3468C18.3148 21.7465 18.2169 21.9927 18.1758 22.0854L18.682 21.7577C18.7335 21.8532 18.7769 21.9408 18.8124 22.0204L20.2665 20.5538L20.8628 21.145ZM24.6359 17.8009L24.4291 17.5959L22.8129 19.2261L23.0197 19.4311L24.6359 17.8009ZM23.8228 20.2272L25.439 18.5971L25.2274 18.3873L23.6112 20.0175L23.8228 20.2272ZM24.7503 15.4637L22.1425 18.0941C22.1457 18.1037 22.191 18.2471 22.2784 18.5245L24.5001 16.2836L26.9141 18.6769C27.0872 18.8485 27.2012 19.0029 27.256 19.1399C27.3141 19.2737 27.3179 19.4205 27.2675 19.5804C27.2203 19.7306 27.1379 19.8778 27.0204 20.0219C26.9029 20.1661 26.7282 20.3552 26.4962 20.5892C26.2431 20.3956 25.944 20.2389 25.5987 20.119C25.7482 19.9875 25.9437 19.7999 26.1853 19.5563C26.2584 19.4826 26.2661 19.4171 26.2084 19.3599L26.0304 19.1835L24.4142 20.8136L25.3375 21.729L24.6319 22.4407L22.6026 20.4288C22.6138 20.7895 22.5913 21.1295 22.5352 21.449C22.1998 21.3898 21.8565 21.3673 21.5054 21.3816C21.6649 20.618 21.6087 19.7931 21.3368 18.9068L20.3499 19.9022L19.6767 19.2348L20.9687 17.9316C20.8527 17.6895 20.7176 17.4411 20.5632 17.1864L21.4705 16.6079C21.4898 16.6461 21.58 16.8277 21.741 17.1526L24.0771 14.7963L24.7503 15.4637ZM22.5242 33.6149L23.2496 34.172C23.2053 34.2488 23.1403 34.3592 23.0547 34.5032C22.9723 34.644 22.9169 34.7384 22.8884 34.7864L23.9799 35.8686C24.1467 36.0339 24.2574 36.1787 24.3122 36.3029C24.3702 36.424 24.3803 36.5548 24.3426 36.6955C24.2861 36.9191 24.0656 37.2249 23.681 37.6129C23.476 37.4477 23.1976 37.2989 22.8459 37.1664C22.9668 37.0573 23.1146 36.9146 23.2894 36.7383C23.3498 36.6774 23.3495 36.6167 23.2886 36.5563L22.3749 35.6505L22.0422 36.217L21.1877 35.7131C21.1941 35.7003 21.3574 35.449 21.6777 34.9592L20.8939 34.1821L20.3551 34.7255L19.6963 34.0723L20.2351 33.5289L19.3358 32.6374L20.0223 31.945L20.9216 32.8365L21.3459 32.4085L22.0047 33.0617L21.5804 33.4896L22.2103 34.1142L22.5242 33.6149ZM25.846 33.3228L26.2131 32.9526L25.5879 32.3328L25.2208 32.7031L25.846 33.3228ZM24.2054 33.7273L24.8305 34.3471L25.1738 34.0009L24.5486 33.3811L24.2054 33.7273ZM23.3128 32.1558L22.9695 32.5021L23.5417 33.0694L23.885 32.7232L23.3128 32.1558ZM24.3521 31.1075L23.985 31.4778L24.5572 32.0451L24.9243 31.6749L24.3521 31.1075ZM23.307 30.8056L24.3844 29.7188L27.9381 33.242L27.2277 33.9585L26.8959 33.6296L25.5133 35.0241L25.8788 35.3864L25.2018 36.0693L21.6145 32.5127L22.6347 31.4836L21.5624 30.4205L22.2346 29.7424L23.307 30.8056ZM29.012 26.869L28.3159 27.5711C28.4691 27.5705 28.6128 27.5794 28.747 27.598C28.8551 27.4954 28.9949 27.3575 29.1665 27.1844C29.2206 27.1299 29.2252 27.0804 29.1803 27.0359L29.012 26.869ZM28.5311 26.3923L28.3003 26.1634C28.1517 26.512 27.9363 26.8832 27.6539 27.2771L28.5311 26.3923ZM26.961 26.4948C27.0886 26.4751 27.237 26.4665 27.4062 26.469C27.4759 26.3473 27.5266 26.2577 27.5583 26.2002C27.354 26.2202 27.1882 26.2464 27.0606 26.2789L26.961 26.4948ZM27.8701 25.2316L27.3552 25.7509C27.5211 25.7183 27.6598 25.697 27.7715 25.6869C27.8156 25.5526 27.8485 25.4009 27.8701 25.2316ZM31.9158 27.3737L30.414 28.8884C30.6915 28.8266 30.9862 28.6865 31.2981 28.4681C31.6099 28.2433 31.9725 27.9257 32.3857 27.5153C32.3895 27.6653 32.4142 27.8424 32.4598 28.0465C32.5117 28.2506 32.5699 28.4227 32.6344 28.5629C32.097 29.0472 31.618 29.3892 31.1975 29.5889C30.7834 29.7886 30.364 29.875 29.9393 29.8481C29.9902 30.5406 29.5664 31.4586 28.6679 32.602C28.393 32.5011 28.0703 32.4354 27.6999 32.4051C28.3953 31.5562 28.8026 30.8857 28.9218 30.3936L27.4296 31.8987L26.8477 31.3218L28.688 29.4657L28.2456 29.027L28.9464 28.3202L29.3888 28.7588L30.0801 28.0615C29.8157 28.1999 29.6485 28.2884 29.5785 28.327L29.5094 27.8581L29.4284 27.9398C29.3451 27.8827 29.198 27.8067 28.9869 27.7119L28.7889 28.4405C28.5778 28.3521 28.2728 28.3103 27.8738 28.3152L27.9822 27.9077L27.4721 28.4223L26.9912 27.9455L27.2296 27.7051C27.0345 27.6325 26.8316 27.5871 26.6209 27.5688C26.7797 27.383 26.9289 27.194 27.0685 27.0019C26.9887 26.999 26.8658 27.0044 26.6999 27.0178C26.6841 27.0466 26.6587 27.0914 26.6239 27.1522C26.589 27.2067 26.5636 27.2483 26.5478 27.2771C26.3816 27.2267 26.1963 27.202 25.992 27.2028L28.2281 29.4198L27.5892 30.0641L26.6948 29.1774L26.5136 29.3601C26.6739 29.519 26.8249 29.7259 26.9664 29.9806C27.1079 30.229 27.1665 30.4841 27.1421 30.746C26.8709 30.7887 26.5952 30.8712 26.3148 30.9937C26.3452 30.6489 26.2049 30.3127 25.8939 29.9852L25.6221 30.2593L25.0739 29.7158L26.1466 28.6339L25.9447 28.4336L25.0865 29.2992L23.9901 28.2122L24.5765 27.6207L25.1391 28.1785L25.4109 27.9044L24.7088 27.2084L25.3477 26.564L25.8862 27.098C26.4095 26.3072 26.6893 25.666 26.7255 25.1743L27.4226 24.7307C27.423 24.8074 27.4185 24.8856 27.4093 24.9654L27.8908 24.4797L27.9812 24.3501L28.5214 24.1514C28.6771 24.7062 28.6333 25.3017 28.3903 25.938L28.9004 25.4235L29.1985 25.7191L29.804 25.1083L30.2849 25.5851L29.6794 26.1958L29.8718 26.3865C30.0128 26.5264 30.1011 26.6489 30.1367 26.7541C30.1723 26.8593 30.16 26.9774 30.0999 27.1086C30.0588 27.2013 30.0097 27.2861 29.9526 27.363C30.2742 27.186 30.5514 27.0508 30.784 26.9572L30.8477 27.2873L31.334 26.7968L31.9158 27.3737ZM33.7728 22.7211L32.5857 23.9185C32.6151 24.0811 32.6399 24.2837 32.6601 24.5263L34.3526 22.8191C34.0427 22.7726 33.8495 22.7399 33.7728 22.7211ZM32.3868 22.2243L32.1389 22.4743C32.1582 22.5126 32.2147 22.6576 32.3084 22.9093L32.7994 22.414C32.6395 22.3445 32.502 22.2813 32.3868 22.2243ZM35.3699 21.1102L34.6405 21.8459C35.148 21.8469 35.6344 21.7538 36.0997 21.5667C36.0907 21.7104 36.0979 21.8859 36.1211 22.0933C36.1443 22.3007 36.1786 22.4745 36.2239 22.6148C36.0072 22.6923 35.7521 22.7541 35.4586 22.8C36.0905 23.5155 36.4134 24.001 36.4273 24.2563C36.4474 24.4796 36.3813 24.6938 36.2289 24.8987C36.1083 25.0589 35.9066 25.2752 35.6236 25.5478C35.3641 25.3159 35.0729 25.1639 34.7502 25.0919C34.9315 24.9347 35.0936 24.7839 35.2367 24.6397C35.3098 24.5659 35.3477 24.4892 35.3506 24.4093C35.3501 24.2944 35.1766 24.0334 34.8301 23.6263L34.196 24.2659C34.4755 24.6828 34.6146 25.1132 34.6134 25.5569C34.6121 26.0006 34.4213 26.5425 34.041 27.1826C33.9162 27.1225 33.7516 27.0705 33.5471 27.0267C33.349 26.9829 33.1781 26.9628 33.0345 26.9666C33.339 26.5057 33.5177 26.1298 33.5707 25.8391C33.6205 25.5452 33.5795 25.2725 33.4475 25.0208L32.78 25.6941L32.6214 25.5367C32.578 25.837 32.509 26.1278 32.4144 26.4091C32.1236 26.3305 31.7835 26.2889 31.394 26.2842C31.5738 25.795 31.6628 25.3174 31.6608 24.8514L30.9504 25.5679L30.306 24.929L31.5074 23.7172C31.4394 23.4909 31.3909 23.3379 31.3618 23.2582L30.332 24.2969L29.7069 23.6771L30.1264 23.2539C29.9313 23.1622 29.6867 23.0754 29.3927 22.9937L29.7675 22.1925C30.1637 22.2674 30.4977 22.3761 30.7697 22.5185L30.6938 22.6817L30.9655 22.4076C30.8014 22.1114 30.6038 21.801 30.3726 21.4764L31.2461 20.855C31.4615 21.1892 31.6206 21.4519 31.7236 21.643L32.2432 21.1188L32.2241 21.1285C32.1139 20.7267 31.9751 20.3762 31.8078 20.0769L32.7058 19.5654C32.8256 19.9512 32.9066 20.2317 32.9488 20.4071L33.5352 19.8156L34.1604 20.4354L33.0781 21.527C33.1965 21.5744 33.3467 21.6248 33.5289 21.6783L34.7255 20.4713L35.3699 21.1102Z" fill="black"/>
<defs>
<linearGradient id="paint0_linear_1284_3209" x1="24.9992" y1="2.67847" x2="24.9992" y2="47.3213" gradientUnits="userSpaceOnUse">
<stop stop-color="#172EFE"/>
<stop offset="1" stop-color="#31A6FA"/>
</linearGradient>
</defs>
</svg>
