<svg width="56" height="56" viewBox="0 0 56 56" fill="none" xmlns="http://www.w3.org/2000/svg">
<path d="M51.9705 16.509L49.6345 14.1746C49.3986 13.9374 49.0784 13.8032 48.7439 13.8014L45.3729 13.7849C44.5381 13.7784 43.7393 13.444 43.1488 12.8537C42.5583 12.2635 42.2234 11.4647 42.2164 10.6297L42.1937 7.25189C42.1918 6.9167 42.0576 6.59582 41.8205 6.35897L39.4845 4.02251C38.8276 3.36769 37.9379 3 37.0104 3C36.0829 3 35.1933 3.36769 34.5363 4.02251L4.02232 34.5428C3.36763 35.1999 3 36.0897 3 37.0174C3 37.9451 3.36763 38.8349 4.02232 39.492L6.35629 41.8264C6.59386 42.0637 6.91532 42.1978 7.25106 42.1997L10.6221 42.2141C11.4569 42.2206 12.2557 42.555 12.8462 43.1453C13.4367 43.7355 13.7716 44.5343 13.7786 45.3693L13.793 48.743C13.7953 49.0775 13.9294 49.3976 14.1662 49.6338L16.5001 51.9724C16.8246 52.2981 17.2102 52.5565 17.6347 52.7329C18.0593 52.9092 18.5145 53 18.9742 53C19.4339 53 19.8892 52.9092 20.3137 52.7329C20.7383 52.5565 21.1238 52.2981 21.4483 51.9724L51.9726 21.4521C52.2983 21.1275 52.5567 20.7419 52.733 20.3172C52.9093 19.8926 53 19.4373 53 18.9775C53 18.5176 52.9093 18.0624 52.733 17.6377C52.5567 17.213 52.2983 16.8274 51.9726 16.5028L51.9705 16.509Z" fill="url(#paint0_linear_72_2768)"/>
<path d="M50.0669 17.4209L47.9172 15.2733C47.7011 15.0563 47.4084 14.9326 47.1021 14.929L43.9989 14.9147C43.2304 14.9089 42.4951 14.6011 41.9516 14.058C41.408 13.5148 41.0997 12.7796 41.0934 12.0112L41.079 8.90797C41.0766 8.60184 40.9537 8.309 40.7368 8.09295L38.5871 5.94127C37.9838 5.33855 37.166 5 36.3132 5C35.4604 5 34.6425 5.33855 34.0392 5.94127L5.94298 34.0292C5.64405 34.3276 5.40695 34.6821 5.24515 35.0723C5.08334 35.4624 5 35.8807 5 36.3031C5 36.7255 5.08334 37.1438 5.24515 37.5339C5.40695 37.9241 5.64405 38.2786 5.94298 38.577L8.0906 40.7246C8.30645 40.9421 8.59925 41.0658 8.90563 41.069L12.0089 41.0832C12.7771 41.0891 13.5122 41.3969 14.0555 41.9401C14.5988 42.4834 14.9066 43.2185 14.9124 43.9868L14.9267 47.09C14.9299 47.3964 15.0536 47.6892 15.2711 47.905L17.4166 50.0587C18.0199 50.6614 18.8378 51 19.6906 51C20.5434 51 21.3613 50.6614 21.9646 50.0587L50.0587 21.9647C50.6614 21.3614 51 20.5436 51 19.6908C51 18.838 50.4784 17.8632 49.969 17.3232L50.0669 17.4209Z" stroke="white" stroke-width="0.5" stroke-miterlimit="10"/>
<path d="M18.9543 37.687L18.039 38.6102L16.9596 37.54L17.8749 36.6168L17.1434 35.8916L16.2566 36.843L15.1843 35.7799L18.0631 32.6915L19.1425 33.7617L18.2556 34.713L19.0155 35.4664L19.9307 34.5432L21.0102 35.6134L20.0949 36.5366L23.6314 40.0428L22.4908 41.1932L18.9543 37.687ZM18.457 38.7851L19.1399 38.0963L22.2585 41.4275L21.5755 42.1164L18.457 38.7851ZM21.1676 36.0511L24.5185 39.148L23.8356 39.8368L20.4847 36.7399L21.1676 36.0511ZM22.852 36.3833L23.9785 35.247L25.9407 37.7135L24.8142 38.8497L22.852 36.3833ZM18.444 32.4778L21.5137 29.3815L25.4053 33.2398L22.3356 36.336L18.444 32.4778ZM23.2417 33.2774L21.4947 31.5454L20.6146 32.4331L22.3616 34.165L23.2417 33.2774ZM25.4851 33.7273L27.9684 35.6683L26.8278 36.8187L24.3375 34.8849L25.4851 33.7273ZM27.0805 31.4506L26.1371 32.4022L25.0505 31.325L31.1125 25.2107L34.7129 28.7803L31.4179 32.1037L30.3456 31.0406L32.5 28.8676L31.0584 27.4383L28.3478 30.1724L29.9605 33.5737L28.6862 34.8591L27.0805 31.4506ZM23.2905 29.8477L23.9805 29.1517L23.2806 27.5284L24.5338 26.2643L25.8766 29.384L24.3628 30.9108L23.2905 29.8477ZM27.5471 23.2249L29.1765 23.9109L29.7256 23.3569L30.7979 24.4201L29.4321 25.7977L26.301 24.4818L27.5471 23.2249ZM34.8362 22.9319L32.6818 25.1049L31.6024 24.0348L33.7568 21.8617L31.2997 19.4257L32.4473 18.2682L33.0225 18.8384L35.8669 15.9695L36.9534 17.0467L34.1091 19.9157L34.9044 20.7042L38.0868 17.4943L39.1662 18.5645L35.9838 21.7744L38.9025 24.668L37.7549 25.8256L34.8362 22.9319ZM38.9113 20.1283L41.8384 21.7067L40.6697 22.8856L37.7355 21.3143L38.9113 20.1283Z" fill="black"/>
<defs>
<linearGradient id="paint0_linear_72_2768" x1="28" y1="3" x2="28" y2="53" gradientUnits="userSpaceOnUse">
<stop stop-color="#7322F6"/>
<stop offset="1" stop-color="#FA31DA"/>
</linearGradient>
</defs>
</svg>
