<svg width="50" height="50" viewBox="0 0 50 50" fill="none" xmlns="http://www.w3.org/2000/svg">
<g clip-path="url(#clip0_391_1479)">
<path d="M48.9705 13.509L46.6345 11.1746C46.3986 10.9374 46.0784 10.8032 45.7439 10.8014L42.3729 10.7849C41.5381 10.7784 40.7393 10.444 40.1488 9.85374C39.5583 9.26349 39.2234 8.46473 39.2164 7.62975L39.1937 4.25189C39.1918 3.9167 39.0576 3.59582 38.8205 3.35897L36.4845 1.02251C35.8276 0.367687 34.9379 0 34.0104 0C33.0829 0 32.1933 0.367687 31.5363 1.02251L1.02232 31.5428C0.36763 32.1999 0 33.0897 0 34.0174C0 34.9451 0.36763 35.8349 1.02232 36.492L3.35629 38.8264C3.59386 39.0637 3.91532 39.1978 4.25106 39.1997L7.62205 39.2141C8.45687 39.2206 9.25568 39.555 9.84619 40.1453C10.4367 40.7355 10.7716 41.5343 10.7786 42.3693L10.793 45.743C10.7953 46.0775 10.9294 46.3976 11.1662 46.6338L13.5001 48.9724C13.8246 49.2981 14.2102 49.5565 14.6347 49.7329C15.0593 49.9092 15.5145 50 15.9742 50C16.4339 50 16.8892 49.9092 17.3137 49.7329C17.7383 49.5565 18.1238 49.2981 18.4483 48.9724L48.9726 18.4521C49.2983 18.1275 49.5567 17.7419 49.733 17.3172C49.9093 16.8926 50 16.4373 50 15.9775C50 15.5176 49.9093 15.0624 49.733 14.6377C49.5567 14.213 49.2983 13.8274 48.9726 13.5028L48.9705 13.509Z" fill="url(#paint0_linear_391_1479)"/>
<path d="M47.0669 14.4209L44.9172 12.2733C44.7011 12.0563 44.4084 11.9326 44.1021 11.929L40.9989 11.9147C40.2304 11.9089 39.4951 11.6011 38.9516 11.058C38.408 10.5148 38.0997 9.77963 38.0934 9.01119L38.079 5.90797C38.0766 5.60184 37.9537 5.309 37.7368 5.09295L35.5871 2.94127C34.9838 2.33855 34.166 2 33.3132 2C32.4604 2 31.6425 2.33855 31.0392 2.94127L2.94298 31.0292C2.64405 31.3276 2.40695 31.6821 2.24515 32.0723C2.08334 32.4624 2 32.8807 2 33.3031C2 33.7255 2.08334 34.1438 2.24515 34.5339C2.40695 34.9241 2.64405 35.2786 2.94298 35.577L5.0906 37.7246C5.30645 37.9421 5.59925 38.0658 5.90563 38.069L9.00886 38.0832C9.77712 38.0891 10.5122 38.3969 11.0555 38.9401C11.5988 39.4834 11.9066 40.2185 11.9124 40.9868L11.9267 44.09C11.9299 44.3964 12.0536 44.6892 12.2711 44.905L14.4166 47.0587C15.0199 47.6614 15.8378 48 16.6906 48C17.5434 48 18.3613 47.6614 18.9646 47.0587L47.0587 18.9647C47.6614 18.3614 48 17.5436 48 16.6908C48 15.838 47.4784 14.8632 46.969 14.3232L47.0669 14.4209Z" stroke="white" stroke-width="0.5" stroke-miterlimit="10"/>
<path d="M18.2967 28.861L14.5976 25.1936L15.5505 24.2324L17.73 25.2285C17.7914 25.2572 18.0837 25.4122 18.6069 25.6936L18.631 25.6693C18.579 25.5664 18.4978 25.4185 18.3874 25.2256C18.2802 25.0295 18.2039 24.8865 18.1584 24.7964L17.1195 22.6499L18.0773 21.6838L21.7764 25.3512L20.9727 26.1619L19.7057 24.9058C19.4985 24.7004 19.1098 24.238 18.5396 23.5187L18.5203 23.5381L19.0958 24.7247L19.9545 26.5579L19.4683 27.0482L17.6231 26.2102L16.4412 25.6352L16.4219 25.6546C17.1462 26.2187 17.6119 26.6034 17.819 26.8087L19.086 28.0649L18.2967 28.861ZM22.5513 24.5697L19.7211 21.7637L20.5923 20.8851L23.4224 23.691L22.5513 24.5697ZM19.7659 20.9321C19.6183 21.081 19.4543 21.1623 19.2739 21.1759C19.0967 21.1864 18.9418 21.1258 18.8091 20.9943C18.6764 20.8627 18.6145 20.7083 18.6234 20.531C18.6323 20.3473 18.7105 20.181 18.8581 20.0321C19.0025 19.8865 19.1649 19.8101 19.3453 19.8028C19.5225 19.7924 19.6775 19.853 19.8102 19.9845C19.9428 20.1161 20.0047 20.2705 19.9958 20.4478C19.9869 20.625 19.9103 20.7865 19.7659 20.9321ZM24.1299 22.9774L21.2998 20.1715L22.0121 19.453L22.4242 19.7461L22.4483 19.7218C22.4523 19.1546 22.6099 18.7141 22.9211 18.4002C23.5019 17.8144 24.1758 17.9017 24.9428 18.6622L26.6904 20.3948L25.8144 21.2783L24.1736 19.6516C23.9859 19.4655 23.8308 19.363 23.7083 19.3442C23.5825 19.3222 23.4618 19.3694 23.3463 19.4859C23.2533 19.5798 23.1925 19.6799 23.1639 19.7864C23.1354 19.8929 23.1183 20.0396 23.1127 20.2265L25.0011 22.0987L24.1299 22.9774ZM28.5391 18.666C28.2022 19.0058 27.8532 19.1604 27.4922 19.1297C27.1343 19.0958 26.7807 18.9056 26.4311 18.5591L25.3437 17.481L24.9635 17.8645L24.3082 17.2148L24.7025 16.7393L24.056 15.9059L24.7876 15.168L25.5303 15.9044L26.1897 15.2393L26.8839 15.9275L26.2245 16.5926L27.3022 17.6611C27.5935 17.9498 27.8562 17.9761 28.0904 17.7399C28.1514 17.6784 28.2218 17.5749 28.3018 17.4296L29.0725 17.9241C28.9094 18.2245 28.7316 18.4718 28.5391 18.666ZM23.0548 38.4011C22.5639 38.8962 21.9882 39.1469 21.3276 39.1529C20.667 39.1525 20.0357 38.854 19.4337 38.2572C18.8415 37.67 18.5406 37.0316 18.5312 36.342C18.5218 35.6524 18.761 35.0617 19.2487 34.5698C19.6786 34.1361 20.2094 33.9211 20.841 33.9249L20.947 34.954C20.5442 34.9718 20.2354 35.0892 20.0204 35.306C19.7766 35.552 19.6764 35.8634 19.7199 36.2402C19.7634 36.6106 19.9599 36.9691 20.3094 37.3156C20.6751 37.6782 21.0369 37.8861 21.3949 37.9394C21.7528 37.9862 22.0633 37.8769 22.3264 37.6115C22.5831 37.3526 22.7024 37.0056 22.6844 36.5707L23.7047 36.6581C23.756 37.3314 23.5393 37.9124 23.0548 38.4011ZM25.9378 35.4932C25.5624 35.8719 25.104 36.0656 24.5626 36.0744C24.0245 36.0799 23.5305 35.8597 23.0807 35.4137C22.6308 34.9677 22.4063 34.4756 22.4072 33.9375C22.4081 33.3928 22.5963 32.9312 22.9717 32.5526C23.3439 32.1772 23.8007 31.9883 24.342 31.986C24.8802 31.9804 25.3742 32.2006 25.824 32.6466C26.2739 33.0926 26.4983 33.5847 26.4974 34.1229C26.4965 34.661 26.31 35.1178 25.9378 35.4932ZM25.2242 34.7858C25.5386 34.4686 25.4401 34.0565 24.9288 33.5496C24.4142 33.0394 23.9997 32.9429 23.6853 33.2601C23.3644 33.5837 23.4613 34.0006 23.9759 34.5108C24.4872 35.0177 24.9033 35.1094 25.2242 34.7858ZM28.7004 32.7068C28.1196 33.2925 27.4473 33.2068 26.6836 32.4496L24.9311 30.7121L25.807 29.8286L27.4479 31.4554C27.6388 31.6447 27.7956 31.752 27.9181 31.7772C28.0407 31.796 28.1597 31.7472 28.2752 31.6307C28.3715 31.5336 28.4338 31.4286 28.4624 31.3157C28.4876 31.1995 28.4854 31.0497 28.4556 30.8661L26.6012 29.0276L27.4771 28.1441L30.3073 30.95L29.595 31.6685L29.1392 31.3514L29.12 31.3708C29.1707 31.9281 29.0309 32.3734 28.7004 32.7068ZM32.0391 31.2616L28.1798 27.4353L28.8921 26.7169L29.2266 26.933L29.2506 26.9087C29.2775 26.422 29.4242 26.0443 29.6905 25.7757C30.0242 25.4391 30.4215 25.3005 30.8826 25.3597C31.3405 25.4157 31.7878 25.6603 32.2247 26.0935C32.6908 26.5555 32.9458 27.0426 32.9899 27.5548C33.034 28.0606 32.8956 28.4753 32.5747 28.7989C32.3341 29.0416 32.0204 29.1638 31.6337 29.1655L32.0996 29.5792L32.9103 30.3829L32.0391 31.2616ZM31.6445 28.2905C31.7889 28.1449 31.8396 27.9642 31.7968 27.7485C31.7572 27.5295 31.6031 27.2869 31.3345 27.0206C30.8458 26.5361 30.4506 26.4459 30.149 26.7501C30.0014 26.899 29.9331 27.1297 29.9442 27.4423L31.0607 28.5492C31.2927 28.5353 31.4872 28.4491 31.6445 28.2905ZM35.5347 25.8134C35.1593 26.192 34.7009 26.3857 34.1595 26.3945C33.6214 26.4001 33.1274 26.1798 32.6776 25.7338C32.2277 25.2878 32.0032 24.7958 32.0041 24.2576C32.005 23.713 32.1932 23.2514 32.5686 22.8727C32.9408 22.4973 33.3976 22.3084 33.9389 22.3061C34.4771 22.3006 34.9711 22.5208 35.4209 22.9668C35.8708 23.4128 36.0952 23.9049 36.0943 24.443C36.0934 24.9812 35.9069 25.438 35.5347 25.8134ZM34.8211 25.1059C35.1355 24.7887 35.0371 24.3767 34.5257 23.8697C34.0111 23.3595 33.5966 23.263 33.2822 23.5802C32.9613 23.9038 33.0582 24.3207 33.5728 24.8309C34.0841 25.3379 34.5002 25.4295 34.8211 25.1059ZM37.3871 23.8091L34.5569 21.0031L35.2692 20.2847L35.6813 20.5778L35.7054 20.5535C35.7094 19.9863 35.867 19.5458 36.1782 19.2318C36.759 18.6461 37.4329 18.7334 38.1999 19.4938L39.9475 21.2265L39.0716 22.11L37.4307 20.4832C37.243 20.2971 37.0879 20.1947 36.9654 20.1759C36.8396 20.1539 36.719 20.2011 36.6035 20.3176C36.5104 20.4115 36.4496 20.5116 36.4211 20.6181C36.3925 20.7246 36.3754 20.8713 36.3698 21.0582L38.2582 22.9304L37.3871 23.8091Z" fill="black"/>
</g>
<defs>
<linearGradient id="paint0_linear_391_1479" x1="25" y1="0" x2="25" y2="50" gradientUnits="userSpaceOnUse">
<stop stop-color="#F6F022"/>
<stop offset="1" stop-color="#95FA31"/>
</linearGradient>
<clipPath id="clip0_391_1479">
<rect width="50" height="50" fill="white"/>
</clipPath>
</defs>
</svg>
