<svg width="50" height="50" viewBox="0 0 50 50" fill="none" xmlns="http://www.w3.org/2000/svg">
<path d="M46.4014 14.7401L44.3157 12.6558C44.1051 12.444 43.8192 12.3242 43.5205 12.3226L40.5107 12.3078C39.7653 12.3021 39.0521 12.0035 38.5249 11.4765C37.9976 10.9494 37.6986 10.2363 37.6923 9.49074L37.6721 6.4748C37.6704 6.17552 37.5506 5.88902 37.3389 5.67754L35.2532 3.59142C34.6666 3.00676 33.8723 2.67847 33.0442 2.67847C32.2161 2.67847 31.4217 3.00676 30.8352 3.59142L3.59052 30.8417C3.00598 31.4284 2.67773 32.2229 2.67773 33.0512C2.67773 33.8794 3.00598 34.6739 3.59052 35.2606L5.67442 37.3449C5.88654 37.5568 6.17356 37.6765 6.47333 37.6782L9.48314 37.6911C10.2285 37.6968 10.9417 37.9954 11.469 38.5224C11.9962 39.0495 12.2952 39.7626 12.3015 40.5082L12.3144 43.5204C12.3164 43.8191 12.4361 44.1049 12.6476 44.3158L14.7314 46.4038C15.0211 46.6946 15.3654 46.9254 15.7445 47.0828C16.1235 47.2403 16.5299 47.3213 16.9404 47.3213C17.3509 47.3213 17.7573 47.2403 18.1364 47.0828C18.5155 46.9254 18.8597 46.6946 19.1494 46.4038L46.4033 19.1535C46.6941 18.8638 46.9248 18.5194 47.0822 18.1403C47.2396 17.7611 47.3206 17.3546 47.3206 16.9441C47.3206 16.5335 47.2396 16.127 47.0822 15.7478C46.9248 15.3687 46.6941 15.0243 46.4033 14.7346L46.4014 14.7401Z" fill="url(#paint0_linear_1284_3197)"/>
<path d="M44.7031 15.5545L42.7837 13.637C42.5908 13.4432 42.3295 13.3328 42.056 13.3295L39.2853 13.3168C38.5992 13.3116 37.9427 13.0368 37.4573 12.5518C36.972 12.0668 36.6968 11.4105 36.6911 10.7243L36.6783 7.95362C36.6761 7.68029 36.5663 7.41882 36.3727 7.22591L34.4533 5.30477C33.9147 4.76664 33.1845 4.46436 32.4231 4.46436C31.6617 4.46436 30.9314 4.76664 30.3927 5.30477L5.30679 30.3833C5.03989 30.6497 4.82819 30.9662 4.68372 31.3146C4.53926 31.663 4.46484 32.0364 4.46484 32.4135C4.46484 32.7907 4.53926 33.1641 4.68372 33.5125C4.82819 33.8609 5.03989 34.1774 5.30679 34.4438L7.22431 36.3613C7.41703 36.5555 7.67846 36.6659 7.95201 36.6688L10.7228 36.6815C11.4087 36.6868 12.0651 36.9616 12.5501 37.4466C13.0352 37.9317 13.31 38.588 13.3152 39.274L13.328 42.0447C13.3309 42.3183 13.4413 42.5797 13.6355 42.7724L15.5511 44.6954C16.0898 45.2335 16.82 45.5358 17.5814 45.5358C18.3428 45.5358 19.0731 45.2335 19.6118 44.6954L44.6958 19.6114C45.234 19.0728 45.5363 18.3425 45.5363 17.5811C45.5363 16.8197 45.0706 15.9493 44.6158 15.4672L44.7031 15.5545Z" stroke="white" stroke-width="0.446429" stroke-miterlimit="10"/>
<path d="M18.6548 24.3434L17.9349 25.0695C18.3408 25.1731 18.724 25.2066 19.0845 25.1699C19.0323 24.902 18.8891 24.6265 18.6548 24.3434ZM16.5321 23.9839L17.0995 24.5464L17.9863 23.652L17.4188 23.0894L16.5321 23.9839ZM19.0112 21.4833L18.1578 22.3441L18.7252 22.9066L19.5786 22.0459L19.0112 21.4833ZM21.0004 21.9775L19.3938 23.5981C19.7499 24.0147 19.9784 24.4479 20.0793 24.8975C20.4616 24.7235 20.8547 24.468 21.2587 24.1311C21.6627 23.7942 22.1364 23.3484 22.6798 22.7939C22.6965 22.9502 22.7451 23.132 22.8258 23.3391C22.9097 23.5494 23.0015 23.7262 23.101 23.8694C21.9183 24.979 20.9174 25.6776 20.0983 25.9652C19.9891 26.5626 19.6999 27.223 19.2305 27.9465C19.0899 27.9024 18.9125 27.8601 18.6985 27.8195C18.4876 27.7757 18.3072 27.7526 18.1571 27.75C18.5951 27.148 18.8849 26.6248 19.0266 26.1805C18.5415 26.2081 18.0321 26.1385 17.4983 25.9716L17.8968 25.108L17.0863 25.9255L15.1532 24.009L16.736 22.4124L16.0916 21.7736L16.8306 21.0282L17.475 21.6671L19.0673 20.061L21.0004 21.9775ZM20.7981 17.2476L21.3319 17.7768L19.9016 19.2194L19.3679 18.6902L20.7981 17.2476ZM23.6017 21.1619L23.2823 21.4841L23.7007 21.8989L24.0201 21.5767L23.6017 21.1619ZM23.6303 20.0174L25.1595 21.5335L24.2537 22.4471L24.4316 22.6235L23.8595 23.2006L22.1524 21.5081L23.6303 20.0174ZM21.9888 21.3173L21.455 20.7881L22.9091 19.3214L23.4429 19.8506L21.9888 21.3173ZM22.2166 18.6349L22.7504 19.1641L21.2963 20.6307L20.7625 20.1015L22.2166 18.6349ZM20.375 20.1655L19.822 19.6172L21.6241 17.7995L22.1771 18.3478L20.375 20.1655ZM25.7396 16.1298L25.1818 16.6925L25.4992 17.0071L25.9711 16.531L26.6107 17.1651L26.1387 17.6412L27.0812 18.5756C27.2479 18.7409 27.3571 18.8873 27.4087 19.0147C27.4636 19.1454 27.4626 19.2843 27.4057 19.4313C27.3364 19.6487 27.1016 19.9594 26.7011 20.3633C26.4961 20.2109 26.205 20.0717 25.8278 19.9457C25.92 19.8591 26.0233 19.7613 26.1378 19.6523C26.2522 19.5369 26.3221 19.4631 26.3475 19.4311C26.3825 19.3958 26.4015 19.367 26.4046 19.3447C26.4077 19.3223 26.3932 19.2952 26.3612 19.2635L25.4379 18.3481L24.6322 19.1608C25.1593 19.2511 25.5652 19.3642 25.8498 19.5003L25.4993 20.3828C25.1953 20.2149 24.7893 20.0762 24.2813 19.9667L24.6036 19.1896L23.8837 19.9157L23.2441 19.2817L24.7983 17.714L24.4809 17.3993L22.9029 18.991L22.2489 18.3427L23.3025 17.2799L22.9755 16.9557L22.1412 17.7973L21.5065 17.1679L22.3408 16.3264L21.8743 15.864L22.5895 15.1426L23.0559 15.6051L23.9284 14.7251L24.5631 15.3544L23.6907 16.2344L24.0177 16.5586L25.0856 15.4814L25.7396 16.1298ZM22.5242 33.6149L23.2496 34.172C23.2053 34.2488 23.1403 34.3592 23.0547 34.5032C22.9723 34.644 22.9169 34.7384 22.8884 34.7864L23.9799 35.8686C24.1467 36.0339 24.2574 36.1787 24.3122 36.3029C24.3702 36.424 24.3803 36.5548 24.3426 36.6955C24.2861 36.9191 24.0656 37.2249 23.681 37.6129C23.476 37.4477 23.1976 37.2989 22.8459 37.1664C22.9668 37.0573 23.1146 36.9146 23.2894 36.7383C23.3498 36.6774 23.3495 36.6167 23.2886 36.5563L22.3749 35.6505L22.0422 36.217L21.1877 35.7131C21.1941 35.7003 21.3574 35.449 21.6777 34.9592L20.8939 34.1821L20.3551 34.7255L19.6963 34.0723L20.2351 33.5289L19.3358 32.6374L20.0223 31.945L20.9216 32.8365L21.3459 32.4085L22.0047 33.0617L21.5804 33.4896L22.2103 34.1142L22.5242 33.6149ZM25.846 33.3228L26.2131 32.9526L25.5879 32.3328L25.2208 32.7031L25.846 33.3228ZM24.2054 33.7273L24.8305 34.3471L25.1738 34.0009L24.5486 33.3811L24.2054 33.7273ZM23.3128 32.1558L22.9695 32.5021L23.5417 33.0694L23.885 32.7232L23.3128 32.1558ZM24.3521 31.1075L23.985 31.4778L24.5572 32.0451L24.9243 31.6749L24.3521 31.1075ZM23.307 30.8056L24.3844 29.7188L27.9381 33.242L27.2277 33.9585L26.8959 33.6296L25.5133 35.0241L25.8788 35.3864L25.2018 36.0693L21.6145 32.5127L22.6347 31.4836L21.5624 30.4205L22.2346 29.7424L23.307 30.8056ZM29.012 26.869L28.3159 27.5711C28.4691 27.5705 28.6128 27.5794 28.747 27.598C28.8551 27.4954 28.9949 27.3575 29.1665 27.1844C29.2206 27.1299 29.2252 27.0804 29.1803 27.0359L29.012 26.869ZM28.5311 26.3923L28.3003 26.1634C28.1517 26.512 27.9363 26.8832 27.6539 27.2771L28.5311 26.3923ZM26.961 26.4948C27.0886 26.4751 27.237 26.4665 27.4062 26.469C27.4759 26.3473 27.5266 26.2577 27.5583 26.2002C27.354 26.2202 27.1882 26.2464 27.0606 26.2789L26.961 26.4948ZM27.8701 25.2316L27.3552 25.7509C27.5211 25.7183 27.6598 25.697 27.7715 25.6869C27.8156 25.5526 27.8485 25.4009 27.8701 25.2316ZM31.9158 27.3737L30.414 28.8884C30.6915 28.8266 30.9862 28.6865 31.2981 28.4681C31.6099 28.2433 31.9725 27.9257 32.3857 27.5153C32.3895 27.6653 32.4142 27.8424 32.4598 28.0465C32.5117 28.2506 32.5699 28.4227 32.6344 28.5629C32.097 29.0472 31.618 29.3892 31.1975 29.5889C30.7834 29.7886 30.364 29.875 29.9393 29.8481C29.9902 30.5406 29.5664 31.4586 28.6679 32.602C28.393 32.5011 28.0703 32.4354 27.6999 32.4051C28.3953 31.5562 28.8026 30.8857 28.9218 30.3936L27.4296 31.8987L26.8477 31.3218L28.688 29.4657L28.2456 29.027L28.9464 28.3202L29.3888 28.7588L30.0801 28.0615C29.8157 28.1999 29.6485 28.2884 29.5785 28.327L29.5094 27.8581L29.4284 27.9398C29.3451 27.8827 29.198 27.8067 28.9869 27.7119L28.7889 28.4405C28.5778 28.3521 28.2728 28.3103 27.8738 28.3152L27.9822 27.9077L27.4721 28.4223L26.9912 27.9455L27.2296 27.7051C27.0345 27.6325 26.8316 27.5871 26.6209 27.5688C26.7797 27.383 26.9289 27.194 27.0685 27.0019C26.9887 26.999 26.8658 27.0044 26.6999 27.0178C26.6841 27.0466 26.6587 27.0914 26.6239 27.1522C26.589 27.2067 26.5636 27.2483 26.5478 27.2771C26.3816 27.2267 26.1963 27.202 25.992 27.2028L28.2281 29.4198L27.5892 30.0641L26.6948 29.1774L26.5136 29.3601C26.6739 29.519 26.8249 29.7259 26.9664 29.9806C27.1079 30.229 27.1665 30.4841 27.1421 30.746C26.8709 30.7887 26.5952 30.8712 26.3148 30.9937C26.3452 30.6489 26.2049 30.3127 25.8939 29.9852L25.6221 30.2593L25.0739 29.7158L26.1466 28.6339L25.9447 28.4336L25.0865 29.2992L23.9901 28.2122L24.5765 27.6207L25.1391 28.1785L25.4109 27.9044L24.7088 27.2084L25.3477 26.564L25.8862 27.098C26.4095 26.3072 26.6893 25.666 26.7255 25.1743L27.4226 24.7307C27.423 24.8074 27.4185 24.8856 27.4093 24.9654L27.8908 24.4797L27.9812 24.3501L28.5214 24.1514C28.6771 24.7062 28.6333 25.3017 28.3903 25.938L28.9004 25.4235L29.1985 25.7191L29.804 25.1083L30.2849 25.5851L29.6794 26.1958L29.8718 26.3865C30.0128 26.5264 30.1011 26.6489 30.1367 26.7541C30.1723 26.8593 30.16 26.9774 30.0999 27.1086C30.0588 27.2013 30.0097 27.2861 29.9526 27.363C30.2742 27.186 30.5514 27.0508 30.784 26.9572L30.8477 27.2873L31.334 26.7968L31.9158 27.3737ZM33.7728 22.7211L32.5857 23.9185C32.6151 24.0811 32.6399 24.2837 32.6601 24.5263L34.3526 22.8191C34.0427 22.7726 33.8495 22.7399 33.7728 22.7211ZM32.3868 22.2243L32.1389 22.4743C32.1582 22.5126 32.2147 22.6576 32.3084 22.9093L32.7994 22.414C32.6395 22.3445 32.502 22.2813 32.3868 22.2243ZM35.3699 21.1102L34.6405 21.8459C35.148 21.8469 35.6344 21.7538 36.0997 21.5667C36.0907 21.7104 36.0979 21.8859 36.1211 22.0933C36.1443 22.3007 36.1786 22.4745 36.2239 22.6148C36.0072 22.6923 35.7521 22.7541 35.4586 22.8C36.0905 23.5155 36.4134 24.001 36.4273 24.2563C36.4474 24.4796 36.3813 24.6938 36.2289 24.8987C36.1083 25.0589 35.9066 25.2752 35.6236 25.5478C35.3641 25.3159 35.0729 25.1639 34.7502 25.0919C34.9315 24.9347 35.0936 24.7839 35.2367 24.6397C35.3098 24.5659 35.3477 24.4892 35.3506 24.4093C35.3501 24.2944 35.1766 24.0334 34.8301 23.6263L34.196 24.2659C34.4755 24.6828 34.6146 25.1132 34.6134 25.5569C34.6121 26.0006 34.4213 26.5425 34.041 27.1826C33.9162 27.1225 33.7516 27.0705 33.5471 27.0267C33.349 26.9829 33.1781 26.9628 33.0345 26.9666C33.339 26.5057 33.5177 26.1298 33.5707 25.8391C33.6205 25.5452 33.5795 25.2725 33.4475 25.0208L32.78 25.6941L32.6214 25.5367C32.578 25.837 32.509 26.1278 32.4144 26.4091C32.1236 26.3305 31.7835 26.2889 31.394 26.2842C31.5738 25.795 31.6628 25.3174 31.6608 24.8514L30.9504 25.5679L30.306 24.929L31.5074 23.7172C31.4394 23.4909 31.3909 23.3379 31.3618 23.2582L30.332 24.2969L29.7069 23.6771L30.1264 23.2539C29.9313 23.1622 29.6867 23.0754 29.3927 22.9937L29.7675 22.1925C30.1637 22.2674 30.4977 22.3761 30.7697 22.5185L30.6938 22.6817L30.9655 22.4076C30.8014 22.1114 30.6038 21.801 30.3726 21.4764L31.2461 20.855C31.4615 21.1892 31.6206 21.4519 31.7236 21.643L32.2432 21.1188L32.2241 21.1285C32.1139 20.7267 31.9751 20.3762 31.8078 20.0769L32.7058 19.5654C32.8256 19.9512 32.9066 20.2317 32.9488 20.4071L33.5352 19.8156L34.1604 20.4354L33.0781 21.527C33.1965 21.5744 33.3467 21.6248 33.5289 21.6783L34.7255 20.4713L35.3699 21.1102Z" fill="black"/>
<defs>
<linearGradient id="paint0_linear_1284_3197" x1="24.9992" y1="2.67847" x2="24.9992" y2="47.3213" gradientUnits="userSpaceOnUse">
<stop stop-color="#FF8F4F"/>
<stop offset="1" stop-color="#FA3161"/>
</linearGradient>
</defs>
</svg>
