<svg width="50" height="50" viewBox="0 0 50 50" fill="none" xmlns="http://www.w3.org/2000/svg">
<path d="M46.4014 14.7401L44.3157 12.6558C44.1051 12.444 43.8192 12.3242 43.5205 12.3226L40.5107 12.3078C39.7653 12.3021 39.0521 12.0035 38.5249 11.4765C37.9976 10.9494 37.6986 10.2363 37.6923 9.49074L37.6721 6.4748C37.6704 6.17552 37.5506 5.88902 37.3389 5.67754L35.2532 3.59142C34.6666 3.00676 33.8723 2.67847 33.0442 2.67847C32.2161 2.67847 31.4217 3.00676 30.8352 3.59142L3.59052 30.8417C3.00598 31.4284 2.67773 32.2229 2.67773 33.0512C2.67773 33.8794 3.00598 34.6739 3.59052 35.2606L5.67442 37.3449C5.88654 37.5568 6.17356 37.6765 6.47333 37.6782L9.48314 37.6911C10.2285 37.6968 10.9417 37.9954 11.469 38.5224C11.9962 39.0495 12.2952 39.7626 12.3015 40.5082L12.3144 43.5204C12.3164 43.8191 12.4361 44.1049 12.6476 44.3158L14.7314 46.4038C15.0211 46.6946 15.3654 46.9254 15.7445 47.0828C16.1235 47.2403 16.5299 47.3213 16.9404 47.3213C17.3509 47.3213 17.7573 47.2403 18.1364 47.0828C18.5155 46.9254 18.8597 46.6946 19.1494 46.4038L46.4033 19.1535C46.6941 18.8638 46.9248 18.5194 47.0822 18.1403C47.2396 17.7611 47.3206 17.3546 47.3206 16.9441C47.3206 16.5335 47.2396 16.127 47.0822 15.7478C46.9248 15.3687 46.6941 15.0243 46.4033 14.7346L46.4014 14.7401Z" fill="url(#paint0_linear_1284_3217)"/>
<path d="M44.7031 15.5545L42.7837 13.637C42.5908 13.4432 42.3295 13.3328 42.056 13.3295L39.2853 13.3168C38.5992 13.3116 37.9427 13.0368 37.4573 12.5518C36.972 12.0668 36.6968 11.4105 36.6911 10.7243L36.6783 7.95362C36.6761 7.68029 36.5663 7.41882 36.3727 7.22591L34.4533 5.30477C33.9147 4.76664 33.1845 4.46436 32.4231 4.46436C31.6617 4.46436 30.9314 4.76664 30.3927 5.30477L5.30679 30.3833C5.03989 30.6497 4.82819 30.9662 4.68372 31.3146C4.53926 31.663 4.46484 32.0364 4.46484 32.4135C4.46484 32.7907 4.53926 33.1641 4.68372 33.5125C4.82819 33.8609 5.03989 34.1774 5.30679 34.4438L7.22431 36.3613C7.41703 36.5555 7.67846 36.6659 7.95201 36.6688L10.7228 36.6815C11.4087 36.6868 12.0651 36.9616 12.5501 37.4466C13.0352 37.9317 13.31 38.588 13.3152 39.274L13.328 42.0447C13.3309 42.3183 13.4413 42.5797 13.6355 42.7724L15.5511 44.6954C16.0898 45.2335 16.82 45.5358 17.5814 45.5358C18.3428 45.5358 19.0731 45.2335 19.6118 44.6954L44.6958 19.6114C45.234 19.0728 45.5363 18.3425 45.5363 17.5811C45.5363 16.8197 45.0706 15.9493 44.6158 15.4672L44.7031 15.5545Z" stroke="white" stroke-width="0.446429" stroke-miterlimit="10"/>
<path d="M20.4013 26.4482L17.759 23.8286L19.4195 22.1538L19.9466 22.6764L18.9152 23.7166L19.4041 24.2013L20.2808 23.3171L20.8148 23.8465L19.9381 24.7307L20.4964 25.2842L21.569 24.2024L22.103 24.7318L20.4013 26.4482ZM23.3056 24.989L20.549 22.256L21.0578 21.7428L21.2967 21.8971L21.3139 21.8798C21.3331 21.5321 21.4378 21.2624 21.628 21.0705C21.8664 20.8301 22.1502 20.7311 22.4796 20.7734C22.8066 20.8134 23.1261 20.9881 23.4382 21.2975C23.7711 21.6275 23.9533 21.9755 23.9848 22.3413C24.0163 22.7026 23.9174 22.9988 23.6882 23.2299C23.5163 23.4033 23.2923 23.4906 23.0161 23.4918L23.3488 23.7873L23.9279 24.3614L23.3056 24.989ZM23.0237 22.8668C23.1269 22.7628 23.1631 22.6337 23.1326 22.4797C23.1043 22.3232 22.9942 22.1499 22.8023 21.9597C22.4532 21.6136 22.171 21.5493 21.9556 21.7666C21.8501 21.8729 21.8014 22.0377 21.8092 22.2609L22.6068 23.0516C22.7724 23.0417 22.9114 22.9801 23.0237 22.8668ZM24.8841 21.9266L22.8626 19.9224L23.4848 19.2947L25.5064 21.299L24.8841 21.9266ZM22.8946 19.3284C22.7891 19.4347 22.672 19.4927 22.5431 19.5025C22.4166 19.51 22.3059 19.4667 22.2111 19.3727C22.1163 19.2788 22.0721 19.1685 22.0785 19.0418C22.0848 18.9106 22.1407 18.7918 22.2461 18.6855C22.3493 18.5815 22.4653 18.5269 22.5942 18.5217C22.7207 18.5143 22.8314 18.5575 22.9262 18.6515C23.021 18.7455 23.0652 18.8558 23.0588 18.9824C23.0524 19.109 22.9977 19.2243 22.8946 19.3284ZM26.9438 19.9462C26.6527 20.2398 26.3184 20.3874 25.941 20.389C25.5658 20.3884 25.2152 20.2264 24.8892 19.9033C24.5656 19.5824 24.4099 19.224 24.422 18.828C24.4341 18.4321 24.5868 18.0862 24.8802 17.7903C25.1048 17.5637 25.3712 17.4383 25.6796 17.4139L25.793 18.1109C25.632 18.1254 25.5091 18.1754 25.4243 18.2609C25.2867 18.3996 25.2276 18.5587 25.2468 18.7382C25.266 18.9176 25.3599 19.091 25.5287 19.2583C25.6928 19.421 25.8647 19.5135 26.0443 19.5358C26.2239 19.5534 26.3768 19.4987 26.5028 19.3715C26.6197 19.2536 26.6892 19.0888 26.7113 18.8769L27.3646 19.0502C27.3476 19.3817 27.2074 19.6804 26.9438 19.9462ZM15.5786 36.9759L16.286 37.6772L16.5679 37.3928C16.8727 37.0854 16.8991 36.8068 16.6472 36.5569C16.5269 36.4378 16.4048 36.3923 16.2806 36.4204C16.1564 36.444 16.0164 36.5343 15.8605 36.6915L15.5786 36.9759ZM19.2101 37.5921L18.5053 38.3029L17.0913 37.8705L16.7888 38.1757L17.7181 39.097L17.089 39.7315L14.4467 37.1119L15.4093 36.141C16.0923 35.4522 16.7112 35.3828 17.266 35.9328C17.6335 36.2972 17.7377 36.7007 17.5785 37.1434L19.2101 37.5921ZM20.0493 36.8427C19.8682 37.0253 19.6649 37.1125 19.4393 37.1043C19.2137 37.096 19.0142 37.006 18.8408 36.8341C18.6258 36.6209 18.5476 36.3669 18.6062 36.072C18.6648 35.7772 18.8669 35.4115 19.2126 34.9749C19.0255 34.8169 18.838 34.8327 18.65 35.0222C18.5079 35.1656 18.3927 35.402 18.3044 35.7315L17.6717 35.5374C17.7893 35.0628 17.9868 34.6856 18.2641 34.4059C18.805 33.8603 19.3829 33.8923 19.9978 34.502L21.1455 35.6399L20.6367 36.1531L20.3875 36.0022L20.3737 36.0161C20.3568 36.366 20.2487 36.6416 20.0493 36.8427ZM19.777 36.1395C19.8801 36.0355 19.9278 35.8811 19.92 35.6762L19.5975 35.3565C19.2977 35.7514 19.2275 36.0279 19.387 36.1861C19.5026 36.3007 19.6326 36.2851 19.777 36.1395ZM21.3689 29.7831L21.7201 30.3582C21.6213 30.4024 21.5399 30.4568 21.4757 30.5216C21.329 30.6695 21.3481 30.8352 21.5331 31.0185L21.6267 31.1113L21.9808 30.7542L22.4766 31.2458L22.1225 31.6029L23.6482 33.1156L23.0191 33.7501L21.4934 32.2375L20.8334 32.9032L22.3591 34.4159L21.73 35.0504L20.2043 33.5378L19.9395 33.8048L19.4714 33.3407L19.7119 33.0496L19.6425 32.9809C19.4183 32.7586 19.2987 32.5139 19.2837 32.247C19.2711 31.9777 19.3965 31.7102 19.6601 31.4443C19.8228 31.2802 19.9892 31.161 20.1592 31.0866L20.5104 31.6617C20.4139 31.6989 20.3209 31.7626 20.2315 31.8528C20.1651 31.9198 20.1332 31.9982 20.1359 32.0879C20.1385 32.1731 20.1826 32.2581 20.2682 32.3429L20.3375 32.4116L20.9976 31.7459L20.9213 31.6702C20.6878 31.4388 20.559 31.1896 20.5348 30.9227C20.5083 30.6535 20.6257 30.3871 20.887 30.1236C21.0337 29.9756 21.1943 29.8622 21.3689 29.7831ZM24.9344 31.9154C24.7304 32.1211 24.5236 32.2095 24.314 32.1805C24.1044 32.1468 23.8864 32.0177 23.6598 31.7931L21.4788 29.6308L22.101 29.0031L24.3063 31.1896C24.3664 31.2492 24.4218 31.2811 24.4725 31.2855C24.5208 31.2876 24.5599 31.2736 24.5897 31.2436C24.6126 31.2205 24.6332 31.1951 24.6515 31.1674L25.1918 31.5517C25.1439 31.6693 25.0581 31.7906 24.9344 31.9154ZM26.4333 30.4036C26.1376 30.7018 25.7987 30.854 25.4167 30.8602C25.0369 30.8642 24.684 30.7046 24.3581 30.3814C24.0437 30.0697 23.8822 29.7217 23.8737 29.3373C23.8674 28.9506 23.9915 28.629 24.2459 28.3724C24.5232 28.0927 24.8253 27.9683 25.1523 27.9991C25.4816 28.0276 25.7919 28.1862 26.0831 28.475C26.201 28.5919 26.2809 28.6894 26.3226 28.7674L25.1469 29.9533C25.4608 30.1591 25.7576 30.121 26.0372 29.839C26.177 29.698 26.2752 29.5134 26.3318 29.2853L26.9229 29.452C26.8646 29.8159 26.7014 30.1331 26.4333 30.4036ZM24.7274 29.5581L25.4116 28.868C25.1758 28.6343 24.9524 28.6237 24.7416 28.8364C24.6499 28.9289 24.6009 29.0384 24.5945 29.165C24.5882 29.2917 24.6325 29.4227 24.7274 29.5581ZM28.939 27.7791L26.8238 25.682L26.1156 26.3963L25.5886 25.8738L27.6375 23.8072L28.1645 24.3297L27.4529 25.0475L29.5681 27.1445L28.939 27.7791ZM30.6338 26.0696L28.6123 24.0654L29.2345 23.4378L31.256 25.442L30.6338 26.0696ZM28.6442 23.4714C28.5388 23.5777 28.4217 23.6358 28.2928 23.6455C28.1662 23.653 28.0556 23.6097 27.9608 23.5157C27.866 23.4218 27.8218 23.3115 27.8282 23.1849C27.8345 23.0536 27.8904 22.9348 27.9958 22.8285C28.0989 22.7245 28.2149 22.6699 28.3438 22.6647C28.4704 22.6573 28.5811 22.7005 28.6758 22.7945C28.7706 22.8885 28.8148 22.9988 28.8085 23.1254C28.8021 23.252 28.7474 23.3673 28.6442 23.4714ZM32.6935 24.0892C32.4024 24.3828 32.0681 24.5304 31.6906 24.5321C31.3154 24.5314 30.9649 24.3694 30.6389 24.0463C30.3153 23.7254 30.1595 23.367 30.1716 22.9711C30.1837 22.5751 30.3365 22.2292 30.6298 21.9333C30.8544 21.7067 31.1209 21.5813 31.4292 21.5569L31.5427 22.2539C31.3816 22.2684 31.2587 22.3184 31.1739 22.404C31.0364 22.5427 30.9772 22.7017 30.9964 22.8812C31.0156 23.0607 31.1096 23.234 31.2783 23.4013C31.4425 23.5641 31.6143 23.6565 31.794 23.6788C31.9736 23.6964 32.1264 23.6417 32.2525 23.5145C32.3694 23.3966 32.4389 23.2318 32.461 23.0199L33.1143 23.1932C33.0973 23.5247 32.957 23.8234 32.6935 24.0892ZM33.6487 23.0286L30.8123 20.2165L31.4208 19.6028L33.0055 21.1738L33.0192 21.16L32.8579 19.783L33.5386 19.0965L33.6661 20.6393L35.6083 21.0521L34.9276 21.7387L33.7316 21.4124L33.7648 21.9267L34.2572 22.4149L33.6487 23.0286ZM36.7191 20.0288C36.4234 20.327 36.0846 20.4792 35.7025 20.4855C35.3227 20.4894 34.9699 20.3298 34.6439 20.0067C34.3295 19.695 34.1681 19.3469 34.1595 18.9626C34.1532 18.5759 34.2773 18.2543 34.5317 17.9977C34.809 17.718 35.1112 17.5935 35.4381 17.6243C35.7674 17.6528 36.0777 17.8115 36.369 18.1003C36.4869 18.2171 36.5667 18.3146 36.6085 18.3927L35.4327 19.5786C35.7467 19.7844 36.0434 19.7463 36.3231 19.4643C36.4629 19.3233 36.561 19.1387 36.6176 18.9106L37.2087 19.0772C37.1505 19.4411 36.9872 19.7583 36.7191 20.0288ZM35.0133 19.1833L35.6974 18.4933C35.4616 18.2595 35.2383 18.249 35.0274 18.4617C34.9358 18.5541 34.8867 18.6637 34.8804 18.7903C34.874 18.9169 34.9183 19.0479 35.0133 19.1833ZM38.6305 18.1009C38.3899 18.3436 38.1406 18.454 37.8827 18.4321C37.6271 18.4079 37.3744 18.272 37.1248 18.0245L36.3481 17.2544L36.0765 17.5284L35.6084 17.0643L35.89 16.7247L35.4283 16.1294L35.9508 15.6023L36.4813 16.1283L36.9523 15.6532L37.4482 16.1448L36.9772 16.6199L37.747 17.3831C37.955 17.5893 38.1427 17.6081 38.31 17.4393C38.3535 17.3954 38.4039 17.3215 38.461 17.2177L39.0115 17.571C38.895 17.7855 38.768 17.9622 38.6305 18.1009ZM40.0056 16.7139C39.875 16.8456 39.7132 16.958 39.5202 17.0509C39.3273 17.1392 39.1376 17.1918 38.9512 17.2087L38.8344 16.5428C39.1565 16.5 39.3966 16.3989 39.5547 16.2393C39.7129 16.0798 39.7388 15.9474 39.6324 15.842C39.6162 15.8259 39.5978 15.8145 39.577 15.8077C39.554 15.7986 39.5275 15.7952 39.4976 15.7976C39.4677 15.8001 39.4401 15.8048 39.4148 15.8118C39.3895 15.8142 39.3561 15.8247 39.3148 15.8433C39.2734 15.8573 39.2389 15.8713 39.2114 15.8852C39.1838 15.8945 39.1447 15.9108 39.0942 15.934C39.0437 15.9573 39.0034 15.9747 38.9736 15.9863C38.4842 16.1979 38.1124 16.1777 37.8581 15.9255C37.6662 15.7353 37.5824 15.5101 37.6066 15.2499C37.6331 14.9874 37.7621 14.7394 37.9935 14.5059C38.2388 14.2586 38.5638 14.1041 38.9687 14.0425L39.0647 14.6946C38.7933 14.7419 38.598 14.8256 38.4788 14.9458C38.3367 15.0891 38.3142 15.2089 38.4113 15.3051C38.4275 15.3212 38.4471 15.3338 38.4702 15.3429C38.4909 15.3497 38.5151 15.353 38.5427 15.3529C38.5703 15.3482 38.5956 15.3435 38.6186 15.3388C38.6439 15.3318 38.6761 15.3201 38.7151 15.3038C38.7565 15.2852 38.791 15.2713 38.8185 15.2619C38.8438 15.2503 38.8817 15.2329 38.9323 15.2097C38.9805 15.1841 39.0184 15.1644 39.0459 15.1505C39.147 15.104 39.2389 15.0691 39.3217 15.0457C39.4068 15.02 39.4999 15.0024 39.6011 14.9927C39.7024 14.9831 39.8026 14.9976 39.9017 15.0363C40.0009 15.075 40.0932 15.1368 40.1787 15.2216C40.3729 15.4141 40.4591 15.6439 40.4372 15.911C40.4153 16.1781 40.2715 16.4457 40.0056 16.7139Z" fill="black"/>
<defs>
<linearGradient id="paint0_linear_1284_3217" x1="24.9992" y1="2.67847" x2="24.9992" y2="47.3213" gradientUnits="userSpaceOnUse">
<stop stop-color="#172EFE"/>
<stop offset="1" stop-color="#31A6FA"/>
</linearGradient>
</defs>
</svg>
