<svg width="56" height="56" viewBox="0 0 56 56" fill="none" xmlns="http://www.w3.org/2000/svg">
<path d="M51.9705 16.509L49.6345 14.1746C49.3986 13.9374 49.0784 13.8032 48.7439 13.8014L45.3729 13.7849C44.5381 13.7784 43.7393 13.444 43.1488 12.8537C42.5583 12.2635 42.2234 11.4647 42.2164 10.6297L42.1937 7.25189C42.1918 6.9167 42.0576 6.59582 41.8205 6.35897L39.4845 4.02251C38.8276 3.36769 37.9379 3 37.0104 3C36.0829 3 35.1933 3.36769 34.5363 4.02251L4.02232 34.5428C3.36763 35.1999 3 36.0897 3 37.0174C3 37.9451 3.36763 38.8349 4.02232 39.492L6.35629 41.8264C6.59386 42.0637 6.91532 42.1978 7.25106 42.1997L10.6221 42.2141C11.4569 42.2206 12.2557 42.555 12.8462 43.1453C13.4367 43.7355 13.7716 44.5343 13.7786 45.3693L13.793 48.743C13.7953 49.0775 13.9294 49.3976 14.1662 49.6338L16.5001 51.9724C16.8246 52.2981 17.2102 52.5565 17.6347 52.7329C18.0593 52.9092 18.5145 53 18.9742 53C19.4339 53 19.8892 52.9092 20.3137 52.7329C20.7383 52.5565 21.1238 52.2981 21.4483 51.9724L51.9726 21.4521C52.2983 21.1275 52.5567 20.7419 52.733 20.3172C52.9093 19.8926 53 19.4373 53 18.9775C53 18.5176 52.9093 18.0624 52.733 17.6377C52.5567 17.213 52.2983 16.8274 51.9726 16.5028L51.9705 16.509Z" fill="url(#paint0_linear_72_2762)"/>
<path d="M50.0669 17.4209L47.9172 15.2733C47.7011 15.0563 47.4084 14.9326 47.1021 14.929L43.9989 14.9147C43.2304 14.9089 42.4951 14.6011 41.9516 14.058C41.408 13.5148 41.0997 12.7796 41.0934 12.0112L41.079 8.90797C41.0766 8.60184 40.9537 8.309 40.7368 8.09295L38.5871 5.94127C37.9838 5.33855 37.166 5 36.3132 5C35.4604 5 34.6425 5.33855 34.0392 5.94127L5.94298 34.0292C5.64405 34.3276 5.40695 34.6821 5.24515 35.0723C5.08334 35.4624 5 35.8807 5 36.3031C5 36.7255 5.08334 37.1438 5.24515 37.5339C5.40695 37.9241 5.64405 38.2786 5.94298 38.577L8.0906 40.7246C8.30645 40.9421 8.59925 41.0658 8.90563 41.069L12.0089 41.0832C12.7771 41.0891 13.5122 41.3969 14.0555 41.9401C14.5988 42.4834 14.9066 43.2185 14.9124 43.9868L14.9267 47.09C14.9299 47.3964 15.0536 47.6892 15.2711 47.905L17.4166 50.0587C18.0199 50.6614 18.8378 51 19.6906 51C20.5434 51 21.3613 50.6614 21.9646 50.0587L50.0587 21.9647C50.6614 21.3614 51 20.5436 51 19.6908C51 18.838 50.4784 17.8632 49.969 17.3232L50.0669 17.4209Z" stroke="white" stroke-width="0.5" stroke-miterlimit="10"/>
<path d="M13.3901 37.521L14.7067 36.1931L19.8009 38.5258L17.4173 33.459L18.7339 32.1311L24.9548 38.2986L23.7931 39.4703L20.704 36.4077L22.2743 39.8234L21.1126 40.9951L17.6836 39.4542L20.7727 42.5168L19.611 43.6886L13.3901 37.521ZM21.1308 33.0939L22.2925 31.9222L26.8232 36.4141L25.6615 37.5858L21.1308 33.0939ZM19.4406 31.4182L20.6023 30.2465L21.7741 31.4082L20.6124 32.5799L19.4406 31.4182ZM23.5409 31.7566L23.5355 30.5122L25.7814 28.2468L27.0259 28.2414L30.9317 32.1138L29.77 33.2855L26.3329 29.8779L25.1712 31.0496L28.6083 34.4572L27.4466 35.629L23.5409 31.7566ZM31.9107 30.0043L29.1269 27.2444L28.2891 28.0894L27.1955 27.0052L28.0333 26.1601L26.6272 24.7661L27.7889 23.5944L29.195 24.9884L30.1384 24.0368L31.232 25.121L30.2886 26.0726L32.6037 28.3679L33.5471 27.4163L34.6407 28.5005L33.1552 29.9989L31.9107 30.0043ZM33.7063 22.6538L34.8117 21.5389L34.6756 21.1223L33.4153 22.3934L32.414 21.4007L34.1812 19.6182L33.9949 19.0533L32.1855 20.8784L31.1771 19.8786L31.5784 19.4739L31.0889 19.1153L32.2295 17.9649L32.726 18.3163L33.4934 17.5423L33.2856 16.8997L34.5388 15.6356L34.7678 16.2569L35.7534 15.2627L35.3907 14.7764L36.5383 13.6188L36.901 14.1052L37.3657 13.6365L38.3741 14.6362L35.2974 17.7396L35.4978 18.2903L38.8984 14.8603L39.8997 15.853L38.6253 17.1383L39.0079 17.3064L40.1766 16.1276L41.0998 17.0428L39.0017 19.1591L37.3369 18.4379L36.0273 19.7588L36.6642 21.5167L34.6295 23.5691L33.7063 22.6538ZM36.3326 24.976L37.3958 23.9036L37.2165 23.3317L35.9563 24.6028L34.955 23.6101L41.1577 17.3537L43.4515 19.6278L40.0368 23.072L39.1207 22.1638L41.3878 19.8771L41.0114 19.504L38.505 22.0321L39.1074 24.0094L37.2487 25.8842L36.3326 24.976Z" fill="black"/>
<defs>
<linearGradient id="paint0_linear_72_2762" x1="28" y1="3" x2="28" y2="53" gradientUnits="userSpaceOnUse">
<stop stop-color="#F6F022"/>
<stop offset="1" stop-color="#95FA31"/>
</linearGradient>
</defs>
</svg>
