<svg width="50" height="50" viewBox="0 0 50 50" fill="none" xmlns="http://www.w3.org/2000/svg">
<path d="M46.4014 14.7401L44.3157 12.6558C44.1051 12.444 43.8192 12.3242 43.5205 12.3226L40.5107 12.3078C39.7653 12.3021 39.0521 12.0035 38.5249 11.4765C37.9976 10.9494 37.6986 10.2363 37.6923 9.49074L37.6721 6.4748C37.6704 6.17552 37.5506 5.88902 37.3389 5.67754L35.2532 3.59142C34.6666 3.00676 33.8723 2.67847 33.0442 2.67847C32.2161 2.67847 31.4217 3.00676 30.8352 3.59142L3.59052 30.8417C3.00598 31.4284 2.67773 32.2229 2.67773 33.0512C2.67773 33.8794 3.00598 34.6739 3.59052 35.2606L5.67442 37.3449C5.88654 37.5568 6.17356 37.6765 6.47333 37.6782L9.48314 37.6911C10.2285 37.6968 10.9417 37.9954 11.469 38.5224C11.9962 39.0495 12.2952 39.7626 12.3015 40.5082L12.3144 43.5204C12.3164 43.8191 12.4361 44.1049 12.6476 44.3158L14.7314 46.4038C15.0211 46.6946 15.3654 46.9254 15.7445 47.0828C16.1235 47.2403 16.5299 47.3213 16.9404 47.3213C17.3509 47.3213 17.7573 47.2403 18.1364 47.0828C18.5155 46.9254 18.8597 46.6946 19.1494 46.4038L46.4033 19.1535C46.6941 18.8638 46.9248 18.5194 47.0822 18.1403C47.2396 17.7611 47.3206 17.3546 47.3206 16.9441C47.3206 16.5335 47.2396 16.127 47.0822 15.7478C46.9248 15.3687 46.6941 15.0243 46.4033 14.7346L46.4014 14.7401Z" fill="url(#paint0_linear_1284_3213)"/>
<path d="M44.7031 15.5545L42.7837 13.637C42.5908 13.4432 42.3295 13.3328 42.056 13.3295L39.2853 13.3168C38.5992 13.3116 37.9427 13.0368 37.4573 12.5518C36.972 12.0668 36.6968 11.4105 36.6911 10.7243L36.6783 7.95362C36.6761 7.68029 36.5663 7.41882 36.3727 7.22591L34.4533 5.30477C33.9147 4.76664 33.1845 4.46436 32.4231 4.46436C31.6617 4.46436 30.9314 4.76664 30.3927 5.30477L5.30679 30.3833C5.03989 30.6497 4.82819 30.9662 4.68372 31.3146C4.53926 31.663 4.46484 32.0364 4.46484 32.4135C4.46484 32.7907 4.53926 33.1641 4.68372 33.5125C4.82819 33.8609 5.03989 34.1774 5.30679 34.4438L7.22431 36.3613C7.41703 36.5555 7.67846 36.6659 7.95201 36.6688L10.7228 36.6815C11.4087 36.6868 12.0651 36.9616 12.5501 37.4466C13.0352 37.9317 13.31 38.588 13.3152 39.274L13.328 42.0447C13.3309 42.3183 13.4413 42.5797 13.6355 42.7724L15.5511 44.6954C16.0898 45.2335 16.82 45.5358 17.5814 45.5358C18.3428 45.5358 19.0731 45.2335 19.6118 44.6954L44.6958 19.6114C45.234 19.0728 45.5363 18.3425 45.5363 17.5811C45.5363 16.8197 45.0706 15.9493 44.6158 15.4672L44.7031 15.5545Z" stroke="white" stroke-width="0.446429" stroke-miterlimit="10"/>
<path d="M17.82 23.6434L18.5274 24.3447L18.8092 24.0604C19.1141 23.7529 19.1405 23.4743 18.8885 23.2245C18.7683 23.1053 18.6461 23.0598 18.5219 23.0879C18.3977 23.1115 18.2577 23.2019 18.1019 23.3591L17.82 23.6434ZM21.4514 24.2596L20.7467 24.9704L19.3327 24.538L19.0301 24.8432L19.9594 25.7645L19.3303 26.3991L16.6881 23.7795L17.6507 22.8086C18.3336 22.1197 18.9525 22.0503 19.5073 22.6003C19.8749 22.9647 19.979 23.3682 19.8198 23.8109L21.4514 24.2596ZM22.2907 23.5102C22.1096 23.6928 21.9063 23.78 21.6807 23.7718C21.455 23.7636 21.2555 23.6735 21.0822 23.5016C20.8672 23.2885 20.789 23.0345 20.8476 22.7396C20.9061 22.4447 21.1083 22.079 21.454 21.6425C21.2668 21.4844 21.0793 21.5002 20.8914 21.6898C20.7493 21.8331 20.6341 22.0695 20.5457 22.399L19.913 22.205C20.0307 21.7303 20.2282 21.3531 20.5055 21.0734C21.0464 20.5278 21.6242 20.5599 22.2392 21.1695L23.3869 22.3074L22.8781 22.8206L22.6289 22.6698L22.6151 22.6836C22.5982 23.0336 22.49 23.3091 22.2907 23.5102ZM22.0183 22.807C22.1215 22.703 22.1691 22.5486 22.1613 22.3438L21.8389 22.024C21.539 22.4189 21.4689 22.6955 21.6284 22.8536C21.7439 22.9682 21.8739 22.9527 22.0183 22.807ZM23.8682 21.822L21.8466 19.8177L22.3554 19.3045L22.7504 19.6136L22.7676 19.5963C22.7091 19.3962 22.6957 19.211 22.7272 19.0405C22.761 18.8678 22.8294 18.7294 22.9326 18.6253C23.0334 18.5236 23.1286 18.4553 23.2182 18.4204L23.6561 19.0676C23.5528 19.1302 23.4702 19.1927 23.4083 19.2551C23.3258 19.3384 23.2745 19.4479 23.2543 19.5838C23.2342 19.7197 23.2613 19.8749 23.3357 20.0496L24.4904 21.1943L23.8682 21.822ZM26.4194 19.3458C26.1238 19.644 25.7849 19.7962 25.4028 19.8024C25.0231 19.8064 24.6702 19.6468 24.3443 19.3236C24.0299 19.0119 23.8684 18.6639 23.8598 18.2795C23.8536 17.8929 23.9776 17.5712 24.232 17.3146C24.5093 17.0349 24.8115 16.9105 25.1385 16.9413C25.4678 16.9698 25.778 17.1284 26.0693 17.4172C26.1872 17.5341 26.267 17.6316 26.3088 17.7096L25.1331 18.8955C25.447 19.1013 25.7438 19.0632 26.0234 18.7812C26.1632 18.6402 26.2614 18.4556 26.3179 18.2275L26.9091 18.3942C26.8508 18.7581 26.6876 19.0753 26.4194 19.3458ZM24.7136 18.5003L25.3977 17.8102C25.1619 17.5765 24.9386 17.5659 24.7278 17.7786C24.6361 17.8711 24.5871 17.9806 24.5807 18.1072C24.5744 18.2339 24.6187 18.3649 24.7136 18.5003ZM14.8755 36.5557L15.5829 37.257L15.8648 36.9727C16.1696 36.6652 16.196 36.3866 15.944 36.1368C15.8238 36.0176 15.7016 35.9721 15.5775 36.0003C15.4533 36.0238 15.3132 36.1142 15.1574 36.2714L14.8755 36.5557ZM18.5069 37.1719L17.8022 37.8828L16.3882 37.4503L16.0857 37.7555L17.0149 38.6768L16.3858 39.3114L13.7436 36.6918L14.7062 35.7209C15.3891 35.032 16.008 34.9626 16.5628 35.5126C16.9304 35.877 17.0346 36.2806 16.8753 36.7232L18.5069 37.1719ZM19.3462 36.4225C19.1651 36.6051 18.9618 36.6923 18.7362 36.6841C18.5106 36.6759 18.3111 36.5858 18.1377 36.4139C17.9227 36.2008 17.8445 35.9468 17.9031 35.6519C17.9617 35.357 18.1638 34.9913 18.5095 34.5548C18.3224 34.3967 18.1348 34.4125 17.9469 34.6021C17.8048 34.7454 17.6896 34.9818 17.6012 35.3114L16.9685 35.1173C17.0862 34.6426 17.2837 34.2654 17.561 33.9857C18.1019 33.4401 18.6798 33.4722 19.2947 34.0818L20.4424 35.2197L19.9336 35.7329L19.6844 35.5821L19.6706 35.5959C19.6537 35.9459 19.5456 36.2214 19.3462 36.4225ZM19.0738 35.7193C19.177 35.6153 19.2246 35.4609 19.2169 35.2561L18.8944 34.9364C18.5945 35.3313 18.5244 35.6078 18.6839 35.7659C18.7995 35.8805 18.9294 35.865 19.0738 35.7193ZM20.6658 29.363L21.017 29.9381C20.9182 29.9822 20.8367 30.0367 20.7726 30.1014C20.6259 30.2493 20.645 30.415 20.8299 30.5983L20.9236 30.6912L21.2777 30.334L21.7735 30.8256L21.4194 31.1828L22.9451 32.6954L22.316 33.3299L20.7903 31.8173L20.1302 32.4831L21.6559 33.9957L21.0268 34.6302L19.5011 33.1176L19.2364 33.3846L18.7683 32.9205L19.0087 32.6295L18.9394 32.5607C18.7152 32.3384 18.5956 32.0938 18.5806 31.8268C18.5679 31.5576 18.6934 31.29 18.957 31.0242C19.1197 30.86 19.286 30.7408 19.4561 30.6664L19.8073 31.2415C19.7107 31.2787 19.6178 31.3424 19.5284 31.4326C19.4619 31.4996 19.4301 31.578 19.4327 31.6678C19.4354 31.7529 19.4795 31.8379 19.565 31.9227L19.6344 31.9915L20.2944 31.3257L20.2182 31.2501C19.9847 31.0186 19.8559 30.7694 19.8317 30.5025C19.8052 30.2333 19.9226 29.9669 20.1839 29.7034C20.3306 29.5555 20.4912 29.442 20.6658 29.363ZM24.2313 31.4952C24.0273 31.701 23.8205 31.7893 23.6109 31.7603C23.4013 31.7267 23.1832 31.5976 22.9567 31.3729L20.7756 29.2106L21.3979 28.583L23.6032 30.7694C23.6633 30.829 23.7187 30.861 23.7693 30.8654C23.8177 30.8675 23.8568 30.8535 23.8865 30.8234C23.9095 30.8003 23.9301 30.7749 23.9484 30.7472L24.4886 31.1316C24.4408 31.2492 24.355 31.3704 24.2313 31.4952ZM25.7301 29.9834C25.4345 30.2816 25.0956 30.4338 24.7135 30.4401C24.3338 30.444 23.9809 30.2844 23.655 29.9612C23.3406 29.6496 23.1791 29.3015 23.1705 28.9172C23.1643 28.5305 23.2883 28.2088 23.5427 27.9523C23.82 27.6725 24.1222 27.5481 24.4492 27.5789C24.7785 27.6074 25.0887 27.7661 25.38 28.0548C25.4979 28.1717 25.5777 28.2692 25.6195 28.3473L24.4438 29.5332C24.7577 29.739 25.0545 29.7009 25.3341 29.4188C25.4739 29.2778 25.5721 29.0933 25.6286 28.8651L26.2198 29.0318C26.1615 29.3957 25.9983 29.7129 25.7301 29.9834ZM24.0243 29.1379L24.7084 28.4479C24.4726 28.2141 24.2493 28.2036 24.0385 28.4162C23.9468 28.5087 23.8978 28.6182 23.8914 28.7449C23.8851 28.8715 23.9294 29.0025 24.0243 29.1379ZM28.2359 27.3589L26.1207 25.2619L25.4125 25.9762L24.8854 25.4536L26.9344 23.387L27.4614 23.9095L26.7498 24.6273L28.865 26.7244L28.2359 27.3589ZM29.9307 25.6494L27.9091 23.6452L28.5314 23.0176L30.5529 25.0218L29.9307 25.6494ZM27.9411 23.0512C27.8357 23.1575 27.7185 23.2156 27.5897 23.2254C27.4631 23.2328 27.3524 23.1895 27.2577 23.0956C27.1629 23.0016 27.1187 22.8913 27.125 22.7647C27.1314 22.6335 27.1873 22.5147 27.2927 22.4083C27.3958 22.3043 27.5118 22.2497 27.6407 22.2446C27.7673 22.2371 27.8779 22.2804 27.9727 22.3743C28.0675 22.4683 28.1117 22.5786 28.1053 22.7052C28.099 22.8319 28.0442 22.9472 27.9411 23.0512ZM31.9903 23.6691C31.6993 23.9627 31.365 24.1103 30.9875 24.1119C30.6123 24.1112 30.2617 23.9493 29.9358 23.6261C29.6121 23.3053 29.4564 22.9469 29.4685 22.5509C29.4806 22.1549 29.6333 21.809 29.9267 21.5131C30.1513 21.2866 30.4178 21.1611 30.7261 21.1368L30.8396 21.8337C30.6785 21.8482 30.5556 21.8983 30.4708 21.9838C30.3333 22.1225 30.2741 22.2816 30.2933 22.461C30.3125 22.6405 30.4065 22.8139 30.5752 22.9812C30.7393 23.1439 30.9112 23.2364 31.0909 23.2586C31.2705 23.2763 31.4233 23.2215 31.5494 23.0944C31.6662 22.9765 31.7357 22.8116 31.7578 22.5997L32.4112 22.773C32.3942 23.1045 32.2539 23.4032 31.9903 23.6691ZM32.9456 22.6084L30.1092 19.7963L30.7177 19.1826L32.3023 20.7537L32.3161 20.7398L32.1548 19.3629L32.8355 18.6763L32.963 20.2191L34.9051 20.632L34.2245 21.3185L33.0284 20.9922L33.0617 21.5065L33.5541 21.9947L32.9456 22.6084ZM36.016 19.6086C35.7203 19.9068 35.3815 20.0591 34.9994 20.0653C34.6196 20.0693 34.2667 19.9096 33.9408 19.5865C33.6264 19.2748 33.4649 18.9268 33.4564 18.5424C33.4501 18.1557 33.5742 17.8341 33.8286 17.5775C34.1059 17.2978 34.408 17.1733 34.735 17.2042C35.0643 17.2327 35.3746 17.3913 35.6658 17.6801C35.7837 17.797 35.8636 17.8945 35.9053 17.9725L34.7296 19.1584C35.0436 19.3642 35.3403 19.3261 35.6199 19.0441C35.7597 18.9031 35.8579 18.7185 35.9145 18.4904L36.5056 18.657C36.4473 19.021 36.2841 19.3382 36.016 19.6086ZM34.3101 18.7632L34.9943 18.0731C34.7585 17.8394 34.5352 17.8288 34.3243 18.0415C34.2326 18.134 34.1836 18.2435 34.1773 18.3701C34.1709 18.4968 34.2152 18.6278 34.3101 18.7632ZM37.9274 17.6807C37.6867 17.9234 37.4375 18.0338 37.1796 18.0119C36.924 17.9877 36.6713 17.8518 36.4217 17.6043L35.6449 16.8343L35.3734 17.1082L34.9052 16.6441L35.1869 16.3045L34.7251 15.7092L35.2477 15.1821L35.7782 15.7081L36.2492 15.2331L36.745 15.7247L36.2741 16.1997L37.0438 16.9629C37.2519 17.1692 37.4396 17.1879 37.6069 17.0192C37.6504 16.9753 37.7007 16.9014 37.7578 16.7976L38.3083 17.1508C38.1919 17.3654 38.0649 17.542 37.9274 17.6807ZM39.3025 16.2937C39.1718 16.4255 39.0101 16.5378 38.8171 16.6307C38.6241 16.719 38.4345 16.7716 38.2481 16.7885L38.1313 16.1227C38.4533 16.0798 38.6935 15.9787 38.8516 15.8192C39.0097 15.6597 39.0356 15.5272 38.9293 15.4218C38.9131 15.4057 38.8946 15.3943 38.8739 15.3875C38.8508 15.3784 38.8244 15.3751 38.7944 15.3775C38.7645 15.3799 38.7369 15.3846 38.7116 15.3916C38.6863 15.3941 38.653 15.4046 38.6116 15.4232C38.5703 15.4371 38.5358 15.4511 38.5082 15.465C38.4807 15.4744 38.4416 15.4906 38.3911 15.5139C38.3405 15.5371 38.3003 15.5545 38.2704 15.5662C37.7811 15.7778 37.4092 15.7575 37.155 15.5054C36.9631 15.3152 36.8793 15.0899 36.9035 14.8297C36.93 14.5672 37.0589 14.3192 37.2904 14.0857C37.5356 13.8384 37.8607 13.6839 38.2655 13.6223L38.3616 14.2745C38.0902 14.3217 37.8949 14.4054 37.7757 14.5256C37.6336 14.6689 37.6111 14.7887 37.7082 14.885C37.7244 14.901 37.744 14.9136 37.767 14.9227C37.7878 14.9295 37.812 14.9329 37.8396 14.9327C37.8672 14.928 37.8925 14.9233 37.9155 14.9186C37.9408 14.9116 37.9729 14.8999 38.012 14.8837C38.0534 14.8651 38.0878 14.8511 38.1154 14.8418C38.1407 14.8302 38.1786 14.8127 38.2291 14.7895C38.2774 14.764 38.3152 14.7442 38.3428 14.7303C38.4439 14.6838 38.5358 14.6489 38.6186 14.6255C38.7036 14.5999 38.7968 14.5822 38.898 14.5726C38.9993 14.5629 39.0994 14.5774 39.1986 14.6161C39.2977 14.6549 39.3901 14.7166 39.4756 14.8014C39.6698 14.9939 39.7559 15.2237 39.7341 15.4908C39.7122 15.7579 39.5683 16.0256 39.3025 16.2937Z" fill="black"/>
<defs>
<linearGradient id="paint0_linear_1284_3213" x1="24.9992" y1="2.67847" x2="24.9992" y2="47.3213" gradientUnits="userSpaceOnUse">
<stop stop-color="#FF8F4F"/>
<stop offset="1" stop-color="#FA3161"/>
</linearGradient>
</defs>
</svg>
