<svg width="50" height="50" viewBox="0 0 50 50" fill="none" xmlns="http://www.w3.org/2000/svg">
<g clip-path="url(#clip0_391_1467)">
<path d="M48.9705 13.509L46.6345 11.1746C46.3986 10.9374 46.0784 10.8032 45.7439 10.8014L42.3729 10.7849C41.5381 10.7784 40.7393 10.444 40.1488 9.85374C39.5583 9.26349 39.2234 8.46473 39.2164 7.62975L39.1937 4.25189C39.1918 3.9167 39.0576 3.59582 38.8205 3.35897L36.4845 1.02251C35.8276 0.367687 34.9379 0 34.0104 0C33.0829 0 32.1933 0.367687 31.5363 1.02251L1.02232 31.5428C0.36763 32.1999 0 33.0897 0 34.0174C0 34.9451 0.36763 35.8349 1.02232 36.492L3.35629 38.8264C3.59386 39.0637 3.91532 39.1978 4.25106 39.1997L7.62205 39.2141C8.45687 39.2206 9.25568 39.555 9.84619 40.1453C10.4367 40.7355 10.7716 41.5343 10.7786 42.3693L10.793 45.743C10.7953 46.0775 10.9294 46.3976 11.1662 46.6338L13.5001 48.9724C13.8246 49.2981 14.2102 49.5565 14.6347 49.7329C15.0593 49.9092 15.5145 50 15.9742 50C16.4339 50 16.8892 49.9092 17.3137 49.7329C17.7383 49.5565 18.1238 49.2981 18.4483 48.9724L48.9726 18.4521C49.2983 18.1275 49.5567 17.7419 49.733 17.3172C49.9093 16.8926 50 16.4373 50 15.9775C50 15.5176 49.9093 15.0624 49.733 14.6377C49.5567 14.213 49.2983 13.8274 48.9726 13.5028L48.9705 13.509Z" fill="url(#paint0_linear_391_1467)"/>
<path d="M47.0669 14.4209L44.9172 12.2733C44.7011 12.0563 44.4084 11.9326 44.1021 11.929L40.9989 11.9147C40.2304 11.9089 39.4951 11.6011 38.9516 11.058C38.408 10.5148 38.0997 9.77963 38.0934 9.01119L38.079 5.90797C38.0766 5.60184 37.9537 5.309 37.7368 5.09295L35.5871 2.94127C34.9838 2.33855 34.166 2 33.3132 2C32.4604 2 31.6425 2.33855 31.0392 2.94127L2.94298 31.0292C2.64405 31.3276 2.40695 31.6821 2.24515 32.0723C2.08334 32.4624 2 32.8807 2 33.3031C2 33.7255 2.08334 34.1438 2.24515 34.5339C2.40695 34.9241 2.64405 35.2786 2.94298 35.577L5.0906 37.7246C5.30645 37.9421 5.59925 38.0658 5.90563 38.069L9.00886 38.0832C9.77712 38.0891 10.5122 38.3969 11.0555 38.9401C11.5988 39.4834 11.9066 40.2185 11.9124 40.9868L11.9267 44.09C11.9299 44.3964 12.0536 44.6892 12.2711 44.905L14.4166 47.0587C15.0199 47.6614 15.8378 48 16.6906 48C17.5434 48 18.3613 47.6614 18.9646 47.0587L47.0587 18.9647C47.6614 18.3614 48 17.5436 48 16.6908C48 15.838 47.4784 14.8632 46.969 14.3232L47.0669 14.4209Z" stroke="white" stroke-width="0.5" stroke-miterlimit="10"/>
<path d="M16.4804 37.5509L12.1075 34.5631L13.0123 33.6504L14.9279 35.0875L16.2518 36.1017L16.2711 36.0823C16.1219 35.8703 15.8025 35.4092 15.3129 34.6991L14.0038 32.6504L14.7402 31.9077L16.8097 33.1894C16.9874 33.3079 17.246 33.484 17.5854 33.7178C17.9247 33.9515 18.1284 34.0925 18.1962 34.1405L18.2203 34.1162C18.094 33.9589 17.9157 33.7341 17.6857 33.4418C17.4524 33.1463 17.2855 32.936 17.1851 32.8107L15.7364 30.9028L16.5739 30.0581L19.6377 34.3663L18.5307 35.4829L16.5869 34.2199C16.2056 33.9702 15.8711 33.7348 15.5833 33.5137L15.5592 33.538C15.864 33.9556 16.1022 34.2881 16.2741 34.5355L17.5681 36.4538L16.4804 37.5509ZM20.7013 33.2935L16.7304 29.3565L17.6015 28.4779L18.553 29.4212L19.0193 29.9606C19.0364 29.432 19.1941 29.0172 19.4925 28.7163C20.0733 28.1305 20.7472 28.2178 21.5142 28.9783L23.2618 30.7109L22.3858 31.5944L20.745 29.9677C20.5573 29.7816 20.4022 29.6791 20.2797 29.6603C20.1539 29.6383 20.0332 29.6855 19.9177 29.802C19.8247 29.8959 19.7639 29.996 19.7353 30.1025C19.7068 30.209 19.6897 30.3557 19.6841 30.5426L21.5725 32.4148L20.7013 33.2935ZM23.9404 30.0264L21.1102 27.2205L21.9814 26.3418L24.8115 29.1477L23.9404 30.0264ZM21.155 26.3889C21.0074 26.5378 20.8434 26.619 20.663 26.6327C20.4858 26.6431 20.3309 26.5826 20.1982 26.451C20.0655 26.3195 20.0036 26.165 20.0125 25.9878C20.0214 25.804 20.0996 25.6378 20.2472 25.4889C20.3916 25.3432 20.554 25.2668 20.7344 25.2596C20.9116 25.2492 21.0666 25.3097 21.1993 25.4413C21.3319 25.5728 21.3938 25.7272 21.3849 25.9045C21.376 26.0818 21.2994 26.2433 21.155 26.3889ZM26.6892 27.3898C26.3523 27.7297 26.0033 27.8842 25.6422 27.8536C25.2844 27.8196 24.9307 27.6294 24.5812 27.2829L23.4938 26.2048L23.1135 26.5883L22.4582 25.9386L22.8525 25.4632L22.206 24.6297L22.9376 23.8918L23.6803 24.6282L24.3397 23.9631L25.0339 24.6514L24.3745 25.3164L25.4522 26.3849C25.7435 26.6737 26.0062 26.6999 26.2405 26.4637C26.3014 26.4022 26.3719 26.2988 26.4518 26.1534L27.2225 26.648C27.0595 26.9484 26.8817 27.1957 26.6892 27.3898ZM28.9945 25.0645C28.5806 25.482 28.1062 25.6951 27.5713 25.7039C27.0396 25.7094 26.5456 25.4859 26.0893 25.0335C25.6492 24.5972 25.4231 24.1099 25.4111 23.5718C25.4023 23.0305 25.576 22.5802 25.9322 22.2209C26.3204 21.8294 26.7434 21.6551 27.2012 21.6983C27.6622 21.7382 28.0966 21.9603 28.5044 22.3646C28.6694 22.5282 28.7812 22.6647 28.8397 22.774L27.1937 24.4342C27.6332 24.7224 28.0486 24.669 28.4401 24.2742C28.6358 24.0768 28.7733 23.8184 28.8524 23.499L29.68 23.7323C29.5984 24.2418 29.3699 24.6859 28.9945 25.0645ZM26.6064 23.8809L27.5641 22.9148C27.234 22.5875 26.9214 22.5728 26.6262 22.8705C26.4979 23 26.4292 23.1533 26.4203 23.3306C26.4114 23.5079 26.4734 23.6913 26.6064 23.8809ZM31.4635 22.5742C31.178 22.8622 30.8885 22.9859 30.5951 22.9453C30.3016 22.8982 29.9963 22.7175 29.6791 22.403L26.6257 19.3757L27.4968 18.497L30.5843 21.558C30.6684 21.6415 30.7459 21.6862 30.8169 21.6924C30.8845 21.6953 30.9392 21.6757 30.981 21.6337C31.013 21.6013 31.0419 21.5657 31.0675 21.527L31.8239 22.0651C31.7569 22.2297 31.6368 22.3994 31.4635 22.5742ZM32.2282 21.667L29.398 18.8611L30.2692 17.9824L33.0993 20.7883L32.2282 21.667ZM29.4428 18.0295C29.2952 18.1783 29.1312 18.2596 28.9508 18.2733C28.7736 18.2837 28.6187 18.2231 28.486 18.0916C28.3533 17.96 28.2914 17.8056 28.3003 17.6283C28.3092 17.4446 28.3874 17.2783 28.535 17.1294C28.6794 16.9838 28.8418 16.9074 29.0222 16.9002C29.1994 16.8897 29.3544 16.9503 29.4871 17.0818C29.6197 17.2134 29.6816 17.3678 29.6727 17.5451C29.6638 17.7224 29.5872 17.8838 29.4428 18.0295ZM34.7122 19.2974C34.5294 19.4819 34.3028 19.6391 34.0327 19.7692C33.7626 19.8928 33.497 19.9665 33.2361 19.9901L33.0726 19.0579C33.5235 18.998 33.8596 18.8564 34.081 18.6331C34.3024 18.4097 34.3386 18.2243 34.1898 18.0767C34.1671 18.0542 34.1413 18.0382 34.1122 18.0287C34.08 18.0159 34.0429 18.0113 34.001 18.0147C33.9591 18.0181 33.9205 18.0247 33.8851 18.0345C33.8496 18.0379 33.803 18.0526 33.7451 18.0786C33.6872 18.0982 33.6389 18.1177 33.6003 18.1372C33.5617 18.1503 33.507 18.1731 33.4363 18.2056C33.3655 18.2381 33.3092 18.2626 33.2674 18.2789C32.5823 18.575 32.0617 18.5467 31.7057 18.1937C31.4371 17.9274 31.3197 17.6121 31.3536 17.2478C31.3907 16.8803 31.5713 16.5331 31.8953 16.2062C32.2387 15.8599 32.6937 15.6437 33.2605 15.5575L33.395 16.4705C33.015 16.5366 32.7416 16.6537 32.5747 16.822C32.3758 17.0227 32.3443 17.1904 32.4802 17.3252C32.5029 17.3476 32.5303 17.3652 32.5626 17.378C32.5917 17.3875 32.6255 17.3922 32.6642 17.392C32.7028 17.3854 32.7383 17.3788 32.7704 17.3722C32.8059 17.3624 32.8509 17.3461 32.9056 17.3233C32.9635 17.2973 33.0117 17.2777 33.0503 17.2647C33.0857 17.2484 33.1388 17.224 33.2095 17.1915C33.2771 17.1558 33.3301 17.1281 33.3687 17.1086C33.5102 17.0436 33.6389 16.9947 33.7548 16.962C33.8739 16.926 34.0043 16.9013 34.146 16.8878C34.2877 16.8743 34.428 16.8946 34.5668 16.9488C34.7056 17.003 34.8349 17.0894 34.9546 17.2082C35.2265 17.4777 35.3471 17.7994 35.3165 18.1734C35.2858 18.5473 35.0844 18.922 34.7122 19.2974ZM37.4893 16.4964C37.1524 16.8362 36.8034 16.9907 36.4423 16.9601C36.0845 16.9262 35.7308 16.7359 35.3813 16.3894L34.2939 15.3113L33.9137 15.6948L33.2583 15.0451L33.6526 14.5697L33.0062 13.7362L33.7377 12.9983L34.4805 13.7347L35.1398 13.0696L35.834 13.7579L35.1746 14.423L36.2523 15.4914C36.5436 15.7802 36.8064 15.8065 37.0406 15.5702C37.1016 15.5087 37.172 15.4053 37.2519 15.2599L38.0226 15.7545C37.8596 16.0549 37.6818 16.3022 37.4893 16.4964Z" fill="black"/>
</g>
<defs>
<linearGradient id="paint0_linear_391_1467" x1="25" y1="0" x2="25" y2="50" gradientUnits="userSpaceOnUse">
<stop stop-color="#22F6E9"/>
<stop offset="1" stop-color="#89FA31"/>
</linearGradient>
<clipPath id="clip0_391_1467">
<rect width="50" height="50" fill="white"/>
</clipPath>
</defs>
</svg>
