<svg width="50" height="50" viewBox="0 0 50 50" fill="none" xmlns="http://www.w3.org/2000/svg">
<g clip-path="url(#clip0_168_1348)">
<path d="M48.9705 13.509L46.6345 11.1746C46.3986 10.9374 46.0784 10.8032 45.7439 10.8014L42.3729 10.7849C41.5381 10.7784 40.7393 10.444 40.1488 9.85374C39.5583 9.26349 39.2234 8.46473 39.2164 7.62975L39.1937 4.25189C39.1918 3.9167 39.0576 3.59582 38.8205 3.35897L36.4845 1.02251C35.8276 0.367687 34.9379 0 34.0104 0C33.0829 0 32.1933 0.367687 31.5363 1.02251L1.02232 31.5428C0.36763 32.1999 0 33.0897 0 34.0174C0 34.9451 0.36763 35.8349 1.02232 36.492L3.35629 38.8264C3.59386 39.0637 3.91532 39.1978 4.25106 39.1997L7.62205 39.2141C8.45687 39.2206 9.25568 39.555 9.84619 40.1453C10.4367 40.7355 10.7716 41.5343 10.7786 42.3693L10.793 45.743C10.7953 46.0775 10.9294 46.3976 11.1662 46.6338L13.5001 48.9724C13.8246 49.2981 14.2102 49.5565 14.6347 49.7329C15.0593 49.9092 15.5145 50 15.9742 50C16.4339 50 16.8892 49.9092 17.3137 49.7329C17.7383 49.5565 18.1238 49.2981 18.4483 48.9724L48.9726 18.4521C49.2983 18.1275 49.5567 17.7419 49.733 17.3172C49.9093 16.8926 50 16.4373 50 15.9775C50 15.5176 49.9093 15.0624 49.733 14.6377C49.5567 14.213 49.2983 13.8274 48.9726 13.5028L48.9705 13.509Z" fill="url(#paint0_linear_168_1348)"/>
<path d="M47.0669 14.4209L44.9172 12.2733C44.7011 12.0563 44.4084 11.9326 44.1021 11.929L40.9989 11.9147C40.2304 11.9089 39.4951 11.6011 38.9516 11.058C38.408 10.5148 38.0997 9.77963 38.0934 9.01119L38.079 5.90797C38.0766 5.60184 37.9537 5.309 37.7368 5.09295L35.5871 2.94127C34.9838 2.33855 34.166 2 33.3132 2C32.4604 2 31.6425 2.33855 31.0392 2.94127L2.94298 31.0292C2.64405 31.3276 2.40695 31.6821 2.24515 32.0723C2.08334 32.4624 2 32.8807 2 33.3031C2 33.7255 2.08334 34.1438 2.24515 34.5339C2.40695 34.9241 2.64405 35.2786 2.94298 35.577L5.0906 37.7246C5.30645 37.9421 5.59925 38.0658 5.90563 38.069L9.00886 38.0832C9.77712 38.0891 10.5122 38.3969 11.0555 38.9401C11.5988 39.4834 11.9066 40.2185 11.9124 40.9868L11.9267 44.09C11.9299 44.3964 12.0536 44.6892 12.2711 44.905L14.4166 47.0587C15.0199 47.6614 15.8378 48 16.6906 48C17.5434 48 18.3613 47.6614 18.9646 47.0587L47.0587 18.9647C47.6614 18.3614 48 17.5436 48 16.6908C48 15.838 47.4784 14.8632 46.969 14.3232L47.0669 14.4209Z" stroke="white" stroke-width="0.5" stroke-miterlimit="10"/>
<path d="M17.8084 35.4067L21.1843 32.0016L20.047 30.874L16.6711 34.2791L17.8084 35.4067ZM17.9526 28.7976L14.5767 32.2027L15.6516 33.2684L19.0275 29.8633L17.9526 28.7976ZM15.5097 29.181L17.9987 26.6705L23.7478 32.3704L22.6614 33.4661L22.2315 33.0398L18.8556 36.4449L19.2855 36.8712L18.2542 37.9114L12.5051 32.2116L14.2996 30.4015C14.0258 29.8825 13.7685 29.467 13.5278 29.155L15.0487 27.9538C15.179 28.2755 15.3327 28.6846 15.5097 29.181ZM26.5015 27.2071L28.6192 25.0711L27.4333 23.8954L25.3157 26.0314L26.5015 27.2071ZM23.5044 22.3517L21.9437 23.9259C21.9488 24.041 21.9518 24.2136 21.9528 24.4438C22.7027 24.3255 23.3101 24.2584 23.775 24.2426C23.763 23.5981 23.6728 22.9678 23.5044 22.3517ZM27.5697 21.8991L30.8916 25.1925L29.8259 26.2675L29.5485 25.9924L27.4308 28.1284L27.7013 28.3966L26.67 29.4368L24.7767 27.5598C24.5953 28.1959 24.3244 28.8945 23.964 29.6556C23.4199 29.4462 22.913 29.3425 22.4435 29.3445C23.0737 28.1817 23.4784 26.9968 23.6573 25.7899C23.2568 25.7778 22.6515 25.8103 21.8416 25.8875C21.7925 26.2422 21.7183 26.6407 21.6189 27.0831C21.4161 27.0287 21.1604 26.9953 20.852 26.9828C20.548 26.9657 20.2903 26.9714 20.0786 26.9999C20.342 26.1517 20.4766 25.3363 20.4824 24.5537C20.4836 23.7665 20.3816 23.051 20.1762 22.4074L21.5533 21.4762C21.5907 21.6049 21.6541 21.8832 21.7434 22.3109L23.1253 20.917L23.2418 20.7024L24.3314 20.3524C24.9167 21.5837 25.2215 22.8806 25.2458 24.2432L27.5697 21.8991ZM31.3592 13.4997L31.0957 13.2384L30.2912 14.0498L30.5548 14.3111L31.3592 13.4997ZM31.4618 11.6762L32.9182 13.1201L30.2505 15.8108L28.7941 14.367L31.4618 11.6762ZM28.3546 16.5303L28.091 16.269L27.3004 17.0665L27.5639 17.3278L28.3546 16.5303ZM28.4503 14.7137L29.9067 16.1576L27.2596 18.8276L25.8033 17.3837L28.4503 14.7137ZM30.7922 19.7446L31.7479 18.7806L31.4982 18.5331L30.5425 19.4971L30.7922 19.7446ZM29.5716 18.5345L29.8213 18.782L30.777 17.818L30.5274 17.5705L29.5716 18.5345ZM32.8672 15.7098L32.6175 15.4623L31.5931 16.4956L31.8427 16.7431L32.8672 15.7098ZM33.8381 16.6724L33.5884 16.4249L32.564 17.4582L32.8136 17.7057L33.8381 16.6724ZM36.5423 16.0393L37.423 16.9125L34.7415 19.6171L35.5876 20.4559L34.5219 21.5309L33.6758 20.692L31.0769 23.3135L30.1961 22.4403L32.7951 19.8188L32.5316 19.5576L30.572 21.534L27.7842 18.7701L32.8927 13.6174L35.6806 16.3813L33.5973 18.4826L33.8608 18.7439L36.5423 16.0393Z" fill="black"/>
</g>
<defs>
<linearGradient id="paint0_linear_168_1348" x1="25" y1="0" x2="25" y2="50" gradientUnits="userSpaceOnUse">
<stop stop-color="#22F6E9"/>
<stop offset="1" stop-color="#89FA31"/>
</linearGradient>
<clipPath id="clip0_168_1348">
<rect width="50" height="50" fill="white"/>
</clipPath>
</defs>
</svg>
