<svg width="50" height="50" viewBox="0 0 50 50" fill="none" xmlns="http://www.w3.org/2000/svg">
<g clip-path="url(#clip0_391_1483)">
<path d="M48.9705 13.509L46.6345 11.1746C46.3986 10.9374 46.0784 10.8032 45.7439 10.8014L42.3729 10.7849C41.5381 10.7784 40.7393 10.444 40.1488 9.85374C39.5583 9.26349 39.2234 8.46473 39.2164 7.62975L39.1937 4.25189C39.1918 3.9167 39.0576 3.59582 38.8205 3.35897L36.4845 1.02251C35.8276 0.367687 34.9379 0 34.0104 0C33.0829 0 32.1933 0.367687 31.5363 1.02251L1.02232 31.5428C0.36763 32.1999 0 33.0897 0 34.0174C0 34.9451 0.36763 35.8349 1.02232 36.492L3.35629 38.8264C3.59386 39.0637 3.91532 39.1978 4.25106 39.1997L7.62205 39.2141C8.45687 39.2206 9.25568 39.555 9.84619 40.1453C10.4367 40.7355 10.7716 41.5343 10.7786 42.3693L10.793 45.743C10.7953 46.0775 10.9294 46.3976 11.1662 46.6338L13.5001 48.9724C13.8246 49.2981 14.2102 49.5565 14.6347 49.7329C15.0593 49.9092 15.5145 50 15.9742 50C16.4339 50 16.8892 49.9092 17.3137 49.7329C17.7383 49.5565 18.1238 49.2981 18.4483 48.9724L48.9726 18.4521C49.2983 18.1275 49.5567 17.7419 49.733 17.3172C49.9093 16.8926 50 16.4373 50 15.9775C50 15.5176 49.9093 15.0624 49.733 14.6377C49.5567 14.213 49.2983 13.8274 48.9726 13.5028L48.9705 13.509Z" fill="url(#paint0_linear_391_1483)"/>
<path d="M47.0669 14.4209L44.9172 12.2733C44.7011 12.0563 44.4084 11.9326 44.1021 11.929L40.9989 11.9147C40.2304 11.9089 39.4951 11.6011 38.9516 11.058C38.408 10.5148 38.0997 9.77963 38.0934 9.01119L38.079 5.90797C38.0766 5.60184 37.9537 5.309 37.7368 5.09295L35.5871 2.94127C34.9838 2.33855 34.166 2 33.3132 2C32.4604 2 31.6425 2.33855 31.0392 2.94127L2.94298 31.0292C2.64405 31.3276 2.40695 31.6821 2.24515 32.0723C2.08334 32.4624 2 32.8807 2 33.3031C2 33.7255 2.08334 34.1438 2.24515 34.5339C2.40695 34.9241 2.64405 35.2786 2.94298 35.577L5.0906 37.7246C5.30645 37.9421 5.59925 38.0658 5.90563 38.069L9.00886 38.0832C9.77712 38.0891 10.5122 38.3969 11.0555 38.9401C11.5988 39.4834 11.9066 40.2185 11.9124 40.9868L11.9267 44.09C11.9299 44.3964 12.0536 44.6892 12.2711 44.905L14.4166 47.0587C15.0199 47.6614 15.8378 48 16.6906 48C17.5434 48 18.3613 47.6614 18.9646 47.0587L47.0587 18.9647C47.6614 18.3614 48 17.5436 48 16.6908C48 15.838 47.4784 14.8632 46.969 14.3232L47.0669 14.4209Z" stroke="white" stroke-width="0.5" stroke-miterlimit="10"/>
<path d="M16.2288 31.4133L12.5297 27.7459L13.8147 26.4498C14.0265 26.2362 14.2384 26.0645 14.4505 25.9346C14.6626 25.7984 14.883 25.7056 15.1116 25.6563C15.3402 25.607 15.5739 25.6237 15.8127 25.7064C16.0483 25.786 16.2761 25.9348 16.4962 26.153C16.7777 26.4322 16.9482 26.7392 17.0077 27.0741C17.0639 27.4058 17.0298 27.7217 16.9054 28.0219C16.7778 28.319 16.5792 28.6034 16.3097 28.8753L15.8814 29.3073L17.1095 30.525L16.2288 31.4133ZM15.1823 28.6142L15.5673 28.2259C15.9909 27.7987 16.0133 27.3974 15.6347 27.022C15.4534 26.8423 15.2711 26.7706 15.0875 26.8068C14.9008 26.8399 14.6967 26.968 14.4753 27.1913L14.1143 27.5554L15.1823 28.6142ZM20.7342 27.0049C20.3588 27.3835 19.9005 27.5772 19.3591 27.586C18.821 27.5916 18.327 27.3713 17.8771 26.9253C17.4273 26.4793 17.2028 25.9873 17.2037 25.4491C17.2046 24.9045 17.3927 24.4428 17.7681 24.0642C18.1403 23.6888 18.5971 23.4999 19.1385 23.4976C19.6766 23.492 20.1706 23.7123 20.6205 24.1583C21.0703 24.6043 21.2948 25.0963 21.2939 25.6345C21.293 26.1727 21.1064 26.6295 20.7342 27.0049ZM20.0206 26.2974C20.3351 25.9802 20.2366 25.5682 19.7253 25.0612C19.2107 24.551 18.7962 24.4545 18.4817 24.7717C18.1609 25.0953 18.2577 25.5122 18.7723 26.0224C19.2837 26.5294 19.6998 26.621 20.0206 26.2974ZM22.5866 25.0006L19.7564 22.1946L20.6276 21.316L23.4577 24.1219L22.5866 25.0006ZM19.8012 21.363C19.6536 21.5119 19.4896 21.5932 19.3092 21.6068C19.132 21.6173 18.9771 21.5567 18.8444 21.4252C18.7117 21.2936 18.6498 21.1392 18.6587 20.9619C18.6676 20.7782 18.7458 20.6119 18.8934 20.463C19.0378 20.3174 19.2002 20.241 19.3806 20.2337C19.5578 20.2233 19.7128 20.2839 19.8455 20.4154C19.9782 20.547 20.04 20.7014 20.0311 20.8787C20.0222 21.0559 19.9456 21.2174 19.8012 21.363ZM24.1652 23.4083L21.3351 20.6024L22.0474 19.8839L22.4595 20.177L22.4836 20.1527C22.4876 19.5855 22.6452 19.145 22.9564 18.8311C23.5372 18.2453 24.2111 18.3326 24.9781 19.093L26.7257 20.8257L25.8498 21.7092L24.2089 20.0824C24.0212 19.8963 23.8661 19.7939 23.7436 19.7751C23.6178 19.7531 23.4972 19.8003 23.3816 19.9168C23.2886 20.0107 23.2278 20.1108 23.1993 20.2173C23.1707 20.3238 23.1536 20.4705 23.148 20.6574L25.0364 22.5296L24.1652 23.4083ZM28.5744 19.0969C28.2375 19.4367 27.8886 19.5913 27.5275 19.5606C27.1697 19.5267 26.816 19.3365 26.4664 18.99L25.379 17.9119L24.9988 18.2954L24.3435 17.6456L24.7378 17.1702L24.0913 16.3368L24.8229 15.5989L25.5656 16.3353L26.225 15.6702L26.9192 16.3584L26.2598 17.0235L27.3375 18.092C27.6288 18.3807 27.8915 18.407 28.1257 18.1708C28.1867 18.1093 28.2572 18.0058 28.3371 17.8605L29.1078 18.355C28.9447 18.6554 28.7669 18.9027 28.5744 19.0969ZM30.4996 17.1551C30.3167 17.3396 30.0902 17.4968 29.8201 17.6269C29.5499 17.7505 29.2844 17.8242 29.0234 17.8479L28.8599 16.9156C29.3108 16.8557 29.6469 16.7141 29.8683 16.4908C30.0897 16.2675 30.126 16.082 29.9771 15.9344C29.9545 15.9119 29.9286 15.8959 29.8996 15.8864C29.8673 15.8737 29.8302 15.869 29.7883 15.8724C29.7465 15.8758 29.7078 15.8824 29.6724 15.8922C29.637 15.8956 29.5903 15.9103 29.5324 15.9363C29.4745 15.9559 29.4262 15.9755 29.3877 15.995C29.349 16.008 29.2944 16.0308 29.2236 16.0633C29.1529 16.0959 29.0966 16.1203 29.0547 16.1366C28.3696 16.4328 27.8491 16.4044 27.4931 16.0514C27.2244 15.7851 27.1071 15.4698 27.141 15.1055C27.178 14.738 27.3586 14.3908 27.6827 14.0639C28.026 13.7177 28.4811 13.5014 29.0479 13.4152L29.1823 14.3282C28.8023 14.3943 28.5289 14.5115 28.3621 14.6797C28.1631 14.8804 28.1316 15.0481 28.2676 15.1829C28.2902 15.2053 28.3177 15.2229 28.35 15.2357C28.379 15.2452 28.4129 15.2499 28.4515 15.2497C28.4902 15.2431 28.5256 15.2365 28.5578 15.23C28.5932 15.2201 28.6382 15.2038 28.6929 15.181C28.7508 15.155 28.7991 15.1355 28.8377 15.1224C28.8731 15.1061 28.9261 15.0817 28.9969 15.0492C29.0644 15.0135 29.1175 14.9859 29.156 14.9664C29.2976 14.9013 29.4262 14.8524 29.5421 14.8197C29.6612 14.7837 29.7916 14.759 29.9333 14.7455C30.0751 14.732 30.2153 14.7523 30.3541 14.8065C30.4929 14.8607 30.6222 14.9472 30.742 15.0659C31.0138 15.3354 31.1344 15.6571 31.1038 16.0311C31.0732 16.405 30.8718 16.7797 30.4996 17.1551ZM27.0512 34.8367C26.5602 35.3319 25.9845 35.5825 25.3239 35.5886C24.6633 35.5882 24.032 35.2896 23.43 34.6928C22.8378 34.1056 22.537 33.4673 22.5275 32.7777C22.5181 32.0881 22.7573 31.4973 23.245 31.0054C23.6749 30.5718 24.2057 30.3568 24.8374 30.3605L24.9433 31.3896C24.5406 31.4075 24.2317 31.5248 24.0167 31.7417C23.7729 31.9876 23.6727 32.299 23.7162 32.6759C23.7597 33.0463 23.9562 33.4047 24.3057 33.7513C24.6714 34.1138 25.0333 34.3218 25.3912 34.375C25.7491 34.4218 26.0596 34.3125 26.3227 34.0471C26.5794 33.7882 26.6987 33.4413 26.6808 33.0063L27.7011 33.0938C27.7523 33.7671 27.5357 34.348 27.0512 34.8367ZM29.4239 32.4435C29.1704 32.6991 28.8858 32.8212 28.5699 32.8097C28.2541 32.7981 27.9748 32.6721 27.732 32.4314C27.4311 32.133 27.3216 31.7774 27.4036 31.3646C27.4856 30.9517 27.7686 30.4397 28.2526 29.8286C27.9906 29.6074 27.728 29.6294 27.4649 29.8948C27.266 30.0955 27.1047 30.4265 26.981 30.8878L26.0952 30.6161C26.26 29.9516 26.5364 29.4235 26.9247 29.0319C27.6819 28.2681 28.4909 28.313 29.3518 29.1665L30.9586 30.7595L30.2463 31.478L29.8974 31.2668L29.8781 31.2862C29.8545 31.7762 29.7031 32.1619 29.4239 32.4435ZM29.0426 31.459C29.187 31.3134 29.2538 31.0972 29.2429 30.8104L28.7914 30.3628C28.3716 30.9157 28.2734 31.3028 28.4967 31.5242C28.6585 31.6846 28.8405 31.6629 29.0426 31.459ZM31.6325 30.0799L28.8023 27.274L29.5146 26.5555L30.0675 26.9882L30.0916 26.9639C30.0098 26.6839 29.991 26.4246 30.035 26.1859C30.0823 25.944 30.1782 25.7503 30.3226 25.6046C30.4638 25.4622 30.5971 25.3666 30.7225 25.3177L31.3355 26.2238C31.1909 26.3115 31.0752 26.399 30.9886 26.4863C30.8731 26.6029 30.8012 26.7562 30.7731 26.9465C30.7449 27.1367 30.7829 27.3541 30.887 27.5986L32.5036 29.2012L31.6325 30.0799ZM34.9443 26.8754C34.5946 27.2281 34.1827 27.3781 33.7088 27.3254C33.2349 27.2726 32.7697 27.0201 32.3134 26.5677C31.87 26.1281 31.6279 25.657 31.5871 25.1545C31.5462 24.6455 31.6798 24.2357 31.9878 23.925C32.1354 23.7761 32.2832 23.6756 32.4312 23.6234C32.5825 23.5679 32.7564 23.5382 32.9529 23.5341L32.4969 23.1494L31.5551 22.2157L32.4359 21.3273L36.4068 25.2643L35.6945 25.9827L35.3553 25.7812L35.336 25.8006C35.338 26.2517 35.2074 26.61 34.9443 26.8754ZM34.452 25.9252C34.6285 25.7472 34.6888 25.5278 34.6329 25.2671L33.5163 24.1601C33.2811 24.1708 33.0801 24.2603 32.9133 24.4285C32.7817 24.5612 32.7357 24.7371 32.7753 24.956C32.8117 25.1718 32.9529 25.4016 33.1989 25.6454C33.7134 26.1556 34.1311 26.2489 34.452 25.9252Z" fill="black"/>
</g>
<defs>
<linearGradient id="paint0_linear_391_1483" x1="25" y1="0" x2="25" y2="50" gradientUnits="userSpaceOnUse">
<stop stop-color="#7322F6"/>
<stop offset="1" stop-color="#FA31DA"/>
</linearGradient>
<clipPath id="clip0_391_1483">
<rect width="50" height="50" fill="white"/>
</clipPath>
</defs>
</svg>
