<svg xmlns="http://www.w3.org/2000/svg" width="624.74" height="217.795" viewBox="0 0 624.74 217.795">
  <g id="-15266" data-name="-15266" transform="translate(-175 -16)">
    <path id="路径_41019" data-name="路径 41019" d="M2.992,27.111h9.931v-40.77H2.992Zm43.674-40.77V11.6L30.056-13.659H20.124v40.77h9.931V1.964l16.61,25.148H56.6v-40.77ZM93.418,14.973c0-13.648-20.153-10.454-20.153-17.539,0-2.555,1.8-3.775,4.182-3.717,2.672.058,4.53,1.626,4.7,4.24H92.9c-.407-7.782-6.389-12.2-15.274-12.2-8.537,0-14.868,4.3-14.868,12.022-.116,14.461,20.269,10.4,20.269,17.946,0,2.381-1.858,3.833-4.762,3.833a4.675,4.675,0,0,1-5.053-4.646H62.637c.29,8.247,7.144,12.6,15.913,12.6C88.075,27.518,93.418,21.826,93.418,14.973Zm4.414-8.305c0,12.2,8.479,20.734,20.5,20.734,9.7,0,17.017-5.4,19.34-14.229H126.755a8.982,8.982,0,0,1-8.537,5.227c-6.1,0-10.28-4.53-10.28-11.732s4.182-11.732,10.28-11.732A8.982,8.982,0,0,1,126.755.163h10.919c-2.323-8.828-9.641-14.287-19.34-14.287C106.312-14.124,97.832-5.528,97.832,6.668ZM165.318-.418c0,3.194-1.742,5.111-5.459,5.111H153.7V-5.412h6.156C163.576-5.412,165.318-3.438,165.318-.418ZM143.772-13.659v40.77H153.7V11.721h2.381l8.479,15.391h11.209l-9.409-16.146c6.272-1.858,9.06-6.679,9.06-11.79,0-7.085-4.995-12.835-14.984-12.835Zm37.867,40.77h9.931v-40.77h-9.931ZM208.7,4.577V-5.645h5.4c3.949,0,5.634,1.975,5.634,5.111s-1.684,5.111-5.634,5.111Zm21.14-5.111c0-7.492-4.995-13.126-14.984-13.126H198.771v40.77H208.7V12.476h6.156C225.254,12.476,229.842,6.2,229.842-.534ZM232.8-5.7h10.8V27.111h9.931V-5.7h10.8v-7.957H232.8Zm36.531,32.814h9.931v-40.77h-9.931ZM326.6,6.61c0-12.254-9.234-20.85-20.85-20.85-11.557,0-20.966,8.6-20.966,20.85s9.409,20.908,20.966,20.908A20.416,20.416,0,0,0,326.6,6.61Zm-31.652,0c0-7.26,4.182-11.848,10.8-11.848,6.5,0,10.744,4.588,10.744,11.848,0,7.144-4.24,11.848-10.744,11.848C299.129,18.458,294.947,13.753,294.947,6.61Zm63.711-20.269V11.6l-16.61-25.264h-9.931v40.77h9.931V1.964l16.61,25.148h9.931v-40.77ZM30.811,93.9H41.323L26.571,53.13h-11.5L.32,93.9h10.4l2.439-7.2H28.371ZM25.816,79.033H15.769l4.995-14.926Zm19.979-25.9V93.9H68.735V86.234H55.726V53.13Zm27.7,0V93.9H96.438V86.234H83.429V53.13ZM101.2,93.9h9.931V53.13H101.2Zm44.952,0h10.512L141.913,53.13h-11.5L115.662,93.9h10.4l2.439-7.2h15.216Zm-4.995-14.868H131.111l4.995-14.926Zm46.52-25.9V78.394L171.068,53.13h-9.931V93.9h9.931V68.753L187.678,93.9h9.931V53.13Zm15.449,20.327c0,12.2,8.479,20.734,20.5,20.734,9.7,0,17.017-5.4,19.34-14.229H232.049a8.982,8.982,0,0,1-8.537,5.227c-6.1,0-10.28-4.53-10.28-11.732s4.182-11.732,10.28-11.732a8.982,8.982,0,0,1,8.537,5.227h10.919c-2.323-8.828-9.641-14.287-19.34-14.287C211.606,52.665,203.127,61.261,203.127,73.457ZM274.039,53.13H249.066V93.9h24.973V85.944H259V77h13.3V69.334H259V61.087h15.042Z" transform="translate(431.15 84.717)" fill="#00ff90"/>
    <g id="组_15233" data-name="组 15233" transform="translate(175 16)">
      <g id="组_15232" data-name="组 15232">
        <path id="Medishares_Mds_" data-name="Medishares (Mds)" d="M16.411,32.822A16.411,16.411,0,1,1,32.821,16.411,16.411,16.411,0,0,1,16.411,32.822Z" transform="translate(73.102 71.593)" fill="#00ff90"/>
        <path id="Medishares_Mds_2" data-name="Medishares (Mds)" d="M16.411,32.822A16.411,16.411,0,1,1,32.821,16.411,16.411,16.411,0,0,1,16.411,32.822Z" transform="translate(113.37 111.879)" fill="#00ff90"/>
        <path id="Medishares_Mds_3" data-name="Medishares (Mds)" d="M11.935,23.87A11.935,11.935,0,1,1,23.87,11.935,11.935,11.935,0,0,1,11.935,23.87Z" transform="translate(158.117 76.068)" fill="#00ff90"/>
        <path id="Medishares_Mds_4" data-name="Medishares (Mds)" d="M11.935,23.87A11.935,11.935,0,1,1,23.87,11.935,11.935,11.935,0,0,1,11.935,23.87Z" transform="translate(35.805 116.354)" fill="#00ff90"/>
        <path id="Medishares_Mds_5" data-name="Medishares (Mds)" d="M12.3,23.865A11.935,11.935,0,1,1,23.87,11.935,11.935,11.935,0,0,1,12.3,23.865Z" transform="translate(77.205 156.628)" fill="#00ff90"/>
        <path id="Medishares_Mds_6" data-name="Medishares (Mds)" d="M12.3,23.865A11.935,11.935,0,1,1,23.87,11.935,11.935,11.935,0,0,1,12.3,23.865Z" transform="translate(117.486 156.628)" fill="#00ff90"/>
        <path id="Medishares_Mds_7" data-name="Medishares (Mds)" d="M12.3,23.865A11.935,11.935,0,1,1,23.87,11.935,11.935,11.935,0,0,1,12.3,23.865Z" transform="translate(77.205 35.805)" fill="#00ff90"/>
        <path id="Medishares_Mds_8" data-name="Medishares (Mds)" d="M12.3,23.865A11.935,11.935,0,1,1,23.87,11.935,11.935,11.935,0,0,1,12.3,23.865Z" transform="translate(117.486 35.805)" fill="#00ff90"/>
        <path id="Medishares_Mds_9" data-name="Medishares (Mds)" d="M7.744,14.914a7.46,7.46,0,1,1,0-14.908,7.46,7.46,0,0,1,0,14.919Z" transform="translate(81.757)" fill="#00ff90"/>
        <path id="Medishares_Mds_10" data-name="Medishares (Mds)" d="M7.744,14.914a7.46,7.46,0,1,1,0-14.908,7.46,7.46,0,0,1,0,14.919Z" transform="translate(122.037)" fill="#00ff90"/>
        <path id="Medishares_Mds_11" data-name="Medishares (Mds)" d="M7.459,14.919a7.46,7.46,0,1,1,7.459-7.46A7.459,7.459,0,0,1,7.459,14.919Z" transform="translate(202.872 80.56)" fill="#00ff90"/>
        <path id="Medishares_Mds_12" data-name="Medishares (Mds)" d="M7.459,14.919a7.46,7.46,0,1,1,7.459-7.46A7.459,7.459,0,0,1,7.459,14.919Z" transform="translate(202.872 120.84)" fill="#00ff90"/>
        <path id="Medishares_Mds_13" data-name="Medishares (Mds)" d="M7.459,14.919a7.46,7.46,0,1,1,7.459-7.46A7.459,7.459,0,0,1,7.459,14.919Z" transform="translate(0 80.56)" fill="#00ff90"/>
        <path id="Medishares_Mds_14" data-name="Medishares (Mds)" d="M7.459,14.919a7.46,7.46,0,1,1,7.459-7.46A7.459,7.459,0,0,1,7.459,14.919Z" transform="translate(0 120.84)" fill="#00ff90"/>
        <path id="Medishares_Mds_15" data-name="Medishares (Mds)" d="M7.459,14.919a7.46,7.46,0,1,1,7.459-7.46A7.459,7.459,0,0,1,7.459,14.919Z" transform="translate(82.042 202.874)" fill="#00ff90"/>
        <path id="Medishares_Mds_16" data-name="Medishares (Mds)" d="M7.459,14.919a7.46,7.46,0,1,1,7.459-7.46A7.459,7.459,0,0,1,7.459,14.919Z" transform="translate(122.322 202.874)" fill="#00ff90"/>
      </g>
    </g>
  </g>
</svg>
