<svg width="700" height="700" viewBox="0 0 700 700" fill="none" xmlns="http://www.w3.org/2000/svg">
<g clip-path="url(#clip0_253_4371)">
<path d="M349.92 699.84C543.175 699.84 699.84 543.175 699.84 349.92C699.84 156.665 543.175 0 349.92 0C156.665 0 0 156.665 0 349.92C0 543.175 156.665 699.84 349.92 699.84Z" fill="#95FA31"/>
<path d="M694.32 349.92L676.9 366.51L692.58 384.76L673.58 399.52L687.34 419.26L666.94 432.01L678.61 453.05L657.02 463.66L666.49 485.77L643.93 494.13L651.1 517.09L627.81 523.11L632.62 546.69L608.83 550.32L611.24 574.26L587.21 575.49L587.2 599.54L563.17 598.34L560.74 622.28L536.95 618.67L532.12 642.23L508.82 636.24L501.63 659.19L479.06 650.87L469.56 672.97L447.96 662.38L436.26 683.41L415.85 670.68L402.07 690.4L383.06 675.66L367.36 693.89L349.92 677.32L332.48 693.89L316.78 675.66L297.76 690.4L283.99 670.67L263.57 683.41L251.88 662.38L230.27 672.97L220.78 650.86L198.21 659.19L191.01 636.24L167.71 642.23L162.88 618.66L139.09 622.28L136.66 598.34L112.63 599.54L112.62 575.48L88.5898 574.26L90.9998 550.32L67.2198 546.68L72.0298 523.11L48.7398 517.09L55.9098 494.12L33.3498 485.77L42.8198 463.65L21.2198 453.05L32.8998 432.01L12.4998 419.26L26.2498 399.52L7.25977 384.76L22.9398 366.51L5.50977 349.92L22.9398 333.33L7.25977 315.08L26.2498 300.32L12.4998 280.58L32.8998 267.82L21.2198 246.79L42.8198 236.18L33.3498 214.06L55.9098 205.71L48.7398 182.75L72.0298 176.72L67.2198 153.15L90.9998 149.51L88.5998 125.58L112.62 124.35L112.64 100.3L136.67 101.49L139.1 77.56L162.88 81.17L167.72 57.5999L191.02 63.5999L198.21 40.6399L220.78 48.97L230.28 26.87L251.88 37.45L263.57 16.43L283.99 29.16L297.76 9.43995L316.78 24.18L332.48 5.94995L349.92 22.52L367.36 5.94995L383.06 24.18L402.07 9.43995L415.85 29.16L436.26 16.43L447.96 37.45L469.57 26.87L479.06 48.9799L501.63 40.65L508.82 63.5999L532.12 57.61L536.96 81.17L560.74 77.56L563.18 101.5L587.21 100.3L587.22 124.36L611.24 125.58L608.84 149.52L632.62 153.16L627.81 176.73L651.1 182.75L643.93 205.71L666.49 214.07L657.02 236.18L678.62 246.79L666.94 267.83L687.34 280.58L673.58 300.32L692.58 315.08L676.9 333.33L694.32 349.92Z" fill="white"/>
<path d="M349.92 665.1C523.989 665.1 665.1 523.989 665.1 349.92C665.1 175.851 523.989 34.74 349.92 34.74C175.851 34.74 34.7402 175.851 34.7402 349.92C34.7402 523.989 175.851 665.1 349.92 665.1Z" fill="#95FA31"/>
<path d="M660.52 349.92L643.14 364.8L658.95 381.34L640.16 394.4L654.22 412.45L634.2 423.54L646.35 442.93L625.31 451.91L635.41 472.44L613.57 479.24L621.53 500.68L599.11 505.23L604.87 527.37L582.1 529.63L585.59 552.24L562.71 552.19L563.91 575.04L541.15 572.69L540.04 595.54L517.64 590.92L514.24 613.54L492.41 606.67L486.73 628.84L465.72 619.79L457.82 641.26L437.84 630.12L427.79 650.67L409.04 637.55L396.95 656.98L379.64 642.02L365.65 660.12L349.92 643.51L334.19 660.13L320.2 642.02L302.88 656.98L290.79 637.55L272.05 650.67L262 630.12L242.02 641.26L234.11 619.79L213.1 628.83L207.42 606.67L185.6 613.54L182.19 590.91L159.79 595.54L158.68 572.69L135.93 575.04L137.12 552.19L114.25 552.24L117.74 529.63L94.9703 527.37L100.72 505.23L78.3003 500.68L86.2703 479.23L64.4203 472.44L74.5303 451.91L53.4903 442.92L65.6303 423.54L45.6203 412.45L59.6803 394.4L40.8903 381.34L56.7003 364.8L39.3203 349.92L56.7003 335.04L40.8903 318.5L59.6803 305.44L45.6203 287.39L65.6303 276.3L53.4903 256.91L74.5303 247.93L64.4203 227.4L86.2703 220.6L78.3003 199.16L100.73 194.61L94.9703 172.47L117.74 170.21L114.25 147.6L137.13 147.65L135.93 124.8L158.69 127.15L159.79 104.3L182.2 108.92L185.6 86.3L207.43 93.17L213.1 71L234.12 80.05L242.02 58.58L262 69.72L272.05 49.16L290.8 62.28L302.88 42.86L320.2 57.81L334.19 39.71L349.92 56.33L365.65 39.71L379.64 57.81L396.95 42.86L409.04 62.28L427.79 49.17L437.84 69.72L457.82 58.58L465.72 80.05L486.74 71L492.42 93.17L514.24 86.3L517.64 108.92L540.05 104.3L541.15 127.15L563.91 124.8L562.71 147.65L585.59 147.6L582.1 170.21L604.87 172.47L599.12 194.61L621.54 199.16L613.57 220.6L635.42 227.4L625.31 247.93L646.35 256.92L634.21 276.3L654.22 287.39L640.16 305.44L658.95 318.5L643.14 335.04L660.52 349.92Z" fill="white"/>
<path d="M349.92 631.51C505.438 631.51 631.51 505.438 631.51 349.92C631.51 194.402 505.438 68.33 349.92 68.33C194.402 68.33 68.3301 194.402 68.3301 349.92C68.3301 505.438 194.402 631.51 349.92 631.51Z" fill="#95FA31"/>
<path d="M349.92 632.02C312.857 632.124 276.141 624.876 241.899 610.694C207.656 596.512 176.566 575.679 150.43 549.4C124.152 523.267 103.318 492.181 89.1346 457.942C74.9511 423.703 67.6998 386.99 67.7999 349.93C67.6984 312.868 74.9491 276.154 89.1326 241.913C103.316 207.672 124.151 176.585 150.43 150.45C176.563 124.172 207.649 103.339 241.888 89.1551C276.127 74.9717 312.839 67.72 349.9 67.8202C386.97 67.7121 423.694 74.9597 457.944 89.1434C492.194 103.327 523.289 124.165 549.43 150.45C575.71 176.582 596.544 207.668 610.728 241.907C624.912 276.146 632.162 312.86 632.06 349.92C632.163 386.983 624.913 423.698 610.73 457.939C596.546 492.18 575.711 523.267 549.43 549.4C523.291 575.681 492.198 596.516 457.952 610.698C423.706 624.88 386.986 632.127 349.92 632.02Z" fill="white"/>
<path d="M349.921 72.8199C502.921 72.8199 627.021 196.88 627.021 349.92C627.021 502.96 502.961 627.02 349.921 627.02C196.881 627.02 72.8306 502.96 72.8306 349.92C72.8306 196.88 196.891 72.8199 349.921 72.8199ZM349.921 62.8199C311.531 62.7531 273.523 70.4331 238.171 85.4C204.058 99.8105 173.065 120.703 146.911 146.92C120.694 173.074 99.8012 204.067 85.3907 238.18C70.4303 273.533 62.7571 311.542 62.8306 349.93C62.7711 388.317 70.4579 426.323 85.4307 461.67C99.8412 495.783 120.734 526.776 146.951 552.93C173.105 579.147 204.098 600.039 238.211 614.45C273.563 629.413 311.572 637.09 349.961 637.02C388.353 637.09 426.365 629.413 461.721 614.45C495.831 600.039 526.82 579.146 552.971 552.93C579.187 526.776 600.08 495.783 614.491 461.67C629.459 426.319 637.136 388.309 637.061 349.92C637.117 311.526 629.42 273.517 614.431 238.17C600.02 204.057 579.127 173.064 552.911 146.91C526.76 120.693 495.771 99.8008 461.661 85.3902C426.305 70.4267 388.293 62.7499 349.901 62.8199H349.921Z" fill="#95FA31"/>
<path d="M349.921 616.54C314.9 616.631 280.209 609.776 247.855 596.372C215.501 582.968 186.127 563.281 161.431 538.45C136.595 513.749 116.905 484.368 103.501 452.007C90.0971 419.646 83.2446 384.947 83.3408 349.92C83.2459 314.894 90.0991 280.198 103.503 247.839C116.907 215.479 136.596 186.099 161.431 161.4C186.131 136.564 215.513 116.875 247.874 103.47C280.235 90.0662 314.934 83.214 349.961 83.3102C384.978 83.2219 419.665 90.0781 452.016 103.482C484.366 116.886 513.738 136.572 538.431 161.4C563.267 186.1 582.956 215.482 596.361 247.843C609.765 280.204 616.617 314.903 616.521 349.93C616.616 384.956 609.763 419.652 596.359 452.012C582.954 484.371 563.265 513.751 538.431 538.45C513.733 563.283 484.355 582.972 451.997 596.376C419.64 609.78 384.945 616.634 349.921 616.54Z" fill="white"/>
<path d="M349.919 84.7999C496.339 84.7999 615.039 203.5 615.039 349.92C615.039 496.34 496.339 615.04 349.919 615.04C203.499 615.04 84.7993 496.34 84.7993 349.92C84.7993 203.5 203.499 84.7999 349.919 84.7999ZM349.919 81.7999C314.069 81.7308 278.574 88.8975 245.559 102.87C213.698 116.326 184.752 135.841 160.329 160.33C135.845 184.754 116.331 213.695 102.869 245.55C88.8975 278.569 81.7313 314.067 81.7993 349.92C81.7313 385.773 88.8975 421.271 102.869 454.29C116.331 486.145 135.845 515.086 160.329 539.51C184.755 563.996 213.7 583.51 245.559 596.97C278.574 610.943 314.069 618.109 349.919 618.04C385.772 618.109 421.271 610.943 454.289 596.97C486.146 583.51 515.087 563.996 539.509 539.51C563.996 515.089 583.51 486.147 596.969 454.29C610.941 421.271 618.107 385.773 618.039 349.92C618.107 314.067 610.941 278.569 596.969 245.55C583.51 213.693 563.996 184.751 539.509 160.33C515.09 135.841 486.148 116.327 454.289 102.87C421.271 88.8975 385.772 81.7309 349.919 81.7999Z" fill="#95FA31"/>
<path d="M349.92 564.08C321.789 564.162 293.921 558.665 267.928 547.906C241.935 537.147 218.334 521.34 198.49 501.4C178.543 481.56 162.728 457.96 151.962 431.967C141.196 405.974 135.693 378.104 135.77 349.97C135.693 321.835 141.196 293.966 151.962 267.973C162.728 241.98 178.543 218.38 198.49 198.54C218.33 178.591 241.929 162.775 267.922 152.007C293.915 141.24 321.785 135.734 349.92 135.81C378.055 135.733 405.926 141.238 431.919 152.005C457.912 162.773 481.511 178.59 501.35 198.54C521.299 218.38 537.116 241.979 547.883 267.972C558.651 293.965 564.156 321.835 564.08 349.97C564.156 378.105 558.651 405.975 547.883 431.968C537.116 457.961 521.299 481.56 501.35 501.4C481.507 521.341 457.906 537.148 431.913 547.907C405.92 558.666 378.052 564.163 349.92 564.08Z" fill="white"/>
<path d="M349.92 137.26C467.37 137.26 562.58 232.47 562.58 349.92C562.58 467.37 467.37 562.58 349.92 562.58C232.47 562.58 137.27 467.37 137.27 349.92C137.27 232.47 232.47 137.26 349.92 137.26ZM349.92 134.26C321.081 134.224 292.532 140.006 265.98 151.26C240.359 162.058 217.078 177.728 197.43 197.4C177.736 217.047 162.039 240.327 151.21 265.95C139.975 292.506 134.214 321.056 134.27 349.89C134.215 378.725 139.976 407.274 151.21 433.83C162.037 459.461 177.734 482.748 197.43 502.4C217.071 522.101 240.352 537.798 265.98 548.62C292.532 559.875 321.081 565.657 349.92 565.62C378.778 565.663 407.349 559.881 433.92 548.62C459.534 537.795 482.801 522.097 502.43 502.4C522.13 482.759 537.828 459.478 548.65 433.85C559.909 407.3 565.691 378.749 565.65 349.91C565.692 321.071 559.909 292.52 548.65 265.97C537.83 240.335 522.132 217.047 502.43 197.4C482.792 177.7 459.514 162.002 433.89 151.18C407.319 139.919 378.748 134.137 349.89 134.18L349.92 134.26Z" fill="#95FA31"/>
<path d="M349.919 554.48C462.895 554.48 554.479 462.895 554.479 349.92C554.479 236.945 462.895 145.36 349.919 145.36C236.944 145.36 145.359 236.945 145.359 349.92C145.359 462.895 236.944 554.48 349.919 554.48Z" fill="#95FA31"/>
<path d="M497.091 176.73C500.331 179.36 501.161 179.01 503.681 176.18L516.391 161.91C518.881 159.12 519.141 158.25 516.181 155.3L516.631 154.8L525.301 162.52L524.851 163.02C521.611 160.46 520.741 160.78 518.251 163.57L505.551 177.84C503.031 180.67 502.811 181.56 505.761 184.45L505.311 184.95L496.641 177.23L497.091 176.73Z" fill="#95FA31"/>
<path d="M507.931 185.77C509.931 187.77 511.591 188.1 512.841 187.49C514.091 186.88 516.221 185.15 519.841 181.9L527.581 174.9C530.751 172.04 530.411 172.02 530.581 170.68C530.751 169.34 530.471 168.33 528.981 166.24L529.481 165.79L533.481 170.18L529.481 203.62L529.571 203.72L539.731 194.56C546.681 188.29 547.571 187.42 544.101 182.99L544.601 182.54L552.601 191.38L552.101 191.83C550.101 189.92 548.581 189.64 547.251 190.26C545.921 190.88 544.011 192.54 540.661 195.56L526.761 208.09L526.411 207.7L530.301 174.4L530.231 174.33L520.751 182.88C517.191 186.16 515.261 187.96 514.491 189.11C513.671 190.43 513.991 192.11 515.971 194.63L515.471 195.08L507.471 186.2L507.931 185.77Z" fill="#95FA31"/>
<path d="M559.159 213.27C560.979 211.01 563.429 207.9 560.759 204.08C558.759 201.24 555.939 201.08 553.389 202.91C550.079 205.22 550.459 208.52 550.949 211.99C551.289 214.32 552.949 220.34 548.059 223.78C543.969 226.64 538.819 225.55 535.279 220.65C534.381 219.276 533.659 217.794 533.129 216.24C532.886 215.523 532.741 214.776 532.699 214.02C534.428 212.134 536.282 210.366 538.249 208.73L538.689 209.36C537.009 211.48 533.689 216.28 536.959 220.88C539.079 223.88 542.019 224.6 545.479 222.19C549.479 219.41 548.539 215.25 548.259 212.34C548.259 211.85 546.019 204.77 550.819 201.42C554.089 199.14 559.029 199.67 562.269 204.31C563.371 205.879 564.18 207.633 564.659 209.49C563.429 210.58 562.109 211.8 559.659 213.94L559.159 213.27Z" fill="#95FA31"/>
<path d="M565.361 253.3C562.616 253.994 559.835 254.535 557.031 254.92C556.091 253.68 553.031 250.23 551.291 247.05C545.361 235.96 549.931 227.42 556.291 224.05C564.761 219.52 574.361 223.53 579.481 233.05C580.902 235.772 581.945 238.675 582.581 241.68C580.641 243.16 578.721 244.45 576.451 246L575.931 245.35C580.211 241.54 580.571 237.64 577.631 232.14C573.141 223.76 565.581 222.96 558.981 226.49C550.771 230.88 548.071 238.65 552.071 246.14C555.221 252.02 559.691 252.74 565.131 252.43L565.361 253.3Z" fill="#95FA31"/>
<path d="M558.84 258.77C560.51 262.71 561.4 262.77 564.96 261.46L582.96 254.76C586.51 253.44 586.87 252.89 585.74 249.01L586.41 248.76L590.43 259.4C592.09 263.85 592.54 269.21 586.78 271.4C582.96 272.83 579.96 271.64 577.1 268.76C575.414 270.76 573.852 272.861 572.42 275.05C570.57 278.2 567.87 282.79 568.18 285.28L567.55 285.37C566.03 281.27 565.45 279.03 574.04 268.1C575.24 266.38 574.78 265.01 573.36 261.19L565.89 263.96C562.34 265.28 561.71 265.96 562.96 269.86L562.33 270.1L558.24 259.1L558.84 258.77ZM575.25 263.53C576.25 266.14 577.2 267.67 578.64 268.53C579.608 269.079 580.693 269.393 581.805 269.443C582.918 269.493 584.026 269.28 585.04 268.82C589.86 267.03 590.77 263.15 589.04 258.47C588.59 257.26 588.26 256.47 588.04 256.12C587.95 255.9 587.75 255.77 586.9 256.12L574.21 260.83L575.25 263.53Z" fill="#95FA31"/>
<path d="M568.64 286.57C569.89 290.57 570.78 290.72 574.44 289.75L592.91 284.87C596.53 283.87 597.22 283.33 596.38 279.23L597.03 279.06L600.03 290.29L599.38 290.46C598.09 286.53 597.2 286.33 593.58 287.28L575.11 292.17C571.44 293.17 570.76 293.76 571.63 297.8L570.99 297.97L567.99 286.74L568.64 286.57Z" fill="#95FA31"/>
<path d="M572.48 300.71C573.37 304.71 574.24 304.99 577.98 304.35L596.81 301.12C600.59 300.47 601.3 300.35 600.81 296.12L601.52 296L603.44 307.21C603.95 310.21 604.83 317.59 596.98 318.94C590.07 320.12 586.1 314.04 585.81 309.51L586.21 305.51L578.35 306.86C574.66 307.49 574.06 307.94 574.6 312.81L573.94 312.93L571.85 300.77L572.48 300.71ZM587.22 305.39C586.919 306.757 586.919 308.173 587.22 309.54C587.94 313.75 590.71 316.83 596.22 315.89C601.37 315 603.22 311.61 602.22 305.8C602.119 304.987 601.949 304.184 601.71 303.4C601.61 303.08 601.44 302.96 600.45 303.13L587.22 305.39Z" fill="#95FA31"/>
<path d="M432.689 562.54C430.309 563.94 429.489 564.54 429.929 565.66C430.369 566.78 433.169 569.72 436.499 573.12L446.749 568.89C446.839 567.89 446.579 560.95 446.009 559.58C445.439 558.21 444.079 558.3 441.429 558.93L441.179 558.31L451.249 554.14L451.509 554.76C448.659 556.67 448.239 557.31 448.249 561.98L447.959 588.54L447.519 588.98L441.159 581.98C436.819 577.28 432.529 572.56 429.089 568.98C426.399 566.24 425.839 565.9 422.539 566.7L422.279 566.08L432.439 561.88L432.689 562.54ZM446.789 584.45C446.929 579.77 446.919 574.84 446.789 570.52L437.469 574.38L446.689 584.49L446.789 584.45Z" fill="#95FA31"/>
<path d="M400.759 579.57C400.669 577.95 400.679 574.01 400.449 571.89L420.579 566.37L420.759 567.02C416.879 568.28 416.759 569.16 417.829 573.02L422.829 591.21C423.829 594.82 424.359 595.52 428.539 594.63L428.719 595.27L417.239 598.42L417.059 597.77C421.209 596.39 421.409 595.49 420.419 591.87L415.609 574.33C414.269 569.43 413.119 569.59 408.399 570.88C405.619 571.65 403.549 572.81 402.789 574.21C402.166 575.852 401.765 577.571 401.599 579.32L400.759 579.57Z" fill="#95FA31"/>
<path d="M375.91 583.64C375.99 582.02 376.43 578.11 376.42 575.97L397.04 572.65L397.15 573.32C393.15 574.15 392.95 575.01 393.59 578.99L396.59 597.62C397.18 601.32 397.64 602.07 401.9 601.62L402.01 602.28L390.25 604.17L390.14 603.51C394.42 602.58 394.72 601.7 394.14 598.01L391.25 580.01C390.44 575.01 389.25 575.01 384.45 575.81C381.6 576.27 379.45 577.2 378.51 578.52C377.707 580.078 377.125 581.741 376.78 583.46L375.91 583.64Z" fill="#95FA31"/>
<path d="M372.981 576.85C368.831 577.35 368.511 578.19 368.781 581.98L370.181 601.03C370.461 604.76 370.901 605.54 375.081 605.48V606.15L363.501 607V606.33C367.601 605.79 367.971 604.94 367.691 601.21L366.291 582.16C366.021 578.38 365.521 577.59 361.391 577.7V577.03L372.971 576.18L372.981 576.85Z" fill="#95FA31"/>
<path d="M339.31 577.65C336.56 577.93 335.54 578.19 335.5 579.34C335.46 580.49 336.76 584.34 338.38 588.85L349.46 589.24C349.97 588.35 352.6 581.96 352.65 580.47C352.7 578.98 351.43 578.47 348.76 577.98V577.31L359.65 577.69V578.36C356.27 578.92 355.65 579.36 353.71 583.58L342.44 607.58L341.85 607.8L338.95 598.8C336.95 592.73 335.01 586.66 333.35 581.99C332.04 578.39 331.67 577.85 328.35 577.2V576.53L339.35 576.92L339.31 577.65ZM343.05 603.42C345.12 599.22 347.16 594.73 348.83 590.76L338.76 590.4L342.96 603.4L343.05 603.42Z" fill="#95FA31"/>
<path d="M327.09 577.34C324.27 577.04 322.78 577.76 322.17 579.01C321.56 580.26 320.94 582.94 320.1 587.72L318.3 597.97C317.56 602.18 317.84 601.97 318.51 603.18C319.18 604.39 320.05 604.96 322.51 605.68L322.4 606.34L316.58 605.34L299.12 576.54H298.98L296.62 590.01C295 599.23 294.83 600.47 300.29 601.82L300.18 602.48L288.43 600.4L288.55 599.74C291.33 599.99 292.67 599.29 293.34 598C294.01 596.71 294.49 594.21 295.27 589.76L298.51 571.32L299.03 571.42L316.47 600.06H316.56L318.77 587.48C319.56 582.7 319.97 580.09 319.87 578.71C319.7 577.17 318.43 576.07 315.31 575.28L315.42 574.61L327.2 576.68L327.09 577.34Z" fill="#95FA31"/>
<path d="M260.619 568.87C262.141 566.483 263.79 564.179 265.559 561.97C267.099 562.23 271.719 562.62 275.139 563.76C287.069 567.76 289.61 577.1 287.26 583.96C284.26 593.07 274.479 596.75 264.189 593.3C261.288 592.298 258.539 590.902 256.02 589.15C256.41 586.75 256.92 584.49 257.51 581.81L258.329 581.93C257.839 587.64 260.249 590.72 266.169 592.7C275.169 595.7 281.229 591.11 283.599 584C286.599 575.17 283.199 567.67 275.139 565C268.809 562.89 265.069 565.43 261.319 569.39L260.619 568.87Z" fill="#95FA31"/>
<path d="M261.75 560.4C257.58 558.64 256.919 559.23 255.309 562.56L247.079 579.48C245.279 583.19 245.27 584.09 248.77 586.01L248.469 586.61L229.689 577.49C230.429 575.98 231.45 573.32 232.51 570.69L233.309 570.92C232.079 575.76 232.31 577.46 237.49 580L241.55 582C242.72 582.57 242.799 582.5 243.349 581.38L248.26 571.27L243.26 568.82C239.85 567.16 238.81 567.19 236.76 569.77L236.03 569.42L239.929 561.42L240.659 561.77C239.739 565.43 240.559 566.05 243.839 567.64L248.839 570.1L252.939 561.68C254.939 557.62 253.14 556.76 249.55 555.02C246.92 553.74 244.309 552.52 242.149 553.45C240.473 554.196 238.951 555.247 237.659 556.55L236.919 556.19C238.089 554.78 240.779 551.34 241.829 550.04L262.04 559.86L261.75 560.4Z" fill="#95FA31"/>
<path d="M118.821 332.15C120.291 332.74 121.761 333.15 123.991 333.85L123.301 350.68H122.531C120.001 347.94 117.431 345.14 114.791 342.73C112.011 340.11 108.431 336.03 103.641 335.83C99.2709 335.65 96.881 337.83 96.721 341.6C96.581 345.2 99.3709 347.33 100.911 348.45L100.311 349.15L96.8108 346.41C96.0453 345.595 95.449 344.636 95.0559 343.589C94.6629 342.542 94.4811 341.428 94.521 340.31C94.5287 339.332 94.7354 338.366 95.1287 337.471C95.5219 336.576 96.0935 335.77 96.8084 335.103C97.5233 334.435 98.3664 333.921 99.2866 333.59C100.207 333.26 101.185 333.12 102.161 333.18C106.381 333.35 109.311 335.73 113.281 339.73L121.081 347.5L121.481 337.62C121.581 335.22 121.371 334.49 118.481 333.13L118.821 332.15Z" fill="#95FA31"/>
<path d="M112.569 308.8C119.229 309.7 126.979 313.32 126.099 319.8C125.219 326.28 116.769 327.88 110.099 326.98C103.429 326.08 95.7491 322.37 96.6391 315.81C97.5291 309.25 106.239 307.94 112.569 308.8ZM97.7492 315.95C97.0592 321.04 103.919 323.32 110.529 324.22C117.139 325.12 124.359 324.74 125.059 319.6C125.719 314.7 118.729 312.35 112.259 311.47C105.789 310.59 98.4192 311 97.7492 315.9V315.95Z" fill="#95FA31"/>
<path d="M117.531 286.6C124.071 288.12 131.441 292.45 129.961 298.81C128.481 305.17 119.91 305.98 113.36 304.45C106.81 302.92 99.5206 298.51 101.021 292.06C102.521 285.61 111.311 285.15 117.531 286.6ZM102.1 292.31C100.93 297.31 107.541 300.24 114.041 301.75C120.541 303.26 127.761 303.57 128.941 298.52C130.071 293.71 123.321 290.71 116.941 289.22C110.561 287.73 103.21 287.45 102.09 292.27L102.1 292.31Z" fill="#95FA31"/>
<path d="M116.209 264.08C117.454 264.477 118.517 265.303 119.209 266.41C119.559 266.73 119.989 268.3 120.849 271.17C123.849 268.44 126.65 266.43 130.79 267.82C135.65 269.46 136.849 275.08 135.659 278.63C134.219 282.9 130.33 285.63 125.75 284.01C122.51 283.01 121.249 280.37 120.399 275.37C117.949 277.84 114.999 279.23 112.139 278.26C110.286 277.564 108.779 276.168 107.943 274.373C107.107 272.578 107.009 270.526 107.669 268.66C107.923 267.794 108.347 266.988 108.915 266.288C109.484 265.588 110.186 265.008 110.98 264.582C111.775 264.156 112.647 263.892 113.544 263.806C114.442 263.719 115.348 263.813 116.209 264.08ZM111.629 275.61C115.359 276.86 117.68 274.35 120.23 271.71C119.943 270.513 119.36 269.407 118.536 268.494C117.711 267.58 116.671 266.888 115.51 266.48C111.69 265.2 109.509 266.78 108.629 269.33C107.429 272.97 109.589 274.92 111.629 275.61ZM130.689 270.27C127.239 269.1 123.689 272.07 121.089 274.74C121.228 276.249 121.804 277.685 122.745 278.873C123.686 280.061 124.952 280.949 126.389 281.43C130.619 282.85 133.759 281.02 134.879 277.7C135.799 274.97 134.879 271.67 130.689 270.27Z" fill="#95FA31"/>
<path d="M129.43 260.81L134.01 250.29L136.07 251.19L131.5 261.71L129.43 260.81Z" fill="#95FA31"/>
<path d="M150.251 232.54C151.311 233.71 152.431 234.76 154.141 236.34L146.141 251.16L145.461 250.79C144.391 247.21 143.311 243.57 142.001 240.24C140.651 236.68 139.231 231.43 135.001 229.15C131.161 227.07 128.061 227.96 126.251 231.29C124.541 234.46 126.111 237.6 127.011 239.29L126.161 239.65L124.221 235.65C123.56 233.49 123.783 231.156 124.841 229.16C125.278 228.285 125.889 227.509 126.636 226.878C127.383 226.247 128.251 225.774 129.186 225.489C130.122 225.203 131.105 225.111 132.077 225.218C133.049 225.325 133.99 225.628 134.841 226.11C138.561 228.11 140.141 231.55 141.951 236.89L145.541 247.29L150.251 238.6C151.391 236.49 151.521 235.74 149.541 233.25L150.251 232.54Z" fill="#95FA31"/>
<path d="M154.901 208.84C160.481 212.58 165.901 219.24 162.211 224.66C158.521 230.08 150.281 227.82 144.701 224.08C139.121 220.34 133.851 213.63 137.531 208.08C141.211 202.53 149.601 205.29 154.901 208.84ZM138.451 208.74C135.591 213 140.741 218.08 146.291 221.79C151.841 225.5 158.48 228.34 161.36 224.04C164.12 219.93 158.871 214.74 153.451 211.1C148.031 207.46 141.231 204.59 138.451 208.7V208.74Z" fill="#95FA31"/>
<path d="M175.95 197.15C176.77 198.5 177.68 199.74 179.06 201.61L168.41 214.66L167.81 214.18C167.44 210.46 167.05 206.68 166.39 203.18C165.74 199.42 165.33 194.01 161.61 190.97C158.23 188.21 155.01 188.5 152.61 191.44C150.21 194.38 151.29 197.61 151.85 199.44L150.95 199.63L149.8 195.35C149.677 194.238 149.774 193.113 150.086 192.039C150.398 190.964 150.919 189.962 151.62 189.09C152.214 188.314 152.959 187.666 153.811 187.187C154.663 186.707 155.603 186.406 156.575 186.301C157.546 186.196 158.529 186.29 159.464 186.577C160.398 186.864 161.264 187.338 162.01 187.97C165.28 190.64 166.2 194.3 167.01 199.89L168.59 210.78L174.84 203.12C176.36 201.26 176.63 200.55 175.15 197.73L175.95 197.15Z" fill="#95FA31"/>
<path d="M171.35 167.4L184.89 180.75L188.22 177.36L189.62 178.74L186.29 182.13L188.58 184.39C190.97 186.75 191.51 187.08 194.58 184.39L195.06 184.86L187.06 192.93L186.58 192.46C189.45 189.08 189.31 188.54 186.85 186.11L184.52 183.82L175.82 192.64L175.11 191.93C173.59 184.23 172.01 176.2 170.76 167.93L171.35 167.4ZM183.2 182.46L172.74 172.14L172.67 172.21C173.474 178.072 174.637 183.88 176.15 189.6L183.2 182.46Z" fill="#95FA31"/>
<path d="M101.85 497.48L349.92 67.8101L597.99 497.48H101.85Z" fill="white"/>
<path d="M349.919 77.8102L589.329 492.48H110.51L349.919 77.8102ZM349.919 57.8102L341.26 72.8102L101.849 487.48L93.1895 502.48H606.649L597.99 487.48L358.579 72.8102L349.919 57.8102Z" fill="#95FA31"/>
<path d="M124.939 484.19L349.919 94.52L574.889 484.19H124.939Z" fill="white"/>
<path d="M349.92 97.5201L572.3 482.69H127.54L349.92 97.5201ZM349.92 91.5201L347.32 96.0201L124.95 481.19L122.35 485.69H577.5L574.9 481.19L352.52 96.0201L349.92 91.5201Z" fill="#95FA31"/>
<path d="M141.119 473.97L349.919 112.31L558.719 473.97H141.119Z" fill="#95FA31"/>
<mask id="mask0_253_4371" style="mask-type:luminance" maskUnits="userSpaceOnUse" x="141" y="112" width="418" height="362">
<path d="M141.119 473.97L349.919 112.31L558.729 473.97H141.119Z" fill="white"/>
</mask>
<g mask="url(#mask0_253_4371)">
<path d="M347.659 586.71H345.269H343.879C339.609 586.53 335.289 586.28 331.059 585.94L349.469 330.02C347.659 329.94 351.229 330.16 349.469 330.02L347.659 491.86V586.71ZM363.979 586.3L349.429 329.95C348.079 330.1 350.799 329.87 349.429 329.95L378.229 585.1C373.549 585.63 368.739 586.04 363.979 586.3ZM319.829 584.52C315.389 583.97 310.919 583.31 306.549 582.52L349.469 329.91C347.789 329.7 351.089 330.18 349.469 329.91L319.829 584.52ZM392.529 583.1L349.429 329.95C348.129 330.24 350.739 329.73 349.429 329.95L406.649 580.29C402.019 581.4 397.249 582.3 392.529 583.1ZM293.179 579.95C288.679 578.95 284.179 577.84 279.749 576.64L349.469 329.95C347.949 329.61 350.919 330.34 349.469 329.95L293.179 579.95ZM420.669 576.69L349.469 329.95C348.209 330.39 350.749 329.57 349.469 329.95L434.409 572.31C429.899 573.89 425.269 575.4 420.669 576.69ZM266.349 572.6C261.849 571.11 257.349 569.5 252.989 567.79L349.469 329.95C348.109 329.5 350.759 330.45 349.469 329.95L266.349 572.6ZM447.869 567.16L349.469 329.95C348.269 330.53 350.689 329.44 349.469 329.95L461.029 561.26C456.719 563.34 452.289 565.33 447.869 567.16ZM239.769 562.16C235.389 560.16 231.019 558.01 226.769 555.77L349.429 329.95C348.219 329.39 350.579 330.55 349.429 329.95L239.769 562.16ZM473.769 554.59L349.429 329.95C348.289 330.67 350.609 329.29 349.429 329.95L486.149 547.32C482.149 549.86 477.989 552.32 473.819 554.63L473.769 554.59ZM213.999 548.59C209.809 546.06 205.659 543.38 201.649 540.59L349.429 329.95C348.359 329.3 350.429 330.65 349.429 329.95L213.999 548.59ZM498.099 539.29L349.429 329.95C348.369 330.79 350.539 329.16 349.429 329.95L509.579 530.67C505.889 533.64 502.039 536.55 498.149 539.31L498.099 539.29ZM189.729 531.87C185.849 528.87 182.019 525.64 178.329 522.38L349.429 329.95C348.479 329.2 350.329 330.74 349.429 329.95L189.729 531.87ZM520.539 521.37L349.429 329.95C348.429 330.95 350.429 329.04 349.429 329.95L530.989 511.52C527.659 514.89 524.149 518.21 520.589 521.4L520.539 521.37ZM167.539 512.25C164.069 508.77 160.649 505.14 157.389 501.46L349.389 329.93C348.529 329.07 350.189 330.83 349.389 329.93L167.539 512.25ZM540.839 501.08L349.429 329.95C348.579 331 350.319 328.95 349.429 329.95L550.149 490.1C547.199 493.84 544.069 497.54 540.889 501.1L540.839 501.08ZM147.909 490.08C144.909 486.23 141.909 482.24 139.159 478.22L349.429 329.95C348.659 328.95 350.139 330.95 349.429 329.95L147.909 490.08ZM558.799 478.56L349.429 329.95C348.709 331.09 350.209 328.84 349.429 329.95L566.819 466.64C564.319 470.69 561.619 474.71 558.849 478.61L558.799 478.56ZM131.169 465.92C128.659 461.79 126.229 457.53 123.959 453.25L349.429 329.95C348.759 328.85 350.039 331.09 349.429 329.95L131.169 465.92ZM574.169 454.2L349.429 329.95C348.849 331.15 350.069 328.78 349.429 329.95L580.829 441.4C578.749 445.74 576.509 450.05 574.189 454.25L574.169 454.2ZM117.539 440.2C115.539 435.86 113.649 431.41 111.889 426.95L349.449 329.85C348.889 328.63 349.949 331.11 349.449 329.85L117.539 440.2ZM586.719 428.13L349.429 329.95C348.989 331.21 349.939 328.71 349.429 329.95L591.859 414.72C590.319 419.25 588.579 423.8 586.739 428.23L586.719 428.13ZM106.999 413.48C105.519 408.99 104.129 404.4 102.889 399.82L349.449 329.82C349.009 328.5 349.819 331.17 349.449 329.82L106.999 413.48ZM596.259 400.86L349.449 329.86C349.149 331.15 349.819 328.57 349.449 329.86L599.849 386.86C598.809 391.65 597.609 396.4 596.279 400.96L596.259 400.86ZM99.5288 386.03C98.5288 381.45 97.6687 376.77 96.9287 372.13L349.449 329.85C349.149 328.45 349.679 331.27 349.449 329.85L99.5288 386.03ZM602.649 372.74L349.449 329.85C349.299 331.18 349.669 328.53 349.449 329.85L604.649 358.47C604.139 363.33 603.429 368.13 602.669 372.84L602.649 372.74ZM95.0686 358.15C94.5786 353.51 94.1987 348.79 93.9487 344.15L349.449 329.87C349.289 328.41 349.529 331.32 349.449 329.87L95.0686 358.15ZM605.839 344.15L349.429 329.95C349.429 331.3 349.499 328.6 349.429 329.95L606.209 329.23V329.94C606.249 334.69 606.119 339.51 605.859 344.24L605.839 344.15ZM349.429 329.95L93.5488 330.1V329.93C93.5488 325.35 93.6687 320.71 93.9087 316.13L349.429 329.95C349.429 328.51 349.359 331.38 349.429 329.95ZM349.429 329.95C349.349 328.58 349.579 331.29 349.429 329.95L604.549 300.67C605.089 305.4 605.549 310.21 605.779 314.97L349.429 329.95ZM349.429 329.95L94.9988 302.1C95.4888 297.43 96.0986 292.72 96.8286 288.1L349.429 329.95C349.619 328.51 349.239 331.4 349.429 329.95ZM349.429 329.95C349.199 328.62 349.729 331.25 349.429 329.95L599.689 272.27C600.759 276.93 601.689 281.68 602.519 286.39L349.429 329.95ZM349.429 329.95L99.4287 274.21C100.429 269.59 101.539 264.95 102.759 260.41L349.449 329.95C349.099 331.3 349.769 328.55 349.429 329.95ZM349.429 329.95C349.059 328.66 349.869 331.21 349.429 329.95L591.639 244.55C593.229 249.06 594.719 253.68 596.049 258.28L349.429 329.95ZM349.429 329.95L106.829 246.76C108.319 242.24 109.949 237.76 111.679 233.3L349.429 329.95C349.899 328.63 348.969 331.22 349.429 329.95ZM349.429 329.95C348.909 328.71 350.009 331.15 349.429 329.95L580.549 217.95C582.639 222.25 584.629 226.66 586.469 231.07L349.429 329.95ZM349.429 329.95L117.309 220.04C119.309 215.67 121.469 211.31 123.709 207.04L349.429 329.95C350.019 328.74 348.849 331.11 349.429 329.95ZM349.429 329.95C348.769 328.77 350.149 331.09 349.429 329.95L566.569 192.84C569.119 196.84 571.569 201.03 573.899 205.19L349.429 329.95ZM349.429 329.95L130.939 194.4C133.449 190.24 136.119 186.12 138.869 182.12L349.469 329.96C348.749 330.99 350.129 328.86 349.429 329.95ZM349.429 329.95C348.629 328.83 350.279 331 349.429 329.95L549.909 169.4C552.909 173.11 555.799 176.96 558.569 180.84L349.429 329.95ZM349.429 329.95L147.519 170.27C150.519 166.4 153.719 162.57 156.959 158.89L349.429 329.95C350.219 328.98 348.669 330.86 349.429 329.95ZM349.429 329.95C348.519 328.95 350.429 330.9 349.429 329.95L530.679 148.05C534.049 151.42 537.379 154.92 540.569 158.48L349.429 329.95ZM349.429 329.95L167.069 148.1C170.539 144.62 174.159 141.2 177.839 137.92L349.429 329.92C348.559 330.75 350.319 329.09 349.429 329.95ZM349.429 329.95C348.429 329.05 350.489 330.79 349.429 329.95L509.229 128.95C512.969 131.95 516.669 135.04 520.229 138.22L349.429 329.95ZM349.429 329.95L189.249 128.4C193.099 125.4 197.099 122.4 201.129 119.63L349.429 329.95C350.429 329.19 348.429 330.64 349.429 329.95ZM349.429 329.95C348.319 329.16 350.579 330.67 349.429 329.95L485.749 112.32C489.749 114.85 493.809 117.53 497.749 120.32L349.429 329.95ZM349.429 329.95L213.429 111.62C217.579 109.1 221.859 106.62 226.139 104.39L349.429 329.95C350.549 329.29 348.339 330.54 349.429 329.95ZM349.429 329.95C348.249 329.3 350.629 330.52 349.429 329.95L460.519 98.4C464.829 100.47 469.149 102.69 473.359 105.01L349.429 329.95ZM349.429 329.95L239.129 97.9498C243.459 95.9498 247.919 94.0599 252.369 92.2999L349.429 329.93C348.209 330.4 350.689 329.4 349.429 329.95ZM349.429 329.95C348.179 329.43 350.689 330.38 349.429 329.95L433.769 87.3702C438.289 88.9402 442.829 90.6701 447.269 92.5001L349.429 329.95ZM349.429 329.95L265.679 87.4899C270.089 86.0299 274.619 84.6498 279.119 83.4098L349.429 329.95C350.839 329.49 348.049 330.34 349.429 329.95ZM349.429 329.95C348.149 329.58 350.729 330.24 349.429 329.95L405.999 79.4498C410.679 80.4998 415.379 81.7001 419.999 83.0201L349.429 329.95ZM349.429 329.95L292.539 80.0699C296.929 79.0699 301.419 78.1998 305.889 77.4298L349.429 329.95C351.019 329.6 347.869 330.22 349.429 329.95ZM349.429 329.95C348.089 329.72 350.769 330.09 349.429 329.95L377.599 74.7101C382.339 75.2301 387.119 75.8901 391.829 76.7101L349.429 329.95ZM349.429 329.95L319.219 75.4C323.559 74.85 327.989 74.3999 332.399 74.0299L349.469 329.91C347.729 330.09 351.159 329.73 349.429 329.95ZM349.429 329.95C348.109 329.88 350.749 329.95 349.429 329.95L350.559 172.27L346.279 73.2701L347.369 73.2198L348.959 73.17H350.559C355.149 73.17 359.809 73.2902 364.389 73.5402L349.429 329.95Z" fill="white"/>
</g>
<path d="M349.92 118.52L554.43 472.73H145.43L349.93 118.52M349.93 108.59L345.63 116.04L141.13 470.25L136.83 477.69H563.03L558.74 470.25L354.23 116.04L349.93 108.59Z" fill="#95FA31"/>
<path d="M326.99 455.72V322.59H269.76V276.73H430.08V322.59H372.85V455.72H326.99Z" fill="white"/>
<path d="M425.59 281.23V318.09H368.35V451.22H331.49V318.09H274.26V281.23H425.59ZM434.59 272.23H265.26V327.09H322.49V460.22H377.35V327.09H434.59V272.23Z" fill="#95FA31"/>
</g>
<defs>
<clipPath id="clip0_253_4371">
<rect width="699.84" height="699.84" fill="white"/>
</clipPath>
</defs>
</svg>
