<svg width="30" height="30" viewBox="0 0 30 30" fill="none" xmlns="http://www.w3.org/2000/svg">
<path d="M26.7755 12.6508C26.6326 11.8955 26.1693 11.407 25.5759 11.407H25.473C23.8695 11.407 22.5653 10.1028 22.5653 8.49891C22.5653 7.99223 22.8084 7.41449 22.8178 7.39153C23.1137 6.72583 22.8867 5.91005 22.2882 5.49135L19.2794 3.81606L19.2351 3.79441C18.6332 3.53338 17.8093 3.70046 17.3605 4.16805C17.0357 4.50304 15.916 5.45823 15.0615 5.45823C14.196 5.45823 13.0738 4.48389 12.7473 4.14254C12.2993 3.67153 11.4839 3.49471 10.8752 3.75529L7.75924 5.46248L7.71247 5.49225C7.11393 5.90927 6.88608 6.72502 7.18027 7.38817C7.19044 7.41242 7.43447 7.98545 7.43447 8.49894C7.43447 10.1029 6.13027 11.407 4.52683 11.407H4.40526C3.83052 11.407 3.36716 11.8955 3.22434 12.6509C3.21369 12.704 2.97266 13.9823 2.97266 15.0072C2.97266 16.0308 3.21369 17.3086 3.22434 17.3614C3.36716 18.1172 3.83052 18.6061 4.42394 18.6061H4.52683C6.13027 18.6061 7.43447 19.9103 7.43447 21.5137C7.43447 22.0238 7.19047 22.5994 7.18111 22.6215C6.88611 23.2885 7.11228 24.103 7.70908 24.5196L10.6609 26.1758L10.706 26.1962C11.3164 26.4649 12.142 26.2897 12.5883 25.8017C13.0006 25.3562 14.1178 24.4311 14.9382 24.4311C15.8275 24.4311 16.9728 25.4667 17.3027 25.8306C17.607 26.1638 18.0746 26.3646 18.5533 26.3646C18.7769 26.3646 18.9885 26.3203 19.1824 26.237L22.2431 24.5502L22.2882 24.5213C22.8867 24.103 23.1145 23.2885 22.8196 22.6249C22.8093 22.6003 22.5653 22.0272 22.5653 21.5138C22.5653 19.9103 23.8695 18.6061 25.473 18.6061H25.5929C26.1684 18.6061 26.6326 18.1172 26.7755 17.3614C26.7857 17.3087 27.0271 16.0308 27.0271 15.0072C27.0271 13.9823 26.7857 12.704 26.7755 12.6508ZM25.2826 15.0072C25.2826 15.6695 25.1508 16.5205 25.0904 16.8759C22.6852 17.0731 20.8207 19.083 20.8207 21.5137C20.8207 22.1998 21.0384 22.857 21.154 23.1593L18.5431 24.6012C18.4147 24.4669 18.0355 24.0842 17.5195 23.6999C16.6131 23.0283 15.7442 22.6852 14.9382 22.6852C14.139 22.6852 13.277 23.0198 12.3749 23.6829C11.8614 24.057 11.4873 24.4294 11.3564 24.5671L8.84493 23.161C8.96736 22.8434 9.17908 22.1947 9.17908 21.5137C9.17908 19.083 7.31461 17.0731 4.91027 16.8759C4.84905 16.5205 4.71726 15.6695 4.71726 15.0072C4.71726 14.3436 4.84905 13.4921 4.91027 13.1367C7.31461 12.9399 9.17908 10.9296 9.17908 8.49894C9.17908 7.81667 8.96143 7.15735 8.84579 6.85552L11.5214 5.38511C11.6378 5.50161 12.0196 5.87524 12.5416 6.24678C13.4309 6.88145 14.2777 7.20283 15.0616 7.20283C15.8378 7.20283 16.6786 6.88742 17.562 6.26507C18.0882 5.89524 18.4691 5.5267 18.5796 5.42255L21.1548 6.85297C21.0384 7.1531 20.8207 7.81028 20.8207 8.49894C20.8207 10.9296 22.6852 12.9399 25.0904 13.1367C25.1508 13.4929 25.2826 14.3478 25.2826 15.0072Z" fill="white"/>
<path d="M14.9479 10.7119C12.5887 10.7119 10.6689 12.6317 10.6689 14.9909C10.6689 17.3506 12.5887 19.2696 14.9479 19.2696C17.3072 19.2696 19.227 17.3506 19.227 14.9909C19.227 12.6317 17.3072 10.7119 14.9479 10.7119ZM17.4824 14.9909C17.4824 16.3882 16.3457 17.5249 14.9479 17.5249C13.5502 17.5249 12.4144 16.3882 12.4144 14.9909C12.4144 13.5945 13.5502 12.4574 14.9479 12.4574C16.3457 12.4574 17.4824 13.5945 17.4824 14.9909Z" fill="white"/>
</svg>
