<svg width="40" height="40" viewBox="0 0 40 40" fill="none" xmlns="http://www.w3.org/2000/svg">
<path d="M20.0004 2.22266C10.2227 2.22266 2.22266 10.2227 2.22266 20.0004C2.22266 29.7782 10.2227 37.7782 20.0004 37.7782C29.7782 37.7782 37.7782 29.7782 37.7782 20.0004C37.7782 10.2227 29.7782 2.22266 20.0004 2.22266ZM20.0004 35.3338C11.556 35.3338 4.6671 28.4449 4.6671 20.0004C4.6671 11.556 11.556 4.6671 20.0004 4.6671C28.4449 4.6671 35.3338 11.556 35.3338 20.0004C35.1115 28.4449 28.4449 35.1115 20.0004 35.3338Z" fill="#A9A9A9"/>
<path d="M20 38C10 38 2 30 2 20C2 10 10 2 20 2C29.7778 2 38 10 38 20C38 30 30 38 20 38ZM20 2.44444C10.2222 2.44444 2.44444 10.2222 2.44444 20C2.44444 29.7778 10.4444 37.5556 20 37.5556C29.7778 37.5556 37.5556 29.5556 37.5556 20C37.5556 10.2222 29.7778 2.44444 20 2.44444ZM20 35.3333C11.5556 35.3333 4.66667 28.4444 4.66667 20C4.66667 11.5556 11.5556 4.66667 20 4.66667C28.4444 4.66667 35.3333 11.5556 35.3333 20C35.3333 28.4444 28.4444 35.3333 20 35.3333ZM20 4.88889C11.7778 4.88889 4.88889 11.5556 4.88889 20C4.88889 28.4444 11.5556 35.1111 20 35.1111C28.2222 35.1111 35.1111 28.4444 35.1111 20C35.1111 11.7778 28.2222 4.88889 20 4.88889Z" fill="#A9A9A9"/>
<path d="M20.0004 9.55469C16.8893 9.55469 14.2227 11.9991 14.2227 15.3325C14.2227 15.9991 14.8893 16.6658 15.556 16.6658C16.2227 16.6658 16.8893 15.9991 16.8893 15.3325C16.8893 13.5547 18.2227 12.2214 20.0004 12.2214C21.7782 12.2214 23.1115 13.5547 23.1115 15.3325C23.1115 15.9991 22.2227 16.888 21.3338 17.7769C19.7782 18.888 18.8893 20.4436 18.6671 22.4436V24.2214C18.6671 24.888 19.3338 25.5547 20.0004 25.5547C20.6671 25.5547 21.3338 24.888 21.3338 24.2214V22.4436C21.3338 21.5547 22.2227 20.6658 23.3338 19.7769C24.6671 18.6658 25.556 17.1102 25.7782 15.5547C25.7782 12.2214 23.1115 9.55469 20.0004 9.55469Z" fill="#A9A9A9"/>
<path d="M20 25.7769C19.1111 25.7769 18.4444 25.1102 18.4444 24.2214V22.4436C18.6667 20.4436 19.7778 18.888 21.1111 17.7769C21.7778 17.1102 22.8889 15.9991 22.8889 15.5547C22.8889 13.9991 21.5556 12.6658 20 12.6658C19.1111 12.4436 18.4444 12.6658 18 13.3325C17.3333 13.7769 17.1111 14.4436 17.1111 15.3325C17.1111 16.2214 16.4444 16.888 15.5556 16.888C14.6667 16.888 14 16.2214 14 15.3325C14 11.9991 16.6667 9.55469 19.7778 9.55469C23.1111 9.55469 25.7778 12.2214 25.7778 15.5547C25.5556 17.3325 24.6667 18.888 23.1111 19.9991C22.4444 20.6658 21.5556 21.5547 21.5556 22.4436V24.2214C21.5556 25.1102 20.8889 25.7769 20 25.7769ZM20 11.9991C21.7778 11.9991 23.3333 13.5547 23.3333 15.3325C23.3333 15.9991 22.4444 16.888 21.5556 17.7769C20 18.888 19.1111 20.6658 18.8889 22.4436V24.2214C18.8889 24.888 19.3333 25.3325 20 25.3325C20.6667 25.3325 21.1111 24.888 21.1111 24.2214V22.4436C21.1111 21.5547 22.2222 20.4436 23.1111 19.5547C24.4444 18.4436 25.3333 17.1102 25.5556 15.3325C25.5556 12.2214 23.1111 9.77691 20 9.77691C16.8889 9.77691 14.4444 12.2214 14.4444 15.3325C14.4444 15.9991 14.8889 16.4436 15.5556 16.4436C16.2222 16.4436 16.6667 15.9991 16.6667 15.3325C16.6667 14.4436 16.8889 13.5547 17.5556 13.1102C18.2222 12.4436 19.1111 11.9991 20 11.9991Z" fill="#A9A9A9"/>
<path d="M18 29.5547C18 30.6658 18.8889 31.5547 20 31.5547C21.1111 31.5547 22 30.6658 22 29.5547C22 28.4436 21.1111 27.5547 20 27.5547C18.8889 27.5547 18 28.4436 18 29.5547Z" fill="#A9A9A9"/>
<path d="M19.9996 31.7784C18.8885 31.7784 17.7773 30.8895 17.7773 29.5562C17.7773 28.2229 18.6662 27.334 19.9996 27.334C21.3329 27.334 22.2218 28.2229 22.2218 29.5562C22.2218 30.8895 21.1107 31.7784 19.9996 31.7784ZM19.9996 27.7784C19.1107 27.7784 18.2218 28.6673 18.2218 29.5562C18.2218 30.4451 19.1107 31.334 19.9996 31.334C20.8885 31.334 21.7773 30.4451 21.7773 29.5562C21.7773 28.6673 20.8885 27.7784 19.9996 27.7784Z" fill="#A9A9A9"/>
</svg>
