<svg width="26" height="26" viewBox="0 0 26 26" fill="none" xmlns="http://www.w3.org/2000/svg">
<path d="M25.6081 16.1448C23.8719 23.1091 16.8181 27.3475 9.85295 25.6108C2.89069 23.8746 -1.34768 16.8204 0.389331 9.85657C2.12481 2.89145 9.17857 -1.34724 16.1416 0.389004C23.1063 2.12525 27.3444 9.18022 25.608 16.1449L25.6081 16.1448H25.6081Z" fill="#50AF95"/>
<path fill-rule="evenodd" clip-rule="evenodd" d="M14.6447 14.4741C14.5527 14.481 14.0778 14.5093 13.0184 14.5093C12.1758 14.5093 11.5775 14.484 11.3677 14.4741C8.11133 14.3308 5.68077 13.764 5.68077 13.0853C5.68077 12.4066 8.11133 11.8405 11.3677 11.695V13.9095C11.5806 13.9249 12.1904 13.9609 13.033 13.9609C14.0441 13.9609 14.5505 13.9187 14.6416 13.9103V11.6965C17.891 11.8413 20.3162 12.4081 20.3162 13.0853C20.3162 13.7625 17.8918 14.3293 14.6416 14.4733L14.6447 14.4741ZM14.6447 11.4675V9.4858H19.1795V6.46387H6.83285V9.4858H11.3669V11.4667C7.6816 11.636 4.91016 12.366 4.91016 13.2408C4.91016 14.1156 7.6816 14.8448 11.3669 15.0149V21.3652H14.6439V15.0126C18.3208 14.8433 21.0876 14.1141 21.0876 13.24C21.0876 12.366 18.3231 11.6368 14.6439 11.4667L14.6447 11.4675Z" fill="white"/>
</svg>
