<svg width="40" height="40" viewBox="0 0 40 40" fill="none" xmlns="http://www.w3.org/2000/svg">
<path d="M1.62012 19.8802C1.62012 20.7602 2.34012 21.4802 3.22012 21.4802H9.86012L7.90012 23.4402C7.28012 24.0602 7.28012 25.0802 7.90012 25.7002C8.22012 26.0202 8.62012 26.1602 9.04012 26.1602C9.46012 26.1602 9.86012 26.0002 10.1801 25.7002L14.8601 21.0002V20.9802L14.9601 20.8802C14.9801 20.8602 14.9801 20.8402 15.0001 20.8202C15.0201 20.8002 15.0401 20.7802 15.0401 20.7602C15.0601 20.7402 15.0601 20.7202 15.0801 20.6802C15.1001 20.6602 15.1001 20.6402 15.1201 20.6202C15.1401 20.6002 15.1401 20.5802 15.1601 20.5402C15.1801 20.5202 15.1801 20.5002 15.2001 20.4802C15.2001 20.4602 15.2201 20.4402 15.2201 20.4002C15.2201 20.3802 15.2401 20.3602 15.2401 20.3202C15.2401 20.3002 15.2601 20.2802 15.2601 20.2402C15.2601 20.2202 15.2801 20.1802 15.2801 20.1602C15.2801 20.1402 15.2801 20.1002 15.3001 20.0802V20.0202C15.3201 19.9202 15.3201 19.8002 15.3001 19.7002V19.6402C15.3001 19.6202 15.3001 19.5802 15.2801 19.5602C15.2801 19.5402 15.2601 19.5002 15.2601 19.4802C15.2601 19.4602 15.2401 19.4402 15.2401 19.4002C15.2401 19.3802 15.2201 19.3402 15.2201 19.3202C15.2201 19.3002 15.2001 19.2802 15.2001 19.2402C15.2001 19.2202 15.1801 19.2002 15.1601 19.1802C15.1401 19.1602 15.1401 19.1402 15.1201 19.1002C15.1001 19.0802 15.1001 19.0602 15.0801 19.0402C15.0601 19.0202 15.0601 19.0002 15.0401 18.9802C15.0201 18.9602 15.0001 18.9402 14.9801 18.9002C14.9601 18.8802 14.9601 18.8602 14.9401 18.8402C14.9001 18.8002 14.8801 18.7602 14.8401 18.7202L10.1601 14.0402C9.54012 13.4202 8.52012 13.4202 7.90012 14.0402C7.28012 14.6602 7.28012 15.6802 7.90012 16.3002L9.86012 18.2602H3.22012C2.34012 18.2802 1.62012 18.9802 1.62012 19.8802Z" fill="url(#paint0_linear_1857_12560)"/>
<path d="M38.8005 19.8802C38.8005 17.3402 37.0205 15.2002 34.6405 14.6802V2.8002C34.6405 1.9202 33.9205 1.2002 33.0405 1.2002H3.08047C2.20047 1.2002 1.48047 1.9202 1.48047 2.8002V11.1602C1.48047 12.0402 2.20047 12.7602 3.08047 12.7602C3.96047 12.7602 4.68047 12.0402 4.68047 11.1602V4.4002H31.4405V14.5402H28.3805C26.9605 14.5402 25.6205 15.1002 24.6005 16.1002C23.6005 17.1002 23.0405 18.4402 23.0405 19.8802C23.0405 22.8202 25.4405 25.2202 28.3805 25.2202H31.4405V35.3602H4.68047V28.6002C4.68047 27.7202 3.96047 27.0002 3.08047 27.0002C2.20047 27.0002 1.48047 27.7202 1.48047 28.6002V36.9602C1.48047 37.8402 2.20047 38.5602 3.08047 38.5602H33.0405C33.9205 38.5602 34.6405 37.8402 34.6405 36.9602V25.1002C35.6205 24.8802 36.5205 24.4002 37.2405 23.6602C38.2405 22.6402 38.8005 21.3002 38.8005 19.8802ZM34.9805 21.3802C34.5805 21.7802 34.0405 22.0002 33.4805 22.0002H28.3805C27.2005 22.0002 26.2405 21.0402 26.2405 19.8602C26.2405 19.3002 26.4605 18.7602 26.8605 18.3602C27.2605 17.9602 27.8005 17.7402 28.3605 17.7402H33.4605C34.6405 17.7402 35.6005 18.7002 35.6005 19.8802C35.6005 20.4402 35.3805 20.9802 34.9805 21.3802Z" fill="url(#paint1_linear_1857_12560)"/>
<defs>
<linearGradient id="paint0_linear_1857_12560" x1="8.46762" y1="13.5752" x2="8.46762" y2="26.1602" gradientUnits="userSpaceOnUse">
<stop stop-color="#F6F122"/>
<stop offset="1" stop-color="#96FB31"/>
</linearGradient>
<linearGradient id="paint1_linear_1857_12560" x1="20.1405" y1="1.2002" x2="20.1405" y2="38.5602" gradientUnits="userSpaceOnUse">
<stop stop-color="#F6F122"/>
<stop offset="1" stop-color="#96FB31"/>
</linearGradient>
</defs>
</svg>
