<svg width="30" height="30" viewBox="0 0 30 30" fill="none" xmlns="http://www.w3.org/2000/svg">
<path d="M11.5625 3.125H24.6875C25.2677 3.125 25.8241 3.35547 26.2343 3.7657C26.6445 4.17594 26.875 4.73234 26.875 5.3125V18.4375C26.875 19.0177 26.6445 19.5741 26.2343 19.9843C25.8241 20.3945 25.2677 20.625 24.6875 20.625H11.5625C10.9823 20.625 10.4259 20.3945 10.0157 19.9843C9.60547 19.5741 9.375 19.0177 9.375 18.4375V5.3125C9.375 4.73234 9.60547 4.17594 10.0157 3.7657C10.4259 3.35547 10.9823 3.125 11.5625 3.125ZM11.5625 5C11.4796 5 11.4001 5.03292 11.3415 5.09153C11.2829 5.15013 11.25 5.22962 11.25 5.3125V18.4375C11.25 18.4785 11.2581 18.5192 11.2738 18.5571C11.2895 18.595 11.3125 18.6295 11.3415 18.6585C11.3705 18.6875 11.405 18.7105 11.4429 18.7262C11.4808 18.7419 11.5215 18.75 11.5625 18.75H24.6875C24.7704 18.75 24.8499 18.7171 24.9085 18.6585C24.9671 18.5999 25 18.5204 25 18.4375V5.3125C25 5.22962 24.9671 5.15013 24.9085 5.09153C24.8499 5.03292 24.7704 5 24.6875 5H11.5625ZM18.75 22.5C18.75 22.2514 18.8488 22.0129 19.0246 21.8371C19.2004 21.6613 19.4389 21.5625 19.6875 21.5625C19.9361 21.5625 20.1746 21.6613 20.3504 21.8371C20.5262 22.0129 20.625 22.2514 20.625 22.5V24.6875C20.625 25.2677 20.3945 25.8241 19.9843 26.2343C19.5741 26.6445 19.0177 26.875 18.4375 26.875H5.3125C4.73234 26.875 4.17594 26.6445 3.7657 26.2343C3.35547 25.8241 3.125 25.2677 3.125 24.6875V11.5625C3.125 10.9823 3.35547 10.4259 3.7657 10.0157C4.17594 9.60547 4.73234 9.375 5.3125 9.375H7.5C7.74864 9.375 7.9871 9.47377 8.16291 9.64959C8.33873 9.8254 8.4375 10.0639 8.4375 10.3125C8.4375 10.5611 8.33873 10.7996 8.16291 10.9754C7.9871 11.1512 7.74864 11.25 7.5 11.25H5.3125C5.22962 11.25 5.15013 11.2829 5.09153 11.3415C5.03292 11.4001 5 11.4796 5 11.5625V24.6875C5 24.7704 5.03292 24.8499 5.09153 24.9085C5.15013 24.9671 5.22962 25 5.3125 25H18.4375C18.5204 25 18.5999 24.9671 18.6585 24.9085C18.7171 24.8499 18.75 24.7704 18.75 24.6875V22.5Z" fill="white"/>
</svg>
