<svg width="24" height="24" viewBox="0 0 24 24" fill="none" xmlns="http://www.w3.org/2000/svg">
<path d="M18.4161 12.2309L11.7852 5.77428C11.6386 5.63331 11.5221 5.46549 11.4423 5.2805C11.3626 5.09551 11.3212 4.89698 11.3206 4.69635C11.3199 4.49572 11.36 4.29695 11.4386 4.11147C11.5171 3.92599 11.6326 3.75747 11.7783 3.6156C11.924 3.47374 12.097 3.36132 12.2875 3.28484C12.478 3.20835 12.6821 3.1693 12.8882 3.16993C13.0942 3.17056 13.2981 3.21086 13.4881 3.28851C13.6781 3.36616 13.8504 3.47963 13.9952 3.62238L21.7308 11.1547C22.0238 11.44 22.1885 11.8271 22.1885 12.2306C22.1885 12.6342 22.0238 13.0212 21.7308 13.3066L13.9957 20.8371C13.8506 20.9785 13.6784 21.0907 13.4888 21.1672C13.2992 21.2437 13.0959 21.2831 12.8907 21.2831C12.6854 21.2831 12.4822 21.2437 12.2926 21.1672C12.103 21.0907 11.9307 20.9785 11.7857 20.8371C11.4929 20.5516 11.3284 20.1646 11.3284 19.7612C11.3284 19.3577 11.4929 18.9707 11.7857 18.6852L18.4161 12.2309Z" fill="url(#paint0_linear_2648_3618)"/>
<path d="M8.90584 12.2276L2.27546 5.77335C2.12885 5.63243 2.01232 5.46468 1.93257 5.27975C1.85283 5.09482 1.81144 4.89637 1.81079 4.69581C1.81015 4.49525 1.85025 4.29655 1.9288 4.11114C2.00735 3.92572 2.1228 3.75726 2.2685 3.61544C2.41419 3.47363 2.58726 3.36126 2.77775 3.2848C2.96823 3.20834 3.17237 3.1693 3.37841 3.16993C3.58446 3.17056 3.78834 3.21085 3.97833 3.28847C4.16831 3.36609 4.34066 3.47952 4.48543 3.62222L12.221 11.1518C12.5141 11.4371 12.6787 11.824 12.6787 12.2274C12.6787 12.6308 12.5141 13.0177 12.221 13.303L4.48589 20.8308C4.34111 20.9735 4.16877 21.087 3.97878 21.1646C3.7888 21.2422 3.58491 21.2825 3.37887 21.2831C3.17282 21.2838 2.96869 21.2447 2.7782 21.1683C2.58772 21.0918 2.41465 20.9794 2.26895 20.8376C2.12326 20.6958 2.00781 20.5273 1.92926 20.3419C1.85071 20.1565 1.8106 19.9578 1.81125 19.7572C1.8119 19.5567 1.85328 19.3582 1.93303 19.1733C2.01278 18.9884 2.12931 18.8206 2.27592 18.6797L8.90584 12.2276Z" fill="url(#paint1_linear_2648_3618)"/>
<defs>
<linearGradient id="paint0_linear_2648_3618" x1="16.7545" y1="3.16992" x2="16.7545" y2="21.2831" gradientUnits="userSpaceOnUse">
<stop stop-color="#F6F022"/>
<stop offset="1" stop-color="#95FA31"/>
</linearGradient>
<linearGradient id="paint1_linear_2648_3618" x1="7.24475" y1="3.16992" x2="7.24475" y2="21.2831" gradientUnits="userSpaceOnUse">
<stop stop-color="#F6F022"/>
<stop offset="1" stop-color="#95FA31"/>
</linearGradient>
</defs>
</svg>
