<svg width="41" height="40" viewBox="0 0 41 40" fill="none" xmlns="http://www.w3.org/2000/svg">
<path d="M39.901 24.8381C37.2299 35.5525 26.378 42.0731 15.6623 39.4012C4.95113 36.7301 -1.56944 25.8775 1.10288 15.1639C3.77285 4.44838 14.6248 -2.07268 25.3371 0.598468C36.052 3.26961 42.5722 14.1234 39.9007 24.8383L39.9009 24.8381H39.901Z" fill="#F7931A"/>
<path fill-rule="evenodd" clip-rule="evenodd" d="M29.3207 17.1506C29.7188 14.489 27.6924 13.0583 24.9216 12.1039L25.8204 8.49857L23.6258 7.95171L22.7507 11.4621C22.1738 11.3182 21.5813 11.1826 20.9924 11.0482L21.8738 7.51463L19.6805 6.96777L18.7811 10.5719C18.3036 10.4632 17.8347 10.3558 17.3797 10.2426L17.3823 10.2312L14.3558 9.47547L13.7719 11.8195C13.7719 11.8195 15.4002 12.1928 15.3659 12.2157C16.2546 12.4375 16.4153 13.0258 16.3886 13.4922L15.3647 17.5995C15.4259 17.615 15.5053 17.6375 15.5929 17.6727L15.5291 17.6568C15.475 17.6432 15.4187 17.6291 15.3609 17.6153L13.9257 23.3691C13.8171 23.6391 13.5414 24.0443 12.9201 23.8904C12.9421 23.9223 11.325 23.4923 11.325 23.4923L10.2354 26.0045L13.0914 26.7165C13.4041 26.7949 13.7132 26.8755 14.0191 26.9552C14.2329 27.011 14.4451 27.0663 14.6561 27.1202L13.7479 30.7669L15.94 31.3138L16.8394 27.7058C17.4383 27.8684 18.0194 28.0183 18.5884 28.1597L17.6921 31.7506L19.8868 32.2975L20.7949 28.6577C24.5373 29.3659 27.3512 29.0804 28.5357 25.6954C29.4901 22.9701 28.4882 21.3982 26.5193 20.3731C27.9533 20.0423 29.0335 19.0992 29.3215 17.1509L29.3208 17.1504L29.3207 17.1506ZM24.3063 24.1819C23.684 26.6823 19.7702 25.6486 17.9795 25.1756C17.8184 25.1331 17.6745 25.0951 17.5518 25.0646L18.7569 20.2334C18.9066 20.2707 19.0894 20.3118 19.2966 20.3582C21.1488 20.7739 24.9438 21.6256 24.3064 24.1819H24.3063ZM19.6681 18.116C21.161 18.5144 24.4178 19.3836 24.985 17.1111H24.9852C25.5644 14.7868 22.3993 14.0861 20.8535 13.7439C20.6796 13.7054 20.5262 13.6714 20.4009 13.6402L19.3083 18.0218C19.4114 18.0475 19.5325 18.0798 19.6681 18.116Z" fill="white"/>
</svg>
