<svg width="40" height="40" viewBox="0 0 40 40" fill="none" xmlns="http://www.w3.org/2000/svg">
<path d="M39.3971 24.8381C36.726 35.5525 25.8741 42.0731 15.1584 39.4012C4.44722 36.7301 -2.07335 25.8775 0.598971 15.1639C3.26894 4.44838 14.1209 -2.07268 24.8332 0.598468C35.5481 3.26961 42.0683 14.1234 39.3968 24.8383L39.397 24.8381H39.3971Z" fill="#F3BA2F"/>
<path fill-rule="evenodd" clip-rule="evenodd" d="M20.0003 12.6929L14.8214 17.8718L14.8215 17.8716L11.8083 14.8583L20.0003 6.66626L28.1949 14.8607L25.1816 17.874L20.0003 12.6929ZM9.68043 16.9856L6.66699 19.9995L9.68022 23.0123L12.6937 19.9988L9.68043 16.9856ZM14.8214 22.1277L20.0003 27.3063L25.1815 22.1252L28.1965 25.137L28.195 25.1386L20.0003 33.3329L11.8083 25.1409L11.804 25.1367L14.8214 22.1277ZM30.3204 16.9875L27.307 20.001L30.3203 23.0142L33.3336 20.0008L30.3204 16.9875Z" fill="white"/>
<path d="M23.0559 19.9984H23.0572L19.9997 16.9407L17.7398 19.2L17.4802 19.4597L16.9447 19.9953L16.9404 19.9994L16.9447 20.0038L19.9997 23.0593L23.0574 20.0016L23.0589 19.9999L23.0562 19.9984" fill="white"/>
</svg>
