<svg width="41" height="40" viewBox="0 0 41 40" fill="none" xmlns="http://www.w3.org/2000/svg">
<circle cx="20.5" cy="20" r="20" fill="black"/>
<path d="M12.8977 24.7382C13.0363 24.5996 13.2269 24.5188 13.429 24.5188H31.7581C32.0931 24.5188 32.2605 24.923 32.0238 25.1598L28.403 28.7806C28.2644 28.9192 28.0738 29 27.8717 29H9.54254C9.2076 29 9.04013 28.5958 9.2769 28.359L12.8977 24.7382Z" fill="url(#paint0_linear_1429_18332)"/>
<path d="M12.8977 11.2194C13.0421 11.0808 13.2326 11 13.429 11H31.7581C32.0931 11 32.2605 11.4042 32.0238 11.641L28.403 15.2618C28.2644 15.4004 28.0738 15.4812 27.8717 15.4812H9.54254C9.2076 15.4812 9.04013 15.077 9.2769 14.8402L12.8977 11.2194Z" fill="url(#paint1_linear_1429_18332)"/>
<path d="M28.403 17.9355C28.2644 17.7969 28.0738 17.7161 27.8717 17.7161H9.54254C9.2076 17.7161 9.04013 18.1203 9.2769 18.3571L12.8977 21.9779C13.0363 22.1164 13.2269 22.1973 13.429 22.1973H31.7581C32.0931 22.1973 32.2605 21.7931 32.0238 21.5563L28.403 17.9355Z" fill="url(#paint2_linear_1429_18332)"/>
<defs>
<linearGradient id="paint0_linear_1429_18332" x1="-32.2611" y1="7.59961" x2="-32.7488" y2="32.1393" gradientUnits="userSpaceOnUse">
<stop stop-color="#00FFA3"/>
<stop offset="1" stop-color="#DC1FFF"/>
</linearGradient>
<linearGradient id="paint1_linear_1429_18332" x1="-37.8078" y1="4.70375" x2="-38.2954" y2="29.2435" gradientUnits="userSpaceOnUse">
<stop stop-color="#00FFA3"/>
<stop offset="1" stop-color="#DC1FFF"/>
</linearGradient>
<linearGradient id="paint2_linear_1429_18332" x1="-35.0521" y1="6.14243" x2="-35.5398" y2="30.6822" gradientUnits="userSpaceOnUse">
<stop stop-color="#00FFA3"/>
<stop offset="1" stop-color="#DC1FFF"/>
</linearGradient>
</defs>
</svg>
