<svg width="40" height="40" viewBox="0 0 40 40" fill="none" xmlns="http://www.w3.org/2000/svg">
<path d="M10.3368 18.6737C5.78947 18.6737 2 14.8842 2 10.3368C2 5.78947 5.78947 2 10.3368 2C14.8842 2 18.6737 5.78947 18.6737 10.3368C18.6737 14.8842 14.8842 18.6737 10.3368 18.6737ZM10.3368 5.78947C7.87368 5.78947 5.78947 7.87368 5.78947 10.3368C5.78947 12.8 7.87368 14.8842 10.3368 14.8842C12.8 14.8842 14.8842 12.8 14.8842 10.3368C14.8842 7.87368 12.8 5.78947 10.3368 5.78947ZM29.6632 18.6737C25.1158 18.6737 21.3263 14.8842 21.3263 10.3368C21.3263 5.78947 25.1158 2 29.6632 2C34.2105 2 38 5.78947 38 10.3368C38 14.8842 34.2105 18.6737 29.6632 18.6737ZM29.6632 5.78947C27.2 5.78947 25.1158 7.87368 25.1158 10.3368C25.1158 12.8 27.2 14.8842 29.6632 14.8842C32.1263 14.8842 34.2105 12.8 34.2105 10.3368C34.2105 7.87368 32.1263 5.78947 29.6632 5.78947ZM29.6632 38C25.1158 38 21.3263 34.2105 21.3263 29.6632C21.3263 25.1158 25.1158 21.3263 29.6632 21.3263C34.2105 21.3263 38 25.1158 38 29.6632C38 34.2105 34.2105 38 29.6632 38ZM29.6632 25.1158C27.2 25.1158 25.1158 27.2 25.1158 29.6632C25.1158 32.1263 27.2 34.2105 29.6632 34.2105C32.1263 34.2105 34.2105 32.1263 34.2105 29.6632C34.2105 27.2 32.1263 25.1158 29.6632 25.1158ZM10.3368 38C5.78947 38 2 34.2105 2 29.6632C2 25.1158 5.78947 21.3263 10.3368 21.3263C14.8842 21.3263 18.6737 25.1158 18.6737 29.6632C18.6737 34.2105 14.8842 38 10.3368 38ZM10.3368 25.1158C7.87368 25.1158 5.78947 27.2 5.78947 29.6632C5.78947 32.1263 7.87368 34.2105 10.3368 34.2105C12.8 34.2105 14.8842 32.1263 14.8842 29.6632C14.8842 27.2 12.8 25.1158 10.3368 25.1158Z" fill="white"/>
</svg>
