<svg width="40" height="40" viewBox="0 0 40 40" fill="none" xmlns="http://www.w3.org/2000/svg">
<path d="M39.3971 24.8381C36.726 35.5525 25.8741 42.0731 15.1584 39.4012C4.44722 36.7301 -2.07335 25.8775 0.598971 15.1639C3.26894 4.44838 14.1209 -2.07268 24.8332 0.598468C35.5481 3.26961 42.0683 14.1234 39.3968 24.8383L39.397 24.8381H39.3971Z" fill="#C1C1C1"/>
<path fill-rule="evenodd" clip-rule="evenodd" d="M20.0003 12.6932L14.8214 17.8721L14.8215 17.8718L11.8083 14.8585L20.0003 6.6665L28.1949 14.861L25.1816 17.8743L20.0003 12.6932ZM9.68043 16.9858L6.66699 19.9997L9.68022 23.0125L12.6937 19.9991L9.68043 16.9858ZM14.8214 22.1279L20.0003 27.3065L25.1815 22.1255L28.1965 25.1372L28.195 25.1388L20.0003 33.3332L11.8083 25.1412L11.804 25.1369L14.8214 22.1279ZM30.3204 16.9878L27.307 20.0012L30.3203 23.0145L33.3336 20.001L30.3204 16.9878Z" fill="#797979"/>
<path d="M23.0559 19.9986H23.0572L19.9997 16.9409L17.7398 19.2002L17.4802 19.46L16.9447 19.9955L16.9404 19.9997L16.9447 20.0041L19.9997 23.0595L23.0574 20.0018L23.0589 20.0001L23.0562 19.9986" fill="#797979"/>
</svg>
