<svg width="40" height="40" viewBox="0 0 40 40" fill="none" xmlns="http://www.w3.org/2000/svg">
<path d="M39.401 24.8381C36.7299 35.5525 25.878 42.0731 15.1623 39.4012C4.45113 36.7301 -2.06944 25.8775 0.602877 15.1639C3.27285 4.44838 14.1248 -2.07268 24.8371 0.598468C35.552 3.26961 42.0722 14.1234 39.4007 24.8383L39.4009 24.8381H39.401Z" fill="#C1C1C1"/>
<path fill-rule="evenodd" clip-rule="evenodd" d="M28.8207 17.1506C29.2188 14.489 27.1924 13.0583 24.4216 12.1039L25.3204 8.49857L23.1258 7.95171L22.2507 11.4621C21.6738 11.3182 21.0813 11.1826 20.4924 11.0482L21.3738 7.51463L19.1805 6.96777L18.2811 10.5719C17.8036 10.4632 17.3347 10.3558 16.8797 10.2426L16.8823 10.2312L13.8558 9.47547L13.2719 11.8195C13.2719 11.8195 14.9002 12.1928 14.8659 12.2157C15.7546 12.4375 15.9153 13.0258 15.8886 13.4922L14.8647 17.5995C14.9259 17.615 15.0053 17.6375 15.0929 17.6727L15.0291 17.6568C14.975 17.6432 14.9187 17.6291 14.8609 17.6153L13.4257 23.3691C13.3171 23.6391 13.0414 24.0443 12.4201 23.8904C12.4421 23.9223 10.825 23.4923 10.825 23.4923L9.73535 26.0045L12.5914 26.7165C12.9039 26.7949 13.2128 26.8754 13.5186 26.9551L13.519 26.9552L13.5193 26.9553C13.733 27.011 13.9452 27.0663 14.1561 27.1202L13.2479 30.7669L15.44 31.3138L16.3394 27.7058C16.9383 27.8684 17.5194 28.0183 18.0884 28.1597L17.1921 31.7506L19.3868 32.2975L20.2949 28.6577C24.0373 29.3659 26.8512 29.0804 28.0357 25.6954C28.9901 22.9701 27.9882 21.3982 26.0193 20.3731C27.4533 20.0423 28.5335 19.0992 28.8215 17.1509L28.8208 17.1504L28.8207 17.1506ZM23.8063 24.1819C23.184 26.6823 19.2702 25.6486 17.4795 25.1756C17.3184 25.1331 17.1745 25.0951 17.0518 25.0646L18.2569 20.2334C18.4066 20.2708 18.5894 20.3118 18.7966 20.3583C20.6488 20.774 24.4438 21.6256 23.8064 24.1819H23.8063ZM19.1681 18.116C20.661 18.5144 23.9178 19.3836 24.485 17.111H24.4852C25.0644 14.7868 21.8993 14.0861 20.3535 13.7438C20.1796 13.7053 20.0262 13.6714 19.9009 13.6401L18.8083 18.0218C18.9114 18.0475 19.0325 18.0798 19.1681 18.116Z" fill="#797979"/>
</svg>
