<svg width="22" height="22" viewBox="0 0 22 22" fill="none" xmlns="http://www.w3.org/2000/svg">
<g clip-path="url(#clip0_1431_19129)">
<path d="M11 0C4.93036 0 0 4.93036 0 11C0 17.0696 4.93036 22 11 22C17.0696 22 22 17.0696 22 11C22 4.93036 17.0696 0 11 0ZM7.87679 7.66071C7.975 6.08929 9.25179 4.83214 10.8232 4.73393C12.65 4.63571 14.1429 6.08929 14.1429 7.87679C14.1429 9.60536 12.7286 11.0196 11 11.0196C9.19286 11.0196 7.75893 9.4875 7.87679 7.66071ZM17.2857 16.7554C17.2857 17.05 17.05 17.2857 16.7554 17.2857H5.26429C4.96964 17.2857 4.73393 17.05 4.73393 16.7554V15.1839C4.73393 13.1018 8.91786 12.0411 11 12.0411C13.0821 12.0411 17.2661 13.0821 17.2661 15.1839L17.2857 16.7554Z" fill="white" fill-opacity="0.8"/>
</g>
<defs>
<clipPath id="clip0_1431_19129">
<rect width="22" height="22" fill="white"/>
</clipPath>
</defs>
</svg>
