<svg width="50" height="50" viewBox="0 0 50 50" fill="none" xmlns="http://www.w3.org/2000/svg">
<path d="M11.6326 25.4809L25.4469 12.0297C25.7523 11.7361 25.9951 11.3864 26.1612 11.001C26.3274 10.6156 26.4136 10.202 26.4149 9.78407C26.4163 9.36609 26.3327 8.95198 26.1691 8.56556C26.0054 8.17915 25.7649 7.82806 25.4614 7.53251C25.1579 7.23695 24.7973 7.00276 24.4004 6.84341C24.0036 6.68406 23.5783 6.60271 23.1491 6.60402C22.7198 6.60533 22.295 6.68929 21.8992 6.85106C21.5034 7.01284 21.1444 7.24923 20.8428 7.54663L4.72695 23.2389C4.11643 23.8334 3.77344 24.6397 3.77344 25.4805C3.77344 26.3212 4.11643 27.1275 4.72695 27.722L20.8418 43.4106C21.144 43.7052 21.5029 43.9389 21.8979 44.0983C22.2929 44.2578 22.7163 44.3399 23.1439 44.3399C23.5715 44.3399 23.9949 44.2578 24.3899 44.0983C24.7849 43.9389 25.1437 43.7052 25.4459 43.4106C26.056 42.8159 26.3987 42.0097 26.3987 41.1691C26.3987 40.3285 26.056 39.5223 25.4459 38.9275L11.6326 25.4809Z" fill="url(#paint0_linear_72_2337)"/>
<path d="M31.4451 25.4742L45.2584 12.0278C45.5638 11.7342 45.8066 11.3847 45.9727 10.9995C46.1389 10.6142 46.2251 10.2008 46.2265 9.78294C46.2278 9.36511 46.1442 8.95114 45.9806 8.56487C45.817 8.17859 45.5764 7.82763 45.2729 7.53218C44.9694 7.23672 44.6088 7.00262 44.212 6.84333C43.8151 6.68404 43.3898 6.60271 42.9606 6.60402C42.5313 6.60533 42.1066 6.68926 41.7108 6.85098C41.315 7.01269 40.9559 7.249 40.6543 7.5463L24.5385 23.233C23.9279 23.8273 23.585 24.6333 23.585 25.4738C23.585 26.3142 23.9279 27.1202 24.5385 27.7145L40.6533 43.3976C40.955 43.6949 41.314 43.9312 41.7098 44.0929C42.1056 44.2546 42.5304 44.3385 42.9596 44.3398C43.3889 44.3411 43.8142 44.2598 44.211 44.1005C44.6079 43.9412 44.9684 43.7071 45.272 43.4117C45.5755 43.1162 45.816 42.7653 45.9797 42.379C46.1433 41.9927 46.2269 41.5787 46.2255 41.1609C46.2242 40.7431 46.1379 40.3296 45.9718 39.9444C45.8057 39.5591 45.5629 39.2096 45.2575 38.916L31.4451 25.4742Z" fill="url(#paint1_linear_72_2337)"/>
<defs>
<linearGradient id="paint0_linear_72_2337" x1="15.0942" y1="6.604" x2="15.0942" y2="44.3399" gradientUnits="userSpaceOnUse">
<stop stop-color="#F6F022"/>
<stop offset="1" stop-color="#95FA31"/>
</linearGradient>
<linearGradient id="paint1_linear_72_2337" x1="34.9057" y1="6.604" x2="34.9057" y2="44.3399" gradientUnits="userSpaceOnUse">
<stop stop-color="#F6F022"/>
<stop offset="1" stop-color="#95FA31"/>
</linearGradient>
</defs>
</svg>
