<svg width="40" height="40" viewBox="0 0 40 40" fill="none" xmlns="http://www.w3.org/2000/svg">
<path d="M30.0433 28.4519C32.2258 25.8943 33.464 22.6498 33.464 19.2324C33.4643 11.3715 27.0929 5 19.2324 5C11.3718 5 5 11.3719 5 19.2321C5 27.0926 11.3718 33.4649 19.232 33.4649C20.6404 33.4661 22.0412 33.2581 23.3886 32.8479C23.6724 32.7594 23.9096 32.5623 24.0485 32.2995C24.1874 32.0368 24.2168 31.7297 24.1301 31.4454C24.0434 31.1611 23.8477 30.9227 23.5858 30.7821C23.3239 30.6416 23.017 30.6104 22.7322 30.6953C21.5976 31.0406 20.418 31.2156 19.232 31.2144C12.6148 31.214 7.25047 25.8496 7.25047 19.2321C7.25047 12.6149 12.6148 7.25049 19.232 7.25049C25.8495 7.25049 31.2142 12.6149 31.2142 19.2321C31.2142 22.3715 29.9701 25.3399 27.7984 27.5773C27.5604 27.8224 27.4284 28.1513 27.4309 28.493C27.4335 28.8346 27.5703 29.1616 27.8119 29.4031L33.0855 34.6768C33.2971 34.885 33.5824 35.0012 33.8792 35C34.1761 34.9988 34.4604 34.8804 34.6703 34.6705C34.8803 34.4606 34.9987 34.1763 35 33.8795C35.0012 33.5826 34.8851 33.2973 34.677 33.0857L30.0433 28.4519Z" fill="white" fill-opacity="0.6"/>
</svg>
