<svg width="40" height="40" viewBox="0 0 40 40" fill="none" xmlns="http://www.w3.org/2000/svg">
<circle cx="20" cy="20" r="20" fill="#C1C1C1"/>
<path d="M12.3977 24.738C12.5363 24.5994 12.7269 24.5186 12.929 24.5186H31.2581C31.5931 24.5186 31.7605 24.9228 31.5238 25.1596L27.903 28.7803C27.7644 28.9189 27.5738 28.9998 27.3717 28.9998H9.04254C8.7076 28.9998 8.54013 28.5956 8.7769 28.3588L12.3977 24.738Z" fill="#797979"/>
<path d="M12.3977 11.2194C12.5421 11.0808 12.7326 11 12.929 11H31.2581C31.5931 11 31.7605 11.4042 31.5238 11.641L27.903 15.2618C27.7644 15.4004 27.5738 15.4812 27.3717 15.4812H9.04254C8.7076 15.4812 8.54013 15.077 8.7769 14.8402L12.3977 11.2194Z" fill="#797979"/>
<path d="M27.903 17.9358C27.7644 17.7972 27.5738 17.7163 27.3717 17.7163H9.04254C8.7076 17.7163 8.54013 18.1205 8.7769 18.3573L12.3977 21.9781C12.5363 22.1167 12.7269 22.1975 12.929 22.1975H31.2581C31.5931 22.1975 31.7605 21.7933 31.5238 21.5565L27.903 17.9358Z" fill="#797979"/>
</svg>
